<?xml version="1.0" encoding="UTF-8" standalone="no"?>
<svg
   id="svg"
   version="1.1"
   width="357.60803"
   height="357.62424"
   viewBox="0 0 357.60803 357.62424"
   sodipodi:docname="blind_joint_QR.svg"
   xmlns:inkscape="http://www.inkscape.org/namespaces/inkscape"
   xmlns:sodipodi="http://sodipodi.sourceforge.net/DTD/sodipodi-0.dtd"
   xmlns="http://www.w3.org/2000/svg"
   xmlns:svg="http://www.w3.org/2000/svg">
  <defs
     id="defs36752" />
  <sodipodi:namedview
     id="namedview36750"
     pagecolor="#ffffff"
     bordercolor="#000000"
     borderopacity="0.25"
     inkscape:showpageshadow="2"
     inkscape:pageopacity="0.0"
     inkscape:pagecheckerboard="0"
     inkscape:deskcolor="#d1d1d1"
     showgrid="false" />
  <g
     id="svgg"
     transform="translate(-21.195999,-21.17975)">
    <path
       id="path1"
       d="M 21.467,21.467 C 21.32,21.613 21.2,38.803 21.2,59.667 V 97.6 H 59.4 97.6 V 59.4 21.2 H 59.667 c -20.864,0 -38.054,0.12 -38.2,0.267 M 108,37.6 V 54 h 5.6 5.6 v -5.2 -5.2 h 5.2 5.2 V 38 32.4 h 5.6 5.6 V 26.8 21.2 H 124.4 108 v 16.4 m 43.512,-5.4 0.113,11 h -5.613 -5.612 v 5.4 5.4 h 5.6 5.6 v 5.622 5.622 l 5.201,-0.122 5.2,-0.122 v 5.5 L 162,76 h 16.4 16.4 v -5.4 -5.4 h 5.193 5.194 l 0.106,10.5 0.107,10.5 5.3,0.112 5.3,0.111 v 5.589 5.588 h 5.4 5.4 V 86.4 75.2 h -5.2 -5.2 v -5 -5 h 5.211 5.212 L 226.711,59.7 226.6,54.2 210.7,54.095 194.8,53.991 V 48.795 43.6 h 21.4 21.4 v 10.557 c 0,12.321 -0.698,11.043 6.033,11.043 H 248.4 V 59.6 54 h 5.4 c 2.97,0 5.379,0.135 5.353,0.3 -0.198,1.249 0.111,10.89 0.347,10.853 0.165,-0.026 5.025,-0.026 10.8,0 l 10.5,0.047 v 5.4 5.4 l 5.7,0.001 h 5.7 l -0.121,-5.6 -0.121,-5.601 H 286.579 281.2 V 59.4 54 h 5.4 5.4 V 37.6 21.2 l -10.9,-10e-4 h -10.9 l 0.121,5.6 0.121,5.601 h 5.179 5.179 v 5.412 5.411 L 275.5,43.112 270.2,43 270.088,37.693 269.977,32.387 259.488,32.493 249,32.6 l -0.112,5.3 -0.111,5.3 h -5.377 -5.377 l -0.111,-5.3 -0.112,-5.3 -16.2,-0.2 -16.2,-0.2 -0.112,-5.331 c -0.084,-4.028 0.004,-5.259 0.362,-5.038 0.298,0.184 0.368,0.121 0.188,-0.169 -0.397,-0.643 -11.279,-0.643 -11.676,0 -0.18,0.29 -0.11,0.353 0.188,0.169 0.358,-0.221 0.446,1.01 0.362,5.038 l -0.112,5.331 -10.7,0.107 -10.7,0.106 v 5.594 5.593 h 5.2 5.2 v 5.223 5.223 l -4.996,-0.123 c -5.902,-0.145 -5.404,-0.69 -5.404,5.91 V 64.8 h -5.4 -5.4 V 48.612 32.423 l 5.3,-0.111 5.3,-0.112 0.111,-5.5 0.112,-5.5 H 162.311 L 151.4,21.199 151.512,32.2 M 237.6,26.8 v 5.6 h 5.379 5.379 l 0.121,-5.601 0.121,-5.6 h -5.5 l -5.5,10e-4 v 5.6 m 64.8,32.598 V 97.6 h 38.202 38.202 L 378.702,59.5 378.6,21.4 340.5,21.298 302.4,21.196 V 59.398 M 86,59.4 V 86 H 59.4 32.8 V 59.4 32.8 H 59.4 86 v 26.6 m 281.2,0 V 86 H 340.6 314 V 59.4 32.8 h 26.6 26.6 V 59.4 M 51.474,42.699 c 4.22,0.065 11.24,0.065 15.6,0.001 4.359,-0.065 0.906,-0.118 -7.674,-0.118 -8.58,0 -12.147,0.053 -7.926,0.117 M 43.2,59.4 V 75.6 H 59.4 75.6 V 59.4 43.2 H 59.4 43.2 V 59.4 M 270.225,53.478 C 270.075,53.87 268.732,54 264.813,54 H 259.6 v -5.188 -5.189 l 5.3,-0.111 5.3,-0.112 0.113,4.778 c 0.062,2.628 0.023,5.013 -0.088,5.3 M 324.4,59.4 v 16.2 h 16.2 16.2 V 59.4 43.2 H 340.6 324.4 V 59.4 M 42.582,59.6 c 0,8.91 0.053,12.555 0.118,8.1 0.064,-4.455 0.064,-11.745 0,-16.2 -0.065,-4.455 -0.118,-0.81 -0.118,8.1 M 124.8,53.899 c -6.56,0.154 -6,-0.377 -6,5.701 0,6.133 -0.494,5.693 6.2,5.516 l 4.4,-0.116 0.112,-5.114 c 0.141,-6.447 0.408,-6.108 -4.712,-5.987 m 4.998,11.401 c -0.097,0.275 -0.226,2.795 -0.287,5.601 l -0.111,5.1 h 5.5 L 140.4,76 v 5.188 5.189 l -5.3,0.111 -5.3,0.112 -0.11,5.2 -0.11,5.2 -5.19,-0.122 -5.19,-0.122 V 85.978 75.2 h -5.357 c -4.516,0 -5.396,0.099 -5.6,0.633 -0.134,0.348 -0.243,10.248 -0.243,22 V 119.2 h 5.4 5.4 v 5.195 5.196 l -16.1,0.104 -16.1,0.105 -0.112,5.3 -0.111,5.3 h -5.608 -5.607 l 0.062,5.5 0.063,5.5 -5.043,0.112 -5.044,0.112 V 140.612 129.6 h 10.6 10.6 v -5.2 -5.2 H 92 97.6 V 113.6 108 H 92 86.4 v 5.4 5.4 H 81.2 76 v -5.5 -5.5 l -16.4,0.109 -16.4,0.108 v 10.78 10.78 l 5.3,0.111 5.3,0.112 0.2,16.2 0.2,16.2 26.888,0.103 26.889,0.103 0.111,5.263 0.112,5.263 5.3,-0.094 5.3,-0.094 v 5.428 5.428 h -5.4 -5.4 v -5.2 -5.2 H 97.2 86.4 v 5.2 5.2 H 81.2 76 l -0.006,-5.7 c -0.003,-3.135 -0.151,-5.472 -0.328,-5.193 -0.249,0.392 -2.702,0.483 -10.894,0.4 L 54.2,173 54.089,167.5 53.977,162 H 48.789 43.6 v -5.2 -5.2 h -5.612 -5.611 l 0.111,5.3 0.112,5.3 5.3,0.112 5.3,0.111 V 173.012 183.6 H 37.8 32.4 V 172.8 162 h -5.6 -5.6 v 16.4 16.4 h 5.6 5.6 l 0.006,4.9 c 0.008,6.094 -0.379,5.7 5.594,5.7 h 5 l 0.111,5.5 0.112,5.5 H 48.611 54 v -5.357 c 0,-6.36 -0.427,-5.935 5.829,-5.802 2.436,0.052 4.641,-0.037 4.9,-0.197 0.614,-0.38 0.659,-9.681 0.049,-10.058 -0.233,-0.143 -5.093,-0.236 -10.8,-0.206 L 43.6,194.835 V 189.418 184 h 15.788 15.789 l 0.111,5.3 0.112,5.3 5.5,0.111 5.5,0.112 v 4.956 c 0,6.946 -1.267,6.221 10.866,6.221 7.745,0 10.309,-0.117 10.096,-0.462 -0.177,-0.286 -0.11,-0.353 0.176,-0.176 0.33,0.204 0.462,3.299 0.462,10.862 V 226.8 h 5.4 5.4 v 5.4 5.4 h -5.388 -5.389 l -0.111,-5.3 -0.112,-5.3 -5.1,-0.112 -5.1,-0.112 V 221.388 216 H 92 86.4 v -5.411 -5.412 l -5.5,0.112 -5.5,0.111 -0.103,26.9 -0.103,26.9 H 70.197 65.2 v -10.167 c 0,-12.715 0.628,-11.433 -5.6,-11.433 -6.074,0 -5.6,-0.527 -5.6,6.233 V 248.8 H 37.6 21.2 v 21.6 21.6 h 5.6 5.6 v -16.2 -16.2 h 16.2 16.2 v 16.2 16.2 h 21.621 21.621 l -0.121,5.601 -0.121,5.6 h 5.5 l 5.5,-0.001 v 10.4 10.4 h -5.5 -5.5 l 0.109,16.4 0.108,16.4 h 5.392 5.391 v 11 11 h 27.2 27.2 v -5.6 -5.6 h 4.767 c 6.502,0 6.033,0.405 6.033,-5.21 0,-6.681 1.274,-5.99 -11.043,-5.99 H 162.4 v -5.2 -5.2 h -5.6 -5.6 v -5.6 -5.6 h -5.2 -5.2 v -16.2 -16.2 h -5.6 -5.6 v -5.2 -5.2 l -5.3,-0.082 -5.3,-0.081 5.2,-0.237 5.2,-0.237 -5.1,-0.081 -5.1,-0.082 v -5 -5 h 5.188 5.189 l 0.111,5.3 0.112,5.3 10.694,0.107 10.693,0.106 0.107,-10.906 0.106,-10.907 5.5,-0.111 5.5,-0.112 V 264.589 259.2 H 146 129.6 v -5.2 -5.2 h -5.2 -5.2 v -5.412 -5.411 l 5.3,0.111 5.3,0.112 0.112,5.1 0.112,5.1 h 5.388 5.388 v -5.4 -5.4 h -5.612 -5.611 l 0.111,-5.3 0.112,-5.3 5.5,-0.111 5.5,-0.112 V 215.989 205.2 h -5.6 -5.6 v -5.2 -5.2 h 5.6 5.6 v -5.6 -5.6 h -5.6 -5.6 v -5.2 -5.2 h 4.967 c 6.777,0 6.233,0.51 6.233,-5.843 V 162 H 124.4 108 v -10.6 -10.6 h 5.4 5.4 v 5.2 5.2 h 11 11 v -10.592 -10.593 l -0.9,-0.223 c -0.495,-0.124 -2.97,-0.172 -5.5,-0.108 l -4.6,0.116 -0.112,5.3 -0.111,5.3 h -5.189 -5.188 v -5.4 -5.4 h 5.2 5.2 v -5.2 -5.2 h 5.6 5.6 v -5.6 -5.6 h 5.211 5.212 L 151.111,102.5 151,97 145.9,96.888 140.8,96.776 V 91.588 86.4 h 5.2 5.2 V 80.8 75.2 H 146 140.8 V 70 64.8 h -5.413 c -3.969,0 -5.459,0.133 -5.589,0.5 M 248.8,80.8 v 5.6 h 5.2 5.2 v 5.2 5.2 h -5.2 -5.2 v 5.6 5.6 h 5.2 5.2 v 5.611 5.612 l 5.5,-0.112 5.5,-0.111 0.115,-20.6 c 0.063,-11.33 0.009,-21.185 -0.119,-21.9 l -0.232,-1.3 H 259.382 248.8 v 5.6 M 151.6,92 v 5.6 h 5.2 5.2 v 5.2 5.2 h 10.8 10.8 v 5.4 5.4 H 173 162.4 v -4.993 -4.994 l 10.5,-0.113 c 8.359,-0.091 7.258,-0.133 -5.4,-0.207 L 151.6,108.4 v 5.4 5.4 h 5.2 5.2 v 5.189 5.188 l 5.5,0.112 5.5,0.111 0.111,5.5 0.112,5.5 h 5.388 5.389 v -5.6 -5.6 l 5.1,-0.001 h 5.1 l -0.128,6.2 -0.128,6.201 h 5.628 5.628 v -2.92 c 0,-1.618 0.199,-3.119 0.447,-3.367 0.278,-0.278 0.387,-1.517 0.287,-3.28 l -0.16,-2.833 h 5.113 5.113 v 5.6 5.6 h 5.389 5.388 l 0.112,-5.5 0.111,-5.5 10.7,-0.107 10.7,-0.106 v -5.394 -5.393 h -5.2 -5.2 v -5.4 -5.4 h -5.6 -5.6 v 5.4 5.4 h -5.2 -5.2 v -5.389 -5.388 l -5.5,-0.112 -5.5,-0.111 -0.107,-10.7 -0.106,-10.7 H 200 194.813 l -0.106,10.7 -0.107,10.7 -5.3,0.112 -5.3,0.111 V 97.212 86.4 h -5.4 -5.4 l 0.001,5.3 V 97 l -5.4,-0.122 -5.401,-0.121 V 91.578 86.4 H 157 151.6 V 92 m 86,0 v 5.6 h 5.4 5.4 V 92 86.4 H 243 237.6 V 92 m 43.2,10.6 v 16.2 h -5.2 -5.2 v 5.4 5.4 h 5.4 5.4 v -5.2 -5.2 h 5 5 l 0.093,15.9 0.093,15.9 0.216,-16 0.216,-16 -0.009,16.2 -0.009,16.2 -5.5,0.111 -5.5,0.112 v 5.2 5.2 l -5.3,-0.111 -5.3,-0.112 -0.112,-5.1 -0.112,-5.1 h -5.388 -5.388 v 5.4 5.4 h 5.588 5.589 l 0.111,5.236 0.112,5.236 5,0.064 5,0.064 0.112,5.3 0.111,5.3 H 275.412 270 v -5.2 -5.2 h -5.4 -5.4 v 10.8 10.8 h 5.6 5.6 v 10.8 10.8 h 10.8 10.8 v -5.6 -5.6 h -5.4 -5.4 V 194.6 184 h 10.6 10.6 v 5 5 h -5.17 -5.171 l 0.071,5.63 0.07,5.629 5.4,0.014 c 2.97,0.007 5.22,0.083 5,0.169 -0.248,0.097 -0.354,2.213 -0.278,5.557 l 0.121,5.401 h 5.579 5.578 v -5.6 -5.6 h -5.2 -5.2 v -5.2 -5.2 h 5.2 5.2 v -5.4 -5.4 h 5.212 5.211 l -0.111,5.3 -0.112,5.3 -4.8,0.026 -4.8,0.027 4.8,-0.246 4.8,-0.246 -4.892,-0.081 c -5.815,-0.095 -5.397,-0.613 -5.224,6.46 l 0.116,4.74 10.137,-0.058 c 7.221,-0.042 10.299,0.076 10.7,0.409 0.48,0.398 0.563,-0.369 0.563,-5.17 v -5.638 l 5.3,-0.111 5.3,-0.112 0.2,-5.501 0.2,-5.501 -5.2,-0.046 c -2.86,-0.026 -5.335,-0.025 -5.5,0.001 -0.165,0.026 -0.3,-2.338 -0.301,-5.253 l -0.001,-5.3 4.47,0.126 c 6.839,0.193 6.332,0.652 6.332,-5.734 V 162 h -10.6 -10.6 v -5.2 -5.2 h -5.6 -5.6 v 5.2 5.2 h -5.178 -5.179 l -0.121,-5.401 -0.122,-5.4 h 5.3 l 5.3,10e-4 v -5.2 -5.2 h 5.357 c 6.339,0 5.843,0.508 5.843,-5.986 0,-5.605 0.505,-5.2 -6.5,-5.209 l -4.7,-0.005 v -5.2 -5.2 h 5.6 5.6 v -5.357 c 0,-4.516 -0.099,-5.396 -0.633,-5.6 -0.348,-0.134 -7.728,-0.243 -16.4,-0.243 H 292 V 97.2 86.4 h -5.6 -5.6 v 16.2 m -151.2,10.8 v 5.4 h -5.2 -5.2 v -5 -5 l 5.1,-0.082 5.1,-0.081 -5.2,-0.237 -5.2,-0.237 5.3,-0.081 5.3,-0.082 v 5.4 m 216.4,0.2 v 5.6 h 10.8 10.8 v 5.179 5.179 l 5.601,0.121 5.6,0.121 V 118.9 L 378.8,108 H 362.4 346 v 5.6 m -202.484,-4.903 c 1.383,0.078 3.543,0.077 4.8,-0.002 1.256,-0.079 0.124,-0.143 -2.516,-0.142 -2.64,0 -3.668,0.065 -2.284,0.144 m 108.4,0 c 1.383,0.078 3.543,0.077 4.8,-0.002 1.256,-0.079 0.124,-0.143 -2.516,-0.142 -2.64,0 -3.668,0.065 -2.284,0.144 M 21.2,129.8 v 11 h 5.6 5.6 v -11 -11 h -5.6 -5.6 v 11 m 238.5,0.059 c -0.365,0.152 -0.5,1.658 -0.5,5.574 v 5.367 h 5.6 5.6 v 5.2 5.2 h 5.4 5.4 v -5.4 -5.4 h -5.388 -5.389 l -0.111,-5.3 -0.112,-5.3 -5,-0.074 c -2.75,-0.041 -5.225,0.019 -5.5,0.133 m 75.8,0.017 c -0.716,0.187 -1.091,8.64 -0.457,10.291 0.362,0.944 10.352,0.944 10.714,0 0.585,-1.524 0.262,-10.074 -0.39,-10.324 -0.715,-0.275 -8.793,-0.248 -9.867,0.033 m 21.4,-0.011 c -0.364,0.147 -0.5,1.609 -0.5,5.368 v 5.167 h -5.2 -5.2 v 5.4 5.4 h 5.4 5.4 v -5.2 -5.2 h 5.4 5.4 v 5.2 5.2 h 5.6 5.6 v -5.4 -5.4 h -5.6 -5.6 v -5.157 c 0,-4.334 -0.101,-5.196 -0.633,-5.4 -0.75,-0.288 -9.345,-0.269 -10.067,0.022 M 96.8,145.567 c 0,2.622 0.109,5.052 0.243,5.4 0.214,0.557 -0.38,0.633 -4.957,0.633 -6.161,0 -5.686,0.504 -5.686,-6.033 V 140.8 h 5.2 5.2 v 4.767 m 11.774,5.833 c 0.001,5.72 0.057,8.004 0.125,5.076 0.069,-2.928 0.068,-7.608 0,-10.4 -0.069,-2.792 -0.125,-0.396 -0.125,5.324 M 356.4,157 v 5.4 h 5.357 c 6.342,0 5.843,0.515 5.843,-6.033 V 151.6 h -5.6 -5.6 v 5.4 m 11.289,10.5 0.111,5.5 5.5,0.111 5.5,0.112 V 167.611 162 h -5.611 -5.612 l 0.112,5.5 m -65.289,0.3 v 5.4 h -10.6 -10.6 v -5.4 -5.4 h 10.6 10.6 v 5.4 m 21.6,0 v 5.4 h -5.2 -5.2 v -5.4 -5.4 h 5.2 5.2 v 5.4 m 32.4,10.546 c 0,6.124 -0.501,5.654 6.025,5.654 5.641,0 5.267,0.455 5.091,-6.2 l -0.116,-4.4 -5.5,-0.111 -5.5,-0.112 v 5.169 m 11.2,16.503 c 0,9.601 0.082,11.181 0.56,10.784 0.738,-0.612 10.356,-0.544 9.976,0.071 -0.152,0.245 -0.067,0.301 0.202,0.134 0.331,-0.204 0.462,-3.396 0.462,-11.262 V 183.6 h -5.6 -5.6 v 11.249 m -259.688,-5.582 c -0.091,4.278 -0.225,5.298 -0.712,5.431 -0.533,0.145 -0.533,0.115 0,-0.269 0.434,-0.313 -2.359,-0.404 -10.1,-0.33 L 86.399,194.2 86.4,189.1 V 184 h 10.812 10.811 l -0.111,5.267 m 248.276,5.153 c -0.163,0.263 -2.085,0.395 -5.124,0.353 l -4.864,-0.068 -0.112,5.739 c -0.088,4.539 -0.008,5.636 0.38,5.248 0.671,-0.671 9.183,-0.681 9.852,-0.012 0.373,0.373 0.48,-0.871 0.48,-5.6 0,-5.909 -0.068,-6.54 -0.612,-5.66 m -64.833,5.38 c 10e-4,2.86 0.065,3.978 0.142,2.483 0.077,-1.494 0.077,-3.834 -0.001,-5.2 -0.078,-1.365 -0.141,-0.143 -0.141,2.717 M 21.2,210.8 v 5.6 h 5.6 5.6 v -5.6 -5.6 h -5.6 -5.6 v 5.6 m 303,5.431 c -0.256,0.108 -0.36,3.973 -0.287,10.769 l 0.113,10.6 h -5.213 -5.213 v 5.4 5.4 h 10.6 10.6 v 5.4 5.4 h -10.6 -10.6 v 10.8 10.8 h -16.2 -16.2 v -5.2 -5.2 h 5.213 c 6.36,0 5.776,1.246 5.302,-11.313 -0.296,-7.872 -0.394,-8.967 -0.447,-4.987 l -0.068,5.1 h -10.389 -10.388 l -0.112,5.5 -0.111,5.5 h -10.8 -10.8 l -0.111,-5.5 -0.112,-5.5 h -10.545 c -12.304,0 -11.032,-0.691 -11.032,5.99 0,5.615 -0.469,5.21 6.033,5.21 h 4.767 v 5.2 5.2 h -5.4 -5.4 v 10.567 c 0,13.177 -0.641,11.833 5.643,11.833 h 5.157 v 5.2 5.2 h 5.6 5.6 v 10.8 10.8 h 5.2 5.2 v 10.8 10.8 h 5.6 5.6 l -0.006,-10.5 c -0.008,-12.699 0.555,-11.577 -5.733,-11.424 L 259.599,335 v -5.1 l 0.001,-5.1 h 10.6 10.6 v 5.2 5.2 h 5.595 5.596 l 0.104,16.1 0.105,16.1 5.1,0.112 5.1,0.112 v 5.588 5.588 h 5.6 5.6 v -5.6 -5.6 h 4.967 c 6.735,0 6.233,0.425 6.233,-5.271 0,-6.171 0.252,-5.929 -6.171,-5.929 H 313.6 v -5.2 -5.2 l -5.3,10e-4 H 303 l 0.122,-5.4 0.121,-5.401 10.479,-10e-4 10.478,-0.001 -0.2,5.143 c -0.243,6.249 -0.601,5.886 5.659,5.737 l 5.141,-0.122 v 5.422 5.422 h 5.6 5.6 v 5.4 5.4 h -5.6 -5.6 v 5.6 5.6 l 16.5,10e-4 h 16.5 l -0.121,-5.6 -0.121,-5.601 h -5.386 -5.385 l 0.106,-10.7 0.107,-10.7 5.2,-0.2 5.2,-0.2 0.112,-5.3 0.111,-5.3 h 5.589 5.588 v -10.9 l 10e-4,-10.9 h -5.501 -5.5 l -0.112,-5.2 -0.111,-5.2 5.611,0.121 5.612,0.121 10e-4,-16.521 V 270.2 l -5.6,0.121 -5.601,0.121 v 5.179 5.179 h -5.4 -5.4 v -5.2 -5.2 h -5.405 -5.404 l 0.104,-16.1 0.105,-16.1 5.1,-0.112 5.1,-0.112 v 5.212 5.212 h 5.6 5.6 v -4.767 c 0,-6.534 0.469,-6.033 -5.643,-6.033 H 356.8 V 226.8 216 h -5.4 -5.4 v 5.5 5.5 h -5.4 -5.4 v -5.5 -5.5 l -5.3,0.032 c -2.915,0.017 -5.48,0.107 -5.7,0.199 M 32.667,227.067 c -0.147,0.146 -0.267,2.666 -0.267,5.6 V 238 H 43.2 54 v -5.6 -5.6 H 43.467 c -5.794,0 -10.654,0.12 -10.8,0.267 m 64.211,5.132 -0.121,5.401 H 91.578 86.4 v -4.767 c 0,-6.527 -0.454,-6.033 5.543,-6.034 H 97 l -0.122,5.4 M 259.7,227.065 c -0.382,0.154 -0.5,2.692 -0.5,10.78 v 10.578 l 5.5,-0.112 5.5,-0.111 0.112,-5.1 0.112,-5.1 h 5.188 5.188 v 5.2 5.2 h 5.6 5.6 v -5.2 -5.2 h 5.6 5.6 v -5.357 c 0,-4.516 -0.099,-5.396 -0.633,-5.6 -0.756,-0.29 -42.146,-0.269 -42.867,0.022 M 108.554,232.4 c 0,2.75 0.064,3.875 0.142,2.5 0.078,-1.375 0.078,-3.625 0,-5 -0.078,-1.375 -0.142,-0.25 -0.142,2.5 M 108,248.8 v 10.8 h 10.757 c 9.44,0 10.787,0.077 11,0.633 0.356,0.927 0.285,9.082 -0.084,9.662 -0.24,0.378 -4.161,0.521 -16.494,0.6 L 97,270.6 l -0.112,5.1 -0.112,5.1 H 86.388 76 v -10.6 -10.6 h 5.2 5.2 v 5.411 5.412 l 5.5,-0.112 5.5,-0.111 0.111,-5.5 0.112,-5.5 H 92.011 86.4 v -4.767 c 0,-6.548 -0.499,-6.033 5.843,-6.033 H 97.6 v -5.2 -5.2 h 5.2 5.2 v 10.8 m 184,5.4 v 5.4 h 5.6 5.6 v -5.4 -5.4 h -5.6 -5.6 v 5.4 m 75.6,-0.2 c 0,2.86 -0.135,5.179 -0.3,5.153 -0.165,-0.026 -2.685,-0.026 -5.6,0 l -5.3,0.047 v 5.4 5.4 h 5.6 5.6 v -5.2 -5.2 h 5.6 5.6 v -5.4 -5.4 h -5.6 -5.6 v 5.2 m -194.4,10.6 v 5.4 h 5.4 5.4 v -5.4 -5.4 h -5.4 -5.4 v 5.4 m 21.6,-4.776 c 0,0.343 -0.18,0.512 -0.4,0.376 -0.799,-0.494 -0.502,9.034 0.3,9.643 0.731,0.555 19.703,0.838 21.067,0.314 0.534,-0.204 0.633,-1.084 0.633,-5.6 V 259.2 h -10.8 c -9.515,0 -10.8,0.074 -10.8,0.624 M 162,281.2 V 292 h -5.2 -5.2 v 5.6 5.6 h 5.2 5.2 l 0.001,10.5 v 10.5 l -5.2,-0.122 -5.201,-0.122 v 5.628 5.629 l 10.7,-0.106 10.7,-0.107 0.112,-5.1 0.112,-5.1 h 5.212 c 3.372,0 5.124,-0.141 4.964,-0.4 -0.136,-0.22 -0.051,-0.4 0.188,-0.4 0.298,0 0.4,-1.621 0.324,-5.1 l -0.112,-5.1 -5.289,-0.112 -5.289,-0.111 -0.111,-5.489 -0.111,-5.488 -5.3,-0.112 -5.3,-0.111 V 297.188 292 h 10.6 10.6 v 5.6 5.6 h 5.6 5.6 v 10.8 10.8 h 5.2 5.2 V 314 303.2 h 5.6 5.6 V 292 280.8 h -5.6 -5.6 v 5.6 5.6 h -5.2 -5.2 v -10.8 -10.8 h -5.6 -5.6 v 5.2 5.2 h -5.4 -5.4 v -5.2 -5.2 h -5.4 -5.4 v 10.8 m 172.8,-5.6 v 5.2 h -4.978 -4.978 l -0.122,-5.201 -0.122,-5.2 h 5.1 l 5.1,10e-4 v 5.2 M 43.2,286.4 v 5.6 h 5.4 5.4 v -5.6 -5.6 h -5.4 -5.4 v 5.6 m 216,-0.2 v 5 l -5.1,0.082 -5.1,0.081 5.2,0.237 5.2,0.237 -5.3,0.081 -5.3,0.082 10e-4,5.3 v 5.3 l -5.4,-0.122 -5.401,-0.121 v -5.379 -5.378 h 5.2 5.2 v -5.2 -5.2 h 5.4 5.4 v 5 m 97.2,11.212 v 16.212 l -5.1,-0.112 -5.1,-0.112 -0.105,-16.1 -0.104,-16.1 h 5.204 5.205 v 16.212 m -158.9,-5.916 c 1.375,0.078 3.625,0.078 5,0 1.375,-0.078 0.25,-0.142 -2.5,-0.142 -2.75,0 -3.875,0.064 -2.5,0.142 m 126.9,16.512 v 16.408 L 308,324.391 291.6,324.367 V 308.25 c 0,-8.864 0.12,-16.237 0.267,-16.383 0.146,-0.147 7.526,-0.267 16.4,-0.267 H 324.4 v 16.408 m -54.093,-5.308 -0.107,10.7 -5.3,0.112 -5.3,0.111 V 302.812 292 h 5.407 5.406 l -0.106,10.7 m -249.009,37.8 0.102,38.1 38.1,0.102 38.1,0.102 V 340.602 302.4 H 59.398 21.196 l 0.102,38.1 M 302.4,308.011 v 5.612 l 5.5,-0.112 5.5,-0.111 0.111,-5.5 0.112,-5.5 h -5.612 -5.611 v 5.611 M 86,340.6 v 26.6 H 59.4 32.8 V 340.6 314 H 59.4 86 v 26.6 m -43.418,-0.2 c 0,8.91 0.053,12.555 0.118,8.1 0.064,-4.455 0.064,-11.745 0,-16.2 -0.065,-4.455 -0.118,-0.81 -0.118,8.1 m 0.618,0.2 v 16.2 H 59.4 75.6 V 340.6 324.4 H 59.4 43.2 v 16.2 m 86.4,-11 v 5.2 h -5.2 -5.2 v -4.988 -4.988 l 5.1,-0.125 c 2.805,-0.069 5.145,-0.164 5.2,-0.212 0.055,-0.048 0.1,2.253 0.1,5.113 m 226.8,0.2 v 5 h -5.2 -5.2 v 5.6 5.6 h -5.4 -5.4 v -10.6 -10.6 h 10.6 10.6 v 5 m -172.711,10.618 0.111,5.618 16.1,-0.026 16.1,-0.027 v 5.208 5.209 h -10.611 -10.612 l 0.112,5.5 0.111,5.5 10.7,0.107 10.7,0.106 v -5.406 -5.407 h 5.2 5.2 v -11 -11 h -21.611 -21.611 l 0.111,5.618 m 54.411,-5.353 c -0.382,0.154 -0.5,2.689 -0.5,10.768 V 356.4 h -5.192 c -6.152,0 -5.699,-0.525 -5.524,6.4 l 0.116,4.6 5.5,0.111 5.5,0.112 0.047,-5.112 c 0.026,-2.811 0.026,-5.246 0,-5.411 -0.026,-0.165 2.293,-0.3 5.153,-0.3 h 5.2 v -11 -11 l -4.9,0.032 c -2.695,0.017 -5.125,0.122 -5.4,0.233 m 53.282,16.335 c 0,8.58 0.053,12.033 0.118,7.674 0.064,-4.36 0.064,-11.38 -10e-4,-15.6 -0.064,-4.221 -0.117,-0.654 -0.117,7.926 M 140.4,351.2 v 5.2 h -10.6 -10.6 v -5.2 -5.2 h 10.6 10.6 v 5.2 m 11.2,11 v 5.4 h -5.4 -5.4 v -5.4 -5.4 h 5.4 5.4 v 5.4 M 51.474,357.499 c 4.22,0.065 11.24,0.065 15.6,10e-4 4.359,-0.065 0.906,-0.118 -7.674,-0.118 -8.58,0 -12.147,0.053 -7.926,0.117 M 248.8,373.193 v 5.607 h 10.811 10.812 l -0.112,-5.5 -0.111,-5.5 -10.7,-0.107 -10.7,-0.106 v 5.606 m 32,0.007 v 5.6 h 5.6 5.6 v -5.6 -5.6 h -5.6 -5.6 v 5.6"
       stroke="none"
       fill="#040404"
       fill-rule="evenodd" />
  </g>
  <path
     d="m 178.1978,140.06234 -45.72609,69.45887 -5.30405,8.05695 h 17.54273 l 16.50886,-25.07729 h 34.69979 17.73884 l -8.73262,-13.68062 25.51507,-38.75791 h -18.01242 l -25.51507,38.75791 h -16.68738 l 25.51508,-38.75791 z"
     id="path150-4"
     color="accent"
     inkscape:export-filename="..\..\..\..\..\Users\Kyle\Nextcloud\DoomcubeDiscord\Documentation\MicronManual\Vectors\Icons\Micron_logot.png"
     inkscape:export-xdpi="300"
     inkscape:export-ydpi="300" />
</svg>
