<?xml version="1.0" encoding="UTF-8" standalone="no"?>
<svg xmlns="http://www.w3.org/2000/svg" xmlns:xlink="http://www.w3.org/1999/xlink" width="3000.000mm" height="2000.000mm" viewBox="0.000000 0.000000 3000.000000 2000.000000" stroke-linejoin="round" stroke-linecap="round" fill="none" fill-rule="evenodd"><desc>Composer Export</desc><script type="text/ecmascript"><![CDATA[
if(typeof(top) != "undefined")
{
	top.ShowPaper = ShowPaper;
}
function ShowHotSpot(evt,hotspotid)
{
	var svgDocument = evt.target.ownerDocument;
	var strId = "hotspot."+hotspotid;
	var hotspot = svgDocument.getElementById(strId);
	if(hotspot)
		hotspot.setAttribute("opacity",".5");
}
function HideHotSpot(evt,hotspotid)
{
	var svgDocument = evt.target.ownerDocument;
	var strId = "hotspot."+hotspotid;
	var hotspot = svgDocument.getElementById(strId);
	if(hotspot)
		hotspot.setAttribute("opacity","0");

	var toolTip = svgDocument.getElementById('ToolTip');
	if(toolTip)
		toolTip.setAttribute("visibility","hidden");
}
function ShowToolTip(evt,hotspotid,strTooltip)
{
	if(strTooltip=="")
	return;

	// change text
	var svgDocument = evt.target.ownerDocument;
	var tiptext = svgDocument.getElementById('ToolTipText');
	if( !tiptext )
	return;
	tiptext.firstChild.nodeValue = " " + strTooltip + "  " ;

	// show tooltip before, else some refresh issue

	var toolTip = svgDocument.getElementById('ToolTip');
	if(!toolTip)
	return;

	toolTip.setAttribute("visibility","visible");
	toolTip.setAttribute("opacity",".95");

	// move tooltip
	// get viewbox

	var root = svgDocument.documentElement;
	var vbox = (root.getAttribute("viewBox")).split(' ');
	var x0 = parseFloat(vbox[0]);
	var y0 = parseFloat(vbox[1]);
	var vboxW = parseFloat(vbox[2]);
	var vboxH = parseFloat(vbox[3]);

	// get default width of svg

	var strW = root.getAttribute("width");
	var svgW = parseFloat(strW);
	if(strW.indexOf('mm') != -1)
	svgW *= 3.779;

	var strH = root.getAttribute("height");
	var svgH = parseFloat(strH);
	if(strH.indexOf('mm') != -1)
	svgH *= 3.779;  	// 96 dpi  -> 96/25.4 = 3.779

	// update the viewbox / width / height if svg is embedded in html with zoom fit all
	var realx0 = x0;
	var realy0 = y0;
	var realvboxW = vboxW;
	var realvboxH = vboxH;
	var realsvgW = svgW;
	var realsvgH = svgH;

	if ((typeof(top) == "undefined") || (typeof(top.svgctl1) != "undefined")) // embedded in html
	{
		// get window size in pxl

		svgW = window.innerWidth;
		svgH = window.innerHeight;

		// calculate real viewbox

		realsvgW = svgW;
		realsvgH = svgH;
		if((svgW / svgH) > (vboxW / vboxH))
		{
			realvboxW = (vboxH * svgW) / svgH;
			realvboxH = vboxH;
			realx0 = x0 - (realvboxW - vboxW)/2 ;
		}
		else
		{
			realvboxH = (vboxW * svgH) / svgW;
			realvboxW = vboxW;
			realy0 = y0 - (realvboxH - vboxH)/2 ;
		}
	}

	// get user zoom/pan

	var newScale = root.currentScale;
	var translation = root.currentTranslate;

	// transform pxl to user unit

	var xPos = (((evt.clientX+10- translation.x)/newScale) * realvboxW)/realsvgW  + realx0 ;
	var yPos = (((evt.clientY+5- translation.y)/newScale) * realvboxH)/ realsvgH  + realy0 ;
	var scaleForWidth = ( (1 / newScale) * realvboxH) / realsvgH;

	// move tooltip

	toolTip.setAttribute("transform", "translate(" + xPos + "," + yPos + ")" );

	// resize tooltip

	var fontsize = 12;
	tiptext.setAttribute("font-size",fontsize*scaleForWidth);
	tiptext.setAttribute("y", fontsize*scaleForWidth);
	var tipBG = svgDocument.getElementById('ToolTipBG');
	var outline = tiptext.getBBox();
	if(tipBG)
	{
		tipBG.setAttribute("stroke-width", 1*scaleForWidth);
		tipBG.setAttribute("width", Number(outline.width) );
		tipBG.setAttribute("height", Number(outline.height) + fontsize*.5*scaleForWidth );
	}
	var ToolTipShadow = svgDocument.getElementById('ToolTipShadow');
	if(ToolTipShadow)
	{
		ToolTipShadow.setAttribute("width", Number(outline.width) );
		ToolTipShadow.setAttribute("height", Number(outline.height) + fontsize*.5*scaleForWidth );
		ToolTipShadow.setAttribute("x", 3*scaleForWidth);
		ToolTipShadow.setAttribute("y", 3*scaleForWidth);
	}
}
function ShowPaper()
{
  var svgDocument = getDocument();
  var paper = svgDocument.getElementById("paperID");
  if(paper)
  {
    paper.setAttribute("transform","scale(1)");
    paper.setAttribute("opacity","1");
    paper.setAttribute("visibility","visible");
  }
  var svg = svgDocument.getRootElement();
  if(svg)
  {
    svg.setAttribute("width","3010.000mm");
    svg.setAttribute("height","2010.000mm");
    svg.setAttribute("viewBox","-5.000000 -5.000000 3010.000000 2010.000000");
  }
}
]]></script><defs/><g><path style="fill:#ffffff" d="M1402.01,796.10L1401.37,797.27L1398.51,797.71L1373.84,806.95L1337.25,843.40L1330.09,851.88L1329.51,893.07L1329.90,1101.27L1361.97,1162.83L1402.52,1220.24L1401.68,1967.64L1402.85,1967.96L1404.18,1222.20L1497.65,1354.32L1542.25,1363.45L1629.76,1380.95L1644.77,1384.16L1696.68,1394.16L1697.30,1395.35L1697.60,1999.89L0.30,1999.78L0.30,0.30L1402.32,0.20z"/><path style="fill:#97fa98" d="M1421.48,865.66L1423.20,868.98L1424.91,869.65L1430.17,870.64L1717.08,928.30L1730.56,928.26L1739.14,926.35L1751.79,921.50L1752.49,902.56L1761.37,903.11L1770.62,902.07L1795.38,902.07L1804.57,903.06L1878.43,877.55L1880.75,878.41L1990.89,900.47L2007.99,903.66L2012.24,905.58L2055.84,967.13L2055.86,1293.28L1981.31,1368.12L1972.98,1377.28L1922.73,1427.85L1904.81,1434.63L1895.82,1434.57L1808.77,1416.89L1806.62,1416.69L1806.26,1415.97L1803.64,1415.87L1698.90,1395.02L1696.68,1394.16L1644.77,1384.16L1629.76,1380.95L1542.25,1363.45L1497.65,1354.32L1404.18,1222.20L1402.52,1220.24L1361.97,1162.83L1329.90,1101.27L1329.51,893.07L1330.09,851.88L1337.25,843.40L1373.84,806.95L1398.51,797.71L1401.37,797.27L1403.52,796.33L1420.50,790.42z"/><path style="fill:#696969" d="M1403.52,796.33L1401.37,797.27L1402.01,796.10L1402.32,0.20L1403.35,0.20z"/><path style="fill:#696969" d="M1698.90,1061.68L1698.68,1173.72L1697.41,1172.93L1697.62,1059.86z"/><path style="fill:#696969" d="M1696.68,1394.16L1698.90,1395.02L1698.63,1999.89L1697.60,1999.89L1697.30,1395.35z"/><path style="fill:#ffffff" d="M1403.52,796.33L1403.35,0.20L2999.82,0.30L2999.82,1999.78L2267.59,1999.89L2267.24,1049.69L2266.56,1999.89L1806.66,1999.89L1806.62,1416.69L1808.77,1416.89L1895.82,1434.57L1904.81,1434.63L1922.73,1427.85L1972.98,1377.28L1981.31,1368.12L2055.86,1293.28L2056.32,967.44L2055.84,967.13L2012.24,905.58L2007.99,903.66L1990.89,900.47L1880.75,878.41L1880.33,876.88L1878.43,877.55L1804.57,903.06L1795.38,902.07L1770.62,902.07L1761.37,903.11L1752.49,902.56L1751.79,921.50L1739.14,926.35L1730.56,928.26L1717.08,928.30L1430.17,870.64L1424.91,869.65L1423.20,868.98L1421.48,865.66L1420.50,790.42z"/><path style="fill:#ffffff" d="M1700.46,1064.05L1711.66,1084.76L1718.41,1104.98L1718.98,1108.02L1719.43,1110.19L1720.02,1113.20L1720.46,1117.31L1721.05,1121.47L1721.05,1140.98L1719.86,1148.86L1715.74,1164.27L1709.54,1177.74L1706.49,1177.43L1698.68,1173.72L1698.90,1061.68z"/><path style="fill:#ffffff" d="M1803.64,1415.87L1805.59,1416.95L1805.63,1999.89L1698.63,1999.89L1698.90,1395.02z"/><path style="fill:#696969" d="M1880.75,878.41L1878.43,877.55L1880.33,876.88z"/><path style="fill:#696969" d="M1404.18,1222.20L1402.85,1967.96L1401.68,1967.64L1402.52,1220.24z"/><path style="fill:#696969" d="M2267.59,1999.89L2266.56,1999.89L2267.24,1049.69z"/><path style="fill:#696969" d="M1806.66,1999.89L1805.63,1999.89L1805.59,1416.95L1806.62,1416.69z"/><path style="fill:#97fa98" d="M1240.47,1179.40L1251.77,1183.52L1258.96,1187.65L1268.31,1194.75L1274.43,1199.95L1283.76,1211.20L1292.92,1226.73L1298.03,1239.12L1301.71,1253.14L1302.30,1256.20L1302.77,1259.30L1303.34,1263.45L1304.28,1273.09L1302.78,1288.12L1301.72,1293.26L1299.05,1303.17L1293.96,1314.53L1286.33,1325.43L1278.58,1332.08L1270.00,1337.91L1100.91,1397.38L1099.38,1395.45L1099.00,1399.22L1098.61,1404.40L1096.98,1412.55L1093.32,1428.72L1087.14,1445.18L1080.95,1456.48L1073.74,1467.79L1064.51,1479.13L1056.37,1486.43L1047.61,1493.10L1039.93,1497.77L1029.51,1502.78L1011.97,1508.91L999.01,1511.64L993.83,1512.18L971.22,1511.62L963.99,1510.59L949.25,1506.62L929.74,1498.35L912.37,1487.94L895.88,1475.62L881.47,1462.25L870.14,1448.89L858.72,1432.53L845.34,1405.79L838.13,1383.15L837.26,1378.66L837.16,1375.96L836.68,1375.64L836.23,1373.45L836.13,1370.81L835.65,1370.49L835.19,1368.35L835.08,1364.59L834.64,1364.24L834.13,1361.20L834.01,1355.34L833.61,1354.96L833.14,1349.89L833.14,1329.24L834.61,1313.82L835.65,1308.64L836.68,1302.49L839.89,1288.47L848.46,1266.18L853.59,1255.88L862.95,1240.53L873.24,1229.22L882.08,1220.57L896.50,1211.33L901.62,1208.22L924.26,1199.99L938.29,1197.32L959.90,1196.77L968.17,1197.79L986.28,1202.08L1003.83,1209.23L1022.30,1220.60L1037.76,1232.91L1042.45,1237.72L1042.89,1239.15L1044.64,1239.15L1045.21,1237.86L1210.26,1179.40L1221.21,1177.79L1229.51,1177.79z"/><path style="fill:#000000" d="M1644.89,1087.54L1644.34,1082.31L1644.76,1082.69z"/><path style="fill:#000000" d="M1645.92,1094.72L1645.35,1091.63L1645.81,1091.98z"/><path style="fill:#000000" d="M1718.98,1108.02L1718.41,1104.98L1718.90,1105.32z"/><path style="fill:#000000" d="M1720.02,1113.20L1719.43,1110.19L1719.91,1110.51z"/><path style="fill:#000000" d="M1721.05,1121.47L1720.46,1117.31L1720.91,1117.66z"/><path style="fill:#000000" d="M1042.45,1237.72L1045.21,1237.86L1044.64,1239.15L1042.89,1239.15z"/><path style="fill:#000000" d="M1302.30,1256.20L1301.71,1253.14L1302.18,1253.51z"/><path style="fill:#000000" d="M1303.34,1263.45L1302.77,1259.30L1303.21,1259.65z"/><path style="fill:#000000" d="M2055.86,1293.28L2055.84,967.13L2056.32,967.44z"/><path style="fill:#000000" d="M834.13,1361.20L833.61,1354.96L834.01,1355.34z"/><path style="fill:#000000" d="M835.19,1368.35L834.64,1364.24L835.08,1364.59z"/><path style="fill:#000000" d="M836.23,1373.45L835.65,1370.49L836.13,1370.81z"/><path style="fill:#000000" d="M837.26,1378.66L836.68,1375.64L837.16,1375.96z"/><path style="fill:#000000" d="M1100.91,1397.38L1099.00,1399.22L1099.38,1395.45z"/><path style="fill:#000000" d="M1806.62,1416.69L1805.59,1416.95L1803.64,1415.87L1806.26,1415.97z"/><path style="fill:#ffffff" d="M1671.50,1035.40L1685.04,1045.53L1697.62,1059.86L1697.41,1172.93L1685.01,1163.88L1675.73,1155.67L1663.43,1139.16L1654.02,1121.82L1648.83,1106.43L1645.92,1094.72L1645.81,1091.98L1645.35,1091.63L1644.89,1087.54L1644.76,1082.69L1644.34,1082.31L1644.34,1066.96L1645.51,1058.02L1648.85,1043.89L1655.82,1028.13L1657.05,1028.04z"/><g id="Actor_.0"><g style="stroke:#696969;stroke-width:1.058"><path d="M1403.67,1967.36 C1403.24,1967.54 1403.23,1967.54 1402.80,1967.73 C1402.39,1967.96 1402.39,1967.96 1401.98,1968.20 C1401.66,1968.43 1401.66,1968.43 1401.35,1968.66 "/><path d="M1403.67,1967.36 C1404.12,1967.22 1404.12,1967.22 1404.57,1967.09 C1405.04,1967.00 1405.04,1967.00 1405.51,1966.92 C1405.98,1966.89 1405.98,1966.89 1406.46,1966.86 C1406.95,1966.88 1406.95,1966.88 1407.43,1966.90 C1407.92,1966.97 1407.92,1966.97 1408.41,1967.05 "/><path d="M1310.96,2000.00 L1403.67,1967.36 "/><path d="M1314.79,2000.00 L1408.41,1967.05 L1572.27,2000.00 "/></g></g><g id="Actor_.1"><g style="stroke:#696969;stroke-width:1.058"><path d="M2374.81,2000.00 C2375.13,1998.98 2375.13,1998.98 2375.47,1997.98 C2375.93,1996.90 2375.93,1996.90 2376.42,1995.83 C2376.90,1994.98 2376.90,1994.98 2377.40,1994.14 C2377.78,1993.60 2377.78,1993.60 2378.17,1993.07 C2378.49,1992.68 2378.49,1992.67 2378.82,1992.29 C2379.51,1991.64 2379.51,1991.64 2380.21,1991.00 C2380.56,1990.73 2380.56,1990.73 2380.93,1990.49 C2381.66,1990.12 2381.66,1990.12 2382.40,1989.76 "/><path d="M2568.54,1924.24 C2569.27,1924.08 2569.27,1924.07 2570.01,1923.93 C2570.37,1923.92 2570.37,1923.92 2570.73,1923.93 C2571.43,1924.08 2571.43,1924.07 2572.12,1924.25 C2572.63,1924.51 2572.64,1924.52 2573.14,1924.81 "/><path d="M2382.40,1989.76 L2433.30,2000.00 "/><path d="M2382.40,1989.76 L2568.54,1924.24 L2945.26,2000.00 "/><path d="M2571.44,1924.04 L2949.16,2000.00 "/></g></g><g id="Actor_.2"><g style="stroke:#000000;stroke-width:1.058"><path d="M848.07,1267.94 C847.33,1269.59 847.33,1269.59 846.60,1271.25 C845.99,1272.80 845.99,1272.81 845.39,1274.37 C843.38,1279.85 843.33,1279.83 841.38,1285.33 C839.31,1292.72 839.30,1292.73 837.35,1300.15 C835.92,1307.68 835.92,1307.68 834.62,1315.24 C833.86,1322.80 833.86,1322.81 833.24,1330.39 C833.15,1339.22 833.16,1339.23 833.21,1348.07 C833.77,1355.13 833.81,1355.13 834.46,1362.18 C834.97,1365.49 834.99,1365.49 835.54,1368.79 C836.85,1375.47 836.83,1375.48 838.19,1382.14 C839.10,1385.35 839.13,1385.34 840.08,1388.54 C841.98,1394.65 841.92,1394.68 843.90,1400.76 C847.53,1409.43 847.57,1409.42 851.31,1418.05 C852.87,1421.03 852.91,1421.02 854.52,1423.99 C857.32,1428.91 857.30,1428.92 860.13,1433.82 C861.97,1436.65 861.97,1436.64 863.85,1439.44 C866.96,1443.77 866.96,1443.77 870.11,1448.07 C873.42,1452.21 873.41,1452.22 876.77,1456.33 C880.37,1460.25 880.37,1460.25 884.03,1464.13 C887.85,1467.75 887.87,1467.74 891.73,1471.32 C895.39,1474.56 895.37,1474.59 899.07,1477.78 C904.77,1482.08 904.78,1482.07 910.53,1486.30 C914.85,1489.16 914.85,1489.16 919.21,1491.95 C925.40,1495.39 925.40,1495.40 931.64,1498.77 C936.68,1501.13 936.68,1501.14 941.76,1503.41 C947.27,1505.45 947.27,1505.46 952.81,1507.39 C958.36,1508.86 958.36,1508.86 963.94,1510.22 C969.49,1511.10 969.50,1511.10 975.07,1511.87 C980.59,1512.16 980.59,1512.16 986.11,1512.33 C991.55,1512.03 991.56,1512.03 996.99,1511.61 C1002.31,1510.71 1002.32,1510.70 1007.62,1509.70 C1010.65,1508.84 1010.64,1508.79 1013.67,1507.89 C1015.79,1507.25 1015.80,1507.29 1017.91,1506.62 C1022.87,1504.54 1022.88,1504.56 1027.80,1502.39 C1032.52,1499.77 1032.53,1499.77 1037.19,1497.05 C1041.73,1493.82 1041.73,1493.81 1046.20,1490.48 C1050.26,1486.88 1050.26,1486.88 1054.25,1483.19 C1057.58,1479.56 1057.54,1479.52 1060.83,1475.84 C1061.31,1475.31 1061.32,1475.32 1061.78,1474.78 C1065.18,1470.13 1065.18,1470.13 1068.56,1465.47 "/><path d="M849.48,1364.57 C849.51,1365.42 849.50,1365.42 849.54,1366.26 C849.92,1369.85 849.90,1369.86 850.31,1373.44 C850.92,1377.03 850.92,1377.03 851.58,1380.61 C852.43,1384.17 852.43,1384.17 853.34,1387.72 C854.43,1391.23 854.44,1391.23 855.58,1394.72 C856.91,1398.14 856.91,1398.14 858.29,1401.55 C859.84,1404.86 859.84,1404.86 861.44,1408.15 C863.20,1411.33 863.20,1411.33 865.00,1414.49 C866.96,1417.51 866.97,1417.51 868.97,1420.51 C871.11,1423.35 871.11,1423.35 873.29,1426.17 C875.59,1428.81 875.59,1428.81 877.94,1431.41 C880.39,1433.83 880.39,1433.83 882.88,1436.21 C885.46,1438.39 885.47,1438.39 888.08,1440.53 C890.80,1442.46 890.80,1442.47 893.55,1444.36 C896.31,1445.99 896.31,1446.00 899.09,1447.58 C901.94,1448.95 901.94,1448.95 904.82,1450.27 C907.71,1451.34 907.72,1451.34 910.63,1452.36 C913.55,1453.13 913.55,1453.14 916.49,1453.85 C919.66,1454.33 919.67,1454.32 922.85,1454.74 C925.50,1454.88 925.50,1454.88 928.16,1454.96 C931.02,1454.80 931.02,1454.80 933.88,1454.58 C936.68,1454.11 936.69,1454.11 939.48,1453.57 C942.19,1452.80 942.20,1452.79 944.89,1451.95 C947.51,1450.87 947.51,1450.87 950.10,1449.73 C952.58,1448.35 952.59,1448.35 955.04,1446.92 C957.39,1445.25 957.39,1445.25 959.70,1443.54 C961.88,1441.61 961.88,1441.60 964.02,1439.62 C966.02,1437.43 966.03,1437.43 967.98,1435.20 C969.79,1432.77 969.79,1432.76 971.55,1430.30 C973.15,1427.64 973.15,1427.64 974.70,1424.96 C976.08,1422.10 976.08,1422.10 977.41,1419.22 C978.56,1416.18 978.56,1416.18 979.66,1413.13 C980.57,1409.93 980.55,1409.93 981.42,1406.72 C981.54,1406.15 981.54,1406.14 981.65,1405.57 C982.17,1402.81 982.19,1402.82 982.70,1400.06 C983.10,1396.63 983.10,1396.63 983.46,1393.19 C983.62,1389.68 983.62,1389.68 983.72,1386.17 C983.62,1382.61 983.62,1382.60 983.46,1379.04 C983.11,1375.45 983.11,1375.45 982.70,1371.87 C982.09,1368.28 982.09,1368.27 981.43,1364.69 C980.57,1361.13 980.57,1361.13 979.67,1357.58 C978.57,1354.08 978.57,1354.08 977.43,1350.59 C976.16,1347.32 976.16,1347.32 974.85,1344.07 C973.23,1340.60 973.23,1340.60 971.57,1337.15 C969.81,1333.97 969.81,1333.97 968.00,1330.82 C965.96,1327.68 965.95,1327.67 963.87,1324.56 C961.81,1321.84 961.81,1321.84 959.72,1319.14 C957.42,1316.50 957.42,1316.50 955.07,1313.90 C952.62,1311.48 952.60,1311.49 950.12,1309.09 C949.68,1308.71 949.67,1308.72 949.22,1308.34 C947.07,1306.56 947.08,1306.54 944.93,1304.78 C942.23,1302.86 942.23,1302.85 939.51,1300.98 C936.73,1299.33 936.73,1299.32 933.92,1297.72 C931.07,1296.36 931.06,1296.35 928.19,1295.04 C925.30,1293.96 925.29,1293.96 922.38,1292.94 C919.46,1292.17 919.46,1292.17 916.52,1291.46 C913.60,1290.99 913.59,1290.99 910.66,1290.59 C907.76,1290.43 907.75,1290.43 904.85,1290.34 C901.99,1290.50 901.98,1290.50 899.12,1290.72 C896.33,1291.19 896.33,1291.19 893.55,1291.73 C890.83,1292.51 890.83,1292.52 888.11,1293.35 C887.01,1293.80 887.02,1293.82 885.92,1294.29 C884.41,1294.93 884.40,1294.91 882.91,1295.58 C880.43,1296.96 880.42,1296.96 877.97,1298.39 C875.62,1300.05 875.62,1300.05 873.31,1301.76 C871.13,1303.70 871.13,1303.70 868.99,1305.68 C866.99,1307.87 866.98,1307.87 865.02,1310.10 C863.15,1312.65 863.15,1312.65 861.32,1315.23 C859.79,1317.77 859.79,1317.78 858.31,1320.35 C856.93,1323.20 856.92,1323.21 855.59,1326.09 C854.42,1329.21 854.42,1329.21 853.30,1332.36 C852.42,1335.46 852.42,1335.46 851.58,1338.58 C850.92,1341.90 850.92,1341.91 850.31,1345.24 C849.90,1348.67 849.90,1348.67 849.55,1352.11 C849.39,1355.62 849.40,1355.62 849.29,1359.14 C849.36,1361.85 849.39,1361.85 849.48,1364.57 "/><path d="M848.07,1267.94 C849.62,1264.43 849.62,1264.43 851.19,1260.93 C852.28,1258.74 852.27,1258.74 853.39,1256.57 C856.36,1251.48 856.34,1251.46 859.38,1246.42 C862.72,1241.73 862.73,1241.73 866.16,1237.11 C869.88,1232.87 869.89,1232.86 873.69,1228.70 C877.76,1224.94 877.78,1224.95 881.91,1221.26 C883.31,1220.20 883.33,1220.22 884.76,1219.18 C887.75,1217.01 887.73,1216.97 890.75,1214.84 C895.42,1212.13 895.42,1212.11 900.14,1209.50 C905.06,1207.33 905.07,1207.33 910.03,1205.27 C915.15,1203.68 915.16,1203.67 920.32,1202.19 C925.62,1201.18 925.63,1201.18 930.95,1200.28 C936.38,1199.86 936.39,1199.86 941.83,1199.55 C947.35,1199.73 947.35,1199.76 952.87,1200.02 C954.78,1200.27 954.78,1200.30 956.69,1200.59 C960.34,1201.13 960.35,1201.08 964.00,1201.67 C969.57,1203.04 969.58,1203.03 975.13,1204.50 C980.67,1206.43 980.68,1206.43 986.18,1208.47 C991.63,1210.97 991.64,1210.98 997.05,1213.57 C1001.01,1215.82 1000.99,1215.86 1004.92,1218.16 C1006.30,1218.96 1006.31,1218.94 1007.68,1219.76 C1012.84,1223.35 1012.86,1223.33 1017.97,1226.98 C1022.94,1231.04 1022.94,1231.04 1027.85,1235.18 C1032.58,1239.70 1032.56,1239.72 1037.24,1244.30 C1038.66,1245.86 1038.64,1245.88 1040.04,1247.45 C1043.06,1250.86 1043.09,1250.84 1046.08,1254.27 C1050.22,1259.62 1050.23,1259.62 1054.30,1265.02 C1058.10,1270.71 1058.10,1270.71 1061.82,1276.45 C1065.25,1282.45 1065.25,1282.45 1068.60,1288.49 C1071.63,1294.75 1071.63,1294.75 1074.58,1301.05 C1077.19,1307.52 1077.20,1307.52 1079.72,1314.02 C1081.90,1320.65 1081.90,1320.65 1083.98,1327.31 C1085.70,1334.05 1085.69,1334.06 1087.33,1340.82 C1087.91,1343.90 1087.88,1343.91 1088.42,1347.00 C1089.08,1350.72 1089.12,1350.72 1089.74,1354.45 C1090.50,1361.26 1090.51,1361.26 1091.19,1368.08 C1091.48,1374.85 1091.48,1374.85 1091.68,1381.63 C1091.48,1388.30 1091.48,1388.30 1091.19,1394.97 C1090.51,1401.50 1090.51,1401.51 1089.73,1408.03 C1088.57,1414.36 1088.57,1414.37 1087.32,1420.68 C1085.69,1426.77 1085.65,1426.77 1083.96,1432.84 C1083.61,1433.85 1083.59,1433.84 1083.23,1434.85 C1081.46,1439.63 1081.51,1439.65 1079.70,1444.42 C1077.16,1449.90 1077.16,1449.91 1074.54,1455.34 C1071.60,1460.43 1071.59,1460.44 1068.56,1465.47 "/><path d="M866.08,1376.28 C866.29,1377.53 866.29,1377.53 866.52,1378.78 C867.19,1381.52 867.18,1381.52 867.88,1384.25 C868.72,1386.95 868.72,1386.95 869.60,1389.64 C870.63,1392.27 870.63,1392.27 871.69,1394.89 C872.88,1397.45 872.88,1397.45 874.11,1399.98 C875.47,1402.43 875.47,1402.43 876.86,1404.86 C878.37,1407.19 878.37,1407.19 879.91,1409.49 C881.56,1411.68 881.56,1411.68 883.24,1413.85 C885.01,1415.88 885.01,1415.88 886.82,1417.89 C888.70,1419.75 888.71,1419.75 890.62,1421.58 C892.61,1423.26 892.61,1423.26 894.63,1424.90 C896.70,1426.38 896.70,1426.39 898.80,1427.83 C900.94,1429.10 900.94,1429.10 903.10,1430.34 C905.29,1431.39 905.29,1431.39 907.51,1432.40 C909.74,1433.23 909.74,1433.23 911.98,1434.01 C914.23,1434.61 914.23,1434.61 916.50,1435.16 "/><path d="M916.50,1435.16 C914.84,1432.30 914.84,1432.30 913.16,1429.46 C912.30,1428.14 912.29,1428.14 911.41,1426.84 C910.51,1425.58 910.51,1425.58 909.60,1424.34 C908.67,1423.14 908.67,1423.14 907.72,1421.95 C906.75,1420.80 906.75,1420.80 905.77,1419.65 C904.75,1418.54 904.75,1418.54 903.72,1417.44 C901.53,1415.30 901.53,1415.30 899.33,1413.18 C897.91,1411.95 897.91,1411.95 896.48,1410.74 C894.15,1408.91 894.15,1408.90 891.80,1407.09 C888.90,1405.09 888.90,1405.08 885.98,1403.11 C882.67,1401.07 882.67,1401.07 879.35,1399.07 C875.53,1396.97 875.53,1396.96 871.69,1394.89 "/><path d="M871.69,1394.89 C872.78,1390.68 872.78,1390.68 873.85,1386.47 C874.28,1384.52 874.28,1384.52 874.70,1382.56 C875.05,1380.69 875.06,1380.69 875.39,1378.82 C875.90,1375.28 875.90,1375.28 876.38,1371.74 C876.57,1369.62 876.57,1369.62 876.73,1367.50 C876.84,1364.65 876.85,1364.65 876.93,1361.80 C876.84,1358.79 876.84,1358.79 876.72,1355.78 C876.56,1354.01 876.56,1354.01 876.39,1352.24 C876.18,1350.65 876.18,1350.65 875.96,1349.06 C875.68,1347.46 875.68,1347.46 875.40,1345.86 C875.06,1344.23 875.06,1344.23 874.70,1342.61 C874.29,1340.95 874.29,1340.95 873.86,1339.29 C872.79,1335.84 872.79,1335.84 871.70,1332.39 "/><path d="M871.70,1332.39 C870.64,1334.59 870.64,1334.59 869.62,1336.81 C868.73,1339.14 868.73,1339.15 867.89,1341.50 C867.19,1343.95 867.19,1343.96 866.53,1346.43 C866.02,1348.98 866.02,1348.99 865.55,1351.55 C865.24,1354.19 865.24,1354.19 864.96,1356.84 C864.84,1359.54 864.84,1359.54 864.76,1362.25 C864.84,1364.99 864.84,1364.99 864.96,1367.73 C865.23,1370.50 865.24,1370.50 865.54,1373.26 C865.80,1374.77 865.80,1374.77 866.08,1376.28 "/><path d="M871.70,1332.39 C872.89,1330.32 872.90,1330.32 874.13,1328.28 C875.48,1326.38 875.48,1326.38 876.88,1324.50 C878.38,1322.79 878.38,1322.78 879.92,1321.10 C881.82,1319.39 881.83,1319.39 883.76,1317.72 C885.28,1316.58 885.28,1316.58 886.84,1315.48 C888.72,1314.39 888.72,1314.39 890.62,1313.33 C892.62,1312.45 892.63,1312.46 894.65,1311.61 C895.56,1311.32 895.56,1311.33 896.48,1311.06 C897.65,1310.71 897.65,1310.69 898.82,1310.36 C900.97,1309.95 900.97,1309.95 903.12,1309.58 C905.32,1309.41 905.33,1309.43 907.53,1309.29 C907.87,1309.30 907.87,1309.30 908.20,1309.32 C910.10,1309.40 910.11,1309.38 912.01,1309.48 C914.26,1309.79 914.26,1309.79 916.51,1310.15 "/><path d="M916.51,1310.15 C913.08,1312.14 913.08,1312.14 909.63,1314.10 C904.53,1316.76 904.53,1316.76 899.41,1319.39 C894.21,1321.92 894.21,1321.92 888.99,1324.42 C880.40,1328.40 880.40,1328.40 871.79,1332.36 "/><path d="M910.03,1205.27 C914.21,1203.78 914.21,1203.78 918.40,1202.32 C923.55,1200.76 923.54,1200.72 928.71,1199.24 C934.00,1198.23 934.01,1198.23 939.32,1197.33 C944.75,1196.91 944.76,1196.91 950.20,1196.61 C955.72,1196.78 955.73,1196.78 961.25,1197.07 C966.82,1197.84 966.82,1197.87 972.38,1198.72 C973.98,1199.10 973.98,1199.13 975.58,1199.54 C979.55,1200.54 979.56,1200.50 983.51,1201.55 C989.05,1203.49 989.05,1203.49 994.56,1205.53 C1000.01,1208.02 1000.02,1208.03 1005.43,1210.63 C1010.77,1213.67 1010.77,1213.67 1016.05,1216.81 C1021.23,1220.38 1021.23,1220.38 1026.35,1224.03 C1031.32,1228.09 1031.32,1228.09 1036.23,1232.23 C1040.96,1236.75 1040.96,1236.76 1045.62,1241.35 C1050.19,1246.45 1050.19,1246.46 1054.69,1251.62 C1058.72,1256.82 1058.72,1256.82 1062.68,1262.08 C1066.47,1267.76 1066.48,1267.77 1070.20,1273.50 C1073.63,1279.50 1073.63,1279.50 1076.98,1285.55 C1080.01,1291.80 1080.01,1291.80 1082.96,1298.10 C1085.57,1304.57 1085.57,1304.57 1088.10,1311.07 C1090.27,1317.70 1090.28,1317.71 1092.36,1324.36 C1094.08,1331.11 1094.08,1331.11 1095.71,1337.87 C1096.96,1344.68 1096.96,1344.68 1098.12,1351.50 C1098.89,1358.31 1098.88,1358.32 1099.57,1365.14 C1099.75,1369.24 1099.72,1369.24 1099.86,1373.35 C1099.96,1376.02 1099.99,1376.02 1100.05,1378.68 C1099.84,1385.35 1099.86,1385.36 1099.56,1392.03 C1098.89,1398.55 1098.89,1398.56 1098.11,1405.08 C1096.95,1411.41 1096.95,1411.42 1095.69,1417.73 C1094.07,1423.82 1094.07,1423.83 1092.34,1429.89 C1090.26,1435.70 1090.26,1435.70 1088.07,1441.47 C1085.54,1446.96 1085.54,1446.97 1082.90,1452.42 C1079.97,1457.49 1079.97,1457.50 1076.94,1462.52 C1073.60,1467.21 1073.59,1467.21 1070.15,1471.83 C1066.44,1476.07 1066.43,1476.08 1062.63,1480.24 C1058.56,1484.00 1058.56,1484.01 1054.41,1487.68 C1050.03,1490.94 1050.02,1490.94 1045.57,1494.10 C1040.91,1496.82 1040.90,1496.82 1036.17,1499.44 C1031.26,1501.61 1031.24,1501.58 1026.29,1503.67 C1022.11,1505.17 1022.11,1505.17 1017.91,1506.62 "/><path d="M916.50,1435.16 C918.74,1435.51 918.75,1435.52 921.00,1435.83 C923.24,1435.94 923.24,1435.94 925.48,1436.02 C927.68,1435.89 927.68,1435.89 929.88,1435.72 C932.04,1435.36 932.04,1435.35 934.19,1434.95 C935.85,1434.47 935.84,1434.45 937.50,1433.96 C937.93,1433.83 937.93,1433.83 938.36,1433.70 C940.37,1432.85 940.38,1432.87 942.37,1431.99 C944.34,1430.89 944.34,1430.88 946.29,1429.74 C948.03,1428.50 948.03,1428.50 949.75,1427.22 C951.43,1425.73 951.44,1425.73 953.08,1424.21 C954.62,1422.52 954.63,1422.52 956.13,1420.80 C957.52,1418.93 957.53,1418.93 958.88,1417.03 C960.11,1414.98 960.11,1414.98 961.31,1412.92 C962.37,1410.72 962.36,1410.71 963.39,1408.50 C963.64,1407.86 963.63,1407.86 963.87,1407.22 C964.49,1405.51 964.51,1405.52 965.12,1403.81 C965.82,1401.35 965.82,1401.35 966.48,1398.88 C966.99,1396.32 966.99,1396.32 967.46,1393.75 C967.77,1391.11 967.77,1391.11 968.05,1388.47 C968.17,1385.76 968.17,1385.76 968.24,1383.06 C968.17,1380.31 968.16,1380.31 968.05,1377.57 C967.84,1375.46 967.82,1375.46 967.60,1373.35 C967.53,1372.70 967.54,1372.70 967.46,1372.05 C966.98,1369.29 966.99,1369.28 966.48,1366.53 C965.83,1363.79 965.83,1363.78 965.13,1361.05 C964.28,1358.35 964.28,1358.35 963.40,1355.67 C962.38,1353.03 962.38,1353.03 961.32,1350.41 "/><path d="M961.32,1350.41 C962.41,1353.86 962.41,1353.86 963.48,1357.32 C963.91,1358.97 963.91,1358.97 964.32,1360.63 C964.68,1362.25 964.68,1362.25 965.02,1363.88 C965.30,1365.48 965.30,1365.48 965.58,1367.08 C965.80,1368.67 965.80,1368.67 966.01,1370.26 C966.16,1371.85 966.16,1371.85 966.31,1373.44 C966.40,1375.03 966.40,1375.03 966.49,1376.62 C966.52,1378.22 966.52,1378.22 966.55,1379.82 C966.52,1381.45 966.52,1381.45 966.49,1383.07 C966.40,1384.72 966.41,1384.72 966.31,1386.37 C965.95,1389.81 965.95,1389.81 965.57,1393.24 C965.30,1395.04 965.30,1395.04 965.01,1396.84 C964.25,1400.67 964.26,1400.67 963.47,1404.49 C962.41,1408.71 962.41,1408.71 961.31,1412.92 "/><path d="M961.31,1412.92 C957.87,1414.91 957.87,1414.91 954.42,1416.87 C949.28,1419.55 949.28,1419.55 944.13,1422.19 C937.90,1425.21 937.89,1425.21 931.64,1428.20 C924.07,1431.69 924.07,1431.69 916.50,1435.16 "/><path d="M961.09,1349.93 C959.56,1347.33 959.56,1347.33 958.01,1344.74 C957.13,1343.41 957.13,1343.41 956.24,1342.09 C954.80,1340.15 954.80,1340.14 953.35,1338.21 C951.98,1336.55 951.98,1336.55 950.60,1334.91 C949.58,1333.79 949.58,1333.79 948.55,1332.69 C946.36,1330.55 946.36,1330.55 944.15,1328.44 C942.30,1326.85 942.30,1326.85 940.43,1325.28 C938.53,1323.81 938.53,1323.80 936.62,1322.35 C933.72,1320.34 933.72,1320.34 930.81,1318.36 C927.50,1316.33 927.50,1316.33 924.17,1314.32 C920.35,1312.22 920.35,1312.22 916.51,1310.15 "/><path d="M916.51,1310.15 C918.77,1310.70 918.78,1310.70 921.03,1311.29 C923.27,1312.08 923.27,1312.08 925.50,1312.90 C927.71,1313.92 927.71,1313.92 929.91,1314.97 C932.07,1316.20 932.07,1316.21 934.21,1317.48 C935.86,1318.61 935.85,1318.63 937.50,1319.78 C937.94,1320.09 937.94,1320.08 938.38,1320.40 C940.39,1322.06 940.40,1322.05 942.39,1323.73 C944.30,1325.56 944.30,1325.56 946.19,1327.42 C947.72,1329.11 947.72,1329.11 949.22,1330.83 C951.17,1333.31 951.18,1333.31 953.10,1335.81 C954.84,1338.46 954.83,1338.47 956.54,1341.14 C957.73,1343.22 957.73,1343.23 958.89,1345.32 C960.12,1347.86 960.12,1347.86 961.32,1350.41 "/><path d="M1043.02,1238.82 C1125.47,1209.77 1125.47,1209.77 1207.94,1180.77 C1210.64,1179.94 1210.64,1179.93 1213.36,1179.15 C1216.15,1178.62 1216.15,1178.62 1218.95,1178.14 C1221.81,1177.92 1221.81,1177.92 1224.67,1177.76 C1227.58,1177.85 1227.58,1177.85 1230.49,1178.01 C1233.42,1178.41 1233.42,1178.41 1236.35,1178.88 C1239.28,1179.59 1239.28,1179.59 1242.20,1180.36 C1245.13,1181.39 1245.13,1181.39 1248.04,1182.47 C1250.90,1183.78 1250.91,1183.78 1253.74,1185.14 C1256.55,1186.74 1256.55,1186.75 1259.33,1188.40 C1262.06,1190.27 1262.06,1190.28 1264.75,1192.20 C1266.67,1193.76 1266.65,1193.77 1268.55,1195.35 C1269.25,1195.93 1269.26,1195.92 1269.95,1196.51 C1272.43,1198.91 1272.44,1198.90 1274.90,1201.31 C1277.24,1203.92 1277.24,1203.92 1279.55,1206.56 C1281.73,1209.37 1281.73,1209.37 1283.87,1212.22 C1285.87,1215.21 1285.87,1215.21 1287.83,1218.24 C1289.64,1221.39 1289.64,1221.39 1291.40,1224.57 C1292.99,1227.87 1293.00,1227.87 1294.55,1231.18 C1295.92,1234.58 1295.93,1234.59 1297.26,1238.01 C1298.40,1241.50 1298.40,1241.50 1299.50,1245.00 C1300.40,1248.55 1300.40,1248.55 1301.26,1252.12 C1301.92,1255.69 1301.92,1255.70 1302.52,1259.29 C1302.93,1262.87 1302.93,1262.87 1303.29,1266.46 C1303.44,1270.02 1303.44,1270.03 1303.54,1273.59 C1303.44,1277.10 1303.44,1277.10 1303.29,1280.62 C1302.93,1284.05 1302.91,1284.05 1302.52,1287.48 C1302.44,1287.96 1302.43,1287.96 1302.34,1288.43 C1301.79,1291.29 1301.82,1291.29 1301.25,1294.14 C1300.39,1297.35 1300.39,1297.35 1299.49,1300.55 C1298.39,1303.60 1298.39,1303.60 1297.24,1306.64 C1295.91,1309.52 1295.91,1309.52 1294.53,1312.38 C1292.98,1315.06 1292.98,1315.06 1291.38,1317.72 C1289.62,1320.18 1289.62,1320.19 1287.81,1322.62 C1285.85,1324.85 1285.85,1324.85 1283.85,1327.05 C1281.71,1329.03 1281.70,1329.03 1279.52,1330.96 C1277.21,1332.67 1277.21,1332.68 1274.87,1334.34 C1272.41,1335.77 1272.41,1335.77 1269.93,1337.15 C1267.34,1338.29 1267.33,1338.29 1264.72,1339.38 "/><path d="M848.04,1268.01 L848.07,1267.94 "/><path d="M1068.56,1465.47 L1058.91,1469.51 L1048.42,1473.42 "/><path d="M871.69,1394.89 L910.78,1381.13 L910.79,1318.63 L871.70,1332.39 "/><path d="M902.34,1480.21 L904.33,1481.70 "/><path d="M910.78,1381.13 L951.99,1418.17 "/><path d="M910.79,1318.63 L921.93,1313.10 "/><path d="M1264.72,1339.38 L1098.93,1397.73 "/><path d="M1048.82,1473.27 L1049.70,1472.91 "/></g></g><g id="Actor_.3"><g style="stroke:#696969;stroke-width:1.058"><path d="M1656.71,692.28 C1655.57,694.28 1655.56,694.28 1654.37,696.25 C1652.13,699.37 1652.14,699.38 1649.85,702.46 C1647.37,705.29 1647.36,705.29 1644.83,708.07 C1642.12,710.57 1642.11,710.58 1639.35,713.03 C1636.43,715.20 1636.43,715.20 1633.46,717.30 C1630.35,719.12 1630.34,719.12 1627.20,720.87 C1623.92,722.31 1623.91,722.31 1620.61,723.68 C1617.19,724.75 1617.18,724.73 1613.74,725.74 C1612.54,725.97 1612.53,725.95 1611.33,726.17 C1608.99,726.59 1609.00,726.62 1606.66,727.01 C1603.04,727.28 1603.03,727.29 1599.41,727.49 C1595.73,727.38 1595.72,727.38 1592.04,727.18 C1588.75,726.73 1588.75,726.70 1585.47,726.21 C1585.04,726.15 1585.04,726.15 1584.62,726.08 C1580.91,725.15 1580.90,725.18 1577.20,724.20 C1573.51,722.91 1573.51,722.91 1569.84,721.55 C1566.20,719.88 1566.20,719.88 1562.59,718.15 C1559.03,716.12 1559.03,716.12 1555.51,714.02 C1552.06,711.65 1552.05,711.65 1548.64,709.21 C1545.33,706.51 1545.33,706.50 1542.06,703.74 C1538.90,700.73 1538.90,700.73 1535.79,697.66 C1532.82,694.36 1532.82,694.36 1529.90,691.01 C1527.14,687.46 1527.14,687.45 1524.42,683.85 C1521.89,680.06 1521.89,680.06 1519.41,676.23 C1517.12,672.23 1517.15,672.22 1514.89,668.20 C1514.75,667.92 1514.76,667.92 1514.62,667.64 C1512.76,663.74 1512.73,663.75 1510.90,659.83 C1509.16,655.52 1509.16,655.52 1507.47,651.18 C1506.02,646.76 1506.05,646.75 1504.63,642.32 C1504.50,641.81 1504.50,641.80 1504.37,641.29 C1503.39,637.30 1503.36,637.31 1502.40,633.32 C1501.57,628.78 1501.57,628.78 1500.79,624.23 C1500.28,619.69 1500.28,619.69 1499.83,615.14 C1499.63,610.63 1499.63,610.63 1499.50,606.11 C1499.63,601.66 1499.63,601.66 1499.83,597.21 C1500.28,592.86 1500.28,592.86 1500.80,588.51 C1501.57,584.29 1501.57,584.29 1502.41,580.08 C1503.50,576.02 1503.50,576.01 1504.65,571.97 C1506.03,568.10 1506.04,568.10 1507.49,564.25 C1508.63,561.76 1508.66,561.78 1509.83,559.30 C1510.38,558.14 1510.36,558.13 1510.92,556.98 C1512.90,553.59 1512.89,553.58 1514.92,550.22 C1517.15,547.09 1517.17,547.10 1519.44,544.01 C1519.96,543.40 1519.97,543.41 1520.50,542.82 C1522.48,540.61 1522.46,540.58 1524.46,538.40 C1527.17,535.90 1527.17,535.89 1529.93,533.44 C1532.85,531.27 1532.86,531.27 1535.83,529.17 C1538.40,527.66 1538.42,527.69 1541.01,526.22 C1541.55,525.91 1541.55,525.90 1542.09,525.61 C1545.38,524.19 1545.37,524.16 1548.68,522.79 C1552.10,521.72 1552.11,521.74 1555.55,520.73 C1557.06,520.44 1557.07,520.46 1558.59,520.18 C1560.61,519.82 1560.61,519.79 1562.63,519.46 C1566.25,519.19 1566.25,519.18 1569.88,518.98 C1573.56,519.09 1573.56,519.09 1577.24,519.28 C1580.96,519.80 1580.96,519.80 1584.66,520.39 C1588.38,521.29 1588.38,521.30 1592.08,522.27 C1594.69,523.17 1594.69,523.17 1597.27,524.14 "/><path d="M1500.60,608.21 C1500.60,612.47 1500.72,612.49 1500.91,616.76 C1501.33,621.07 1501.33,621.07 1501.82,625.37 C1502.55,629.68 1502.55,629.68 1503.34,633.98 C1504.37,638.25 1504.37,638.25 1505.46,642.51 C1506.78,646.71 1506.78,646.72 1508.15,650.90 C1509.75,655.01 1509.75,655.01 1511.40,659.10 C1513.26,663.07 1513.28,663.06 1515.18,667.03 C1515.34,667.34 1515.35,667.34 1515.52,667.64 C1517.49,671.14 1517.47,671.15 1519.46,674.63 C1521.81,678.26 1521.81,678.26 1524.21,681.85 C1526.78,685.26 1526.78,685.27 1529.40,688.64 C1532.16,691.81 1532.16,691.81 1534.98,694.94 C1537.92,697.84 1537.92,697.84 1540.91,700.70 C1544.01,703.31 1544.01,703.31 1547.15,705.88 C1550.38,708.18 1550.39,708.19 1553.65,710.44 C1556.99,712.42 1556.99,712.42 1560.36,714.34 C1563.78,715.98 1563.79,715.99 1567.23,717.56 C1570.71,718.85 1570.71,718.85 1574.21,720.08 C1577.71,721.00 1577.72,721.01 1581.24,721.86 C1584.75,722.42 1584.75,722.42 1588.27,722.91 C1591.75,723.09 1591.76,723.09 1595.24,723.20 C1598.68,723.01 1598.69,723.01 1602.11,722.74 C1605.47,722.17 1605.48,722.16 1608.83,721.53 C1610.08,721.18 1610.08,721.16 1611.33,720.79 C1613.33,720.19 1613.34,720.21 1615.33,719.59 C1618.46,718.28 1618.47,718.29 1621.57,716.92 C1624.55,715.27 1624.56,715.26 1627.51,713.54 C1630.32,711.55 1630.32,711.55 1633.08,709.49 C1635.70,707.17 1635.71,707.17 1638.28,704.79 C1640.68,702.16 1640.68,702.16 1643.03,699.48 C1645.20,696.56 1645.20,696.56 1647.32,693.60 C1649.24,690.41 1649.24,690.41 1651.10,687.19 C1652.76,683.76 1652.76,683.76 1654.35,680.30 C1655.63,676.92 1655.60,676.90 1656.86,673.50 C1656.95,673.25 1656.95,673.25 1657.04,672.99 C1658.11,669.15 1658.13,669.16 1659.16,665.31 C1659.95,661.32 1659.95,661.32 1660.69,657.32 C1661.18,653.20 1661.18,653.20 1661.61,649.08 C1661.79,644.86 1661.77,644.86 1661.91,640.65 C1661.89,639.50 1661.87,639.50 1661.84,638.36 C1661.72,635.23 1661.75,635.22 1661.61,632.09 C1661.18,627.78 1661.18,627.78 1660.69,623.48 C1659.96,619.17 1659.96,619.17 1659.17,614.88 C1658.11,610.51 1658.11,610.50 1657.00,606.15 C1655.71,602.04 1655.71,602.04 1654.37,597.95 C1652.77,593.84 1652.77,593.84 1651.12,589.75 C1649.26,585.78 1649.26,585.78 1647.34,581.83 C1645.23,578.01 1645.22,578.01 1643.06,574.22 C1640.71,570.59 1640.71,570.59 1638.30,567.00 C1635.74,563.59 1635.73,563.58 1633.12,560.21 C1630.35,557.04 1630.35,557.04 1627.54,553.91 C1624.59,551.01 1624.57,551.03 1621.60,548.16 C1621.26,547.87 1621.26,547.87 1620.92,547.58 C1618.14,545.28 1618.16,545.26 1615.36,542.97 C1612.41,540.86 1612.39,540.89 1609.42,538.80 C1609.14,538.61 1609.14,538.60 1608.86,538.41 C1605.51,536.46 1605.52,536.43 1602.15,534.51 C1598.73,532.87 1598.73,532.87 1595.28,531.29 C1591.81,530.00 1591.80,530.03 1588.31,528.77 C1588.10,528.72 1588.10,528.72 1587.89,528.67 C1584.58,527.83 1584.59,527.79 1581.28,526.99 C1577.77,526.43 1577.77,526.43 1574.25,525.95 C1570.77,525.76 1570.76,525.76 1567.27,525.65 C1563.84,525.85 1563.83,525.85 1560.40,526.11 C1557.69,526.57 1557.69,526.60 1554.98,527.09 C1554.34,527.20 1554.33,527.19 1553.69,527.32 C1550.44,528.28 1550.43,528.26 1547.19,529.26 C1544.06,530.56 1544.05,530.57 1540.95,531.93 C1537.96,533.59 1537.97,533.61 1535.01,535.31 C1534.62,535.58 1534.62,535.59 1534.23,535.87 C1531.83,537.62 1531.81,537.59 1529.43,539.36 C1526.81,541.68 1526.81,541.69 1524.24,544.06 C1521.84,546.69 1521.83,546.69 1519.48,549.37 C1517.31,552.29 1517.31,552.29 1515.20,555.25 C1513.43,558.18 1513.46,558.20 1511.71,561.15 C1511.56,561.41 1511.56,561.41 1511.42,561.66 C1509.79,565.10 1509.76,565.09 1508.17,568.55 C1506.79,572.19 1506.79,572.19 1505.47,575.86 C1504.38,579.69 1504.40,579.70 1503.36,583.54 C1503.13,584.66 1503.14,584.66 1502.92,585.78 C1502.38,588.66 1502.35,588.65 1501.83,591.53 C1501.34,595.65 1501.34,595.65 1500.91,599.78 C1500.72,603.99 1500.60,604.00 1500.60,608.21 "/><path d="M1543.77,629.02 C1543.39,626.95 1543.39,626.95 1543.04,624.88 C1542.80,622.81 1542.80,622.81 1542.60,620.74 C1542.51,618.68 1542.51,618.68 1542.45,616.62 C1542.51,614.59 1542.51,614.59 1542.60,612.57 C1542.81,610.58 1542.81,610.58 1543.04,608.60 C1543.39,606.68 1543.39,606.67 1543.78,604.76 C1544.27,602.90 1544.27,602.90 1544.79,601.06 C1545.43,599.30 1545.43,599.29 1546.09,597.54 C1546.86,595.88 1546.86,595.88 1547.65,594.23 "/><path d="M1547.65,594.23 C1548.47,596.81 1548.47,596.82 1549.28,599.41 C1549.60,600.65 1549.59,600.65 1549.90,601.89 C1550.17,603.11 1550.17,603.11 1550.43,604.33 C1550.64,605.53 1550.64,605.53 1550.85,606.73 C1551.01,607.91 1551.01,607.91 1551.17,609.08 C1551.30,610.54 1551.30,610.54 1551.43,612.01 C1551.48,612.94 1551.48,612.94 1551.53,613.88 C1551.56,615.08 1551.56,615.08 1551.58,616.29 C1551.56,617.50 1551.56,617.50 1551.53,618.72 C1551.47,619.96 1551.47,619.96 1551.40,621.20 C1551.29,622.47 1551.29,622.47 1551.17,623.74 C1551.01,625.05 1551.01,625.05 1550.84,626.35 C1550.64,627.70 1550.64,627.70 1550.43,629.05 C1550.17,630.45 1550.17,630.45 1549.90,631.85 C1549.59,633.32 1549.59,633.32 1549.27,634.79 C1548.47,637.95 1548.46,637.95 1547.65,641.11 "/><path d="M1547.65,641.11 C1550.52,642.67 1550.52,642.67 1553.39,644.24 C1554.68,644.99 1554.68,645.00 1555.96,645.76 C1557.16,646.51 1557.17,646.51 1558.36,647.27 C1559.95,648.33 1559.94,648.33 1561.52,649.40 C1562.13,649.83 1562.13,649.83 1562.73,650.26 C1563.72,651.01 1563.72,651.00 1564.72,651.76 C1565.66,652.52 1565.66,652.52 1566.60,653.28 C1567.49,654.05 1567.49,654.05 1568.37,654.82 C1569.22,655.61 1569.22,655.61 1570.06,656.40 C1570.87,657.20 1570.87,657.20 1571.67,658.01 C1572.44,658.84 1572.44,658.84 1573.20,659.68 C1573.94,660.53 1573.94,660.53 1574.67,661.40 C1575.38,662.29 1575.38,662.29 1576.08,663.19 C1576.77,664.12 1576.77,664.12 1577.44,665.06 C1578.10,666.04 1578.10,666.04 1578.75,667.03 C1580.01,669.16 1580.01,669.16 1581.25,671.30 "/><path d="M1581.25,671.30 C1579.56,670.89 1579.55,670.89 1577.87,670.45 C1576.19,669.86 1576.18,669.86 1574.51,669.24 C1572.81,668.46 1572.81,668.46 1571.13,667.64 C1569.54,666.74 1569.54,666.74 1567.98,665.81 C1566.40,664.72 1566.40,664.72 1564.85,663.61 C1563.34,662.38 1563.34,662.38 1561.85,661.12 C1560.41,659.75 1560.41,659.75 1558.99,658.35 C1557.64,656.85 1557.64,656.84 1556.31,655.32 C1555.05,653.70 1555.05,653.70 1553.81,652.05 C1552.66,650.33 1552.66,650.32 1551.53,648.58 C1550.48,646.76 1550.48,646.76 1549.46,644.92 C1548.54,643.02 1548.54,643.02 1547.65,641.11 C1546.85,639.14 1546.85,639.14 1546.08,637.17 C1545.42,635.15 1545.42,635.15 1544.79,633.13 C1544.34,631.35 1544.34,631.35 1543.91,629.58 "/><path d="M1547.65,594.23 C1553.02,591.77 1553.02,591.77 1558.37,589.31 C1561.55,587.81 1561.55,587.81 1564.73,586.30 C1566.56,585.40 1566.56,585.40 1568.39,584.51 C1570.81,583.28 1570.81,583.28 1573.24,582.04 C1574.67,581.28 1574.67,581.28 1576.10,580.51 C1577.44,579.77 1577.44,579.77 1578.77,579.02 C1580.02,578.29 1580.02,578.29 1581.27,577.55 "/><path d="M1581.27,577.55 C1584.14,579.11 1584.14,579.11 1587.01,580.68 C1588.30,581.43 1588.30,581.44 1589.58,582.20 C1590.78,582.95 1590.78,582.95 1591.98,583.71 C1593.11,584.45 1593.11,584.45 1594.23,585.20 C1595.29,585.95 1595.29,585.95 1596.34,586.70 C1597.34,587.45 1597.34,587.45 1598.34,588.20 C1599.28,588.96 1599.28,588.96 1600.21,589.72 C1601.11,590.49 1601.11,590.49 1602.00,591.26 C1602.84,592.05 1602.84,592.05 1603.68,592.84 C1604.49,593.64 1604.49,593.64 1605.29,594.45 C1606.06,595.28 1606.06,595.28 1606.83,596.12 C1607.57,596.97 1607.57,596.97 1608.30,597.84 C1609.01,598.73 1609.01,598.73 1609.71,599.63 C1610.39,600.56 1610.39,600.57 1611.06,601.51 C1611.72,602.49 1611.72,602.48 1612.37,603.47 C1613.63,605.60 1613.68,605.59 1614.87,607.74 C1615.73,610.31 1615.69,610.33 1616.49,612.93 C1616.85,614.31 1616.84,614.32 1617.19,615.71 C1617.42,616.78 1617.42,616.78 1617.65,617.86 C1617.86,619.06 1617.86,619.06 1618.06,620.25 C1618.23,621.44 1618.23,621.44 1618.39,622.63 C1618.51,623.82 1618.51,623.82 1618.61,625.01 C1618.69,626.21 1618.68,626.21 1618.75,627.40 C1618.77,628.60 1618.77,628.60 1618.79,629.80 C1618.77,631.02 1618.77,631.02 1618.74,632.24 C1618.68,633.48 1618.68,633.48 1618.61,634.72 C1618.50,635.99 1618.50,635.99 1618.38,637.26 C1618.22,638.56 1618.22,638.56 1618.06,639.87 C1617.85,641.22 1617.85,641.22 1617.64,642.57 C1617.38,643.97 1617.38,643.97 1617.12,645.37 C1616.80,646.84 1616.81,646.84 1616.48,648.30 C1615.68,651.47 1615.68,651.47 1614.86,654.62 "/><path d="M1614.86,654.62 C1613.61,655.36 1613.61,655.36 1612.36,656.10 C1611.03,656.85 1611.03,656.85 1609.69,657.59 C1607.49,658.76 1607.49,658.76 1605.28,659.92 C1603.63,660.75 1603.63,660.75 1601.98,661.58 C1599.33,662.88 1599.33,662.88 1596.68,664.16 C1594.33,665.28 1594.33,665.28 1591.97,666.38 C1586.61,668.85 1586.61,668.85 1581.25,671.30 "/><path d="M1581.25,671.30 C1582.93,671.57 1582.94,671.57 1584.63,671.81 C1586.31,671.90 1586.31,671.90 1587.99,671.95 C1589.64,671.86 1589.64,671.85 1591.29,671.73 C1592.52,671.52 1592.52,671.51 1593.75,671.29 C1594.13,671.22 1594.13,671.22 1594.52,671.15 C1596.09,670.68 1596.09,670.69 1597.65,670.21 C1599.16,669.59 1599.16,669.58 1600.65,668.93 C1602.09,668.13 1602.09,668.13 1603.51,667.30 C1604.86,666.34 1604.86,666.34 1606.19,665.35 C1607.45,664.24 1607.45,664.23 1608.69,663.09 C1609.85,661.83 1609.84,661.82 1610.98,660.54 C1611.60,659.71 1611.59,659.70 1612.20,658.86 C1612.62,658.28 1612.63,658.29 1613.04,657.71 C1613.96,656.17 1613.96,656.17 1614.86,654.62 C1615.66,652.98 1615.66,652.97 1616.42,651.31 C1617.09,649.56 1617.09,649.56 1617.72,647.79 C1618.25,645.95 1618.25,645.95 1618.74,644.10 C1619.12,642.18 1619.12,642.18 1619.47,640.25 C1619.71,638.27 1619.70,638.27 1619.91,636.29 C1619.93,635.86 1619.93,635.86 1619.95,635.43 C1620.00,633.83 1620.02,633.83 1620.06,632.23 C1620.00,630.17 1620.00,630.17 1619.92,628.11 C1619.71,626.04 1619.71,626.04 1619.47,623.97 C1619.12,621.90 1619.12,621.90 1618.75,619.83 C1618.25,617.78 1618.25,617.77 1617.73,615.73 C1617.14,613.86 1617.14,613.86 1616.53,612.01 C1615.71,609.87 1615.72,609.87 1614.87,607.74 C1613.97,605.83 1613.96,605.84 1613.05,603.93 C1612.85,603.57 1612.85,603.58 1612.65,603.22 C1611.83,601.76 1611.84,601.75 1611.00,600.29 C1609.86,598.54 1609.86,598.54 1608.70,596.79 C1607.47,595.15 1607.47,595.15 1606.21,593.53 C1604.88,592.01 1604.88,592.00 1603.52,590.50 C1602.11,589.11 1602.11,589.10 1600.67,587.73 C1599.18,586.47 1599.18,586.47 1597.67,585.24 C1596.11,584.13 1596.11,584.13 1594.54,583.04 C1594.15,582.81 1594.14,582.81 1593.75,582.58 C1592.53,581.87 1592.54,581.86 1591.31,581.16 C1589.66,580.38 1589.66,580.37 1588.00,579.61 C1586.33,578.99 1586.33,578.99 1584.65,578.41 C1582.96,577.96 1582.96,577.96 1581.27,577.55 C1579.58,577.28 1579.58,577.28 1577.89,577.05 C1576.21,576.96 1576.21,576.96 1574.53,576.90 C1572.88,577.00 1572.87,577.00 1571.23,577.12 C1569.61,577.40 1569.61,577.40 1567.99,577.70 C1566.43,578.15 1566.42,578.15 1564.87,578.64 C1563.36,579.27 1563.36,579.27 1561.86,579.93 C1560.43,580.72 1560.43,580.72 1559.01,581.55 C1557.66,582.51 1557.65,582.51 1556.32,583.50 C1555.06,584.61 1555.07,584.62 1553.83,585.76 C1553.27,586.36 1553.28,586.37 1552.73,586.98 C1552.13,587.65 1552.12,587.64 1551.54,588.31 C1550.50,589.72 1550.49,589.72 1549.48,591.14 C1548.55,592.68 1548.55,592.68 1547.65,594.23 "/><path d="M1499.53,606.15 L1500.60,608.21 "/><path d="M1543.91,629.58 L1543.77,629.02 "/><path d="M1547.65,641.11 L1585.72,627.70 L1615.01,654.03 "/><path d="M1547.65,594.23 L1585.73,580.83 L1586.54,580.42 "/><path d="M1548.68,522.79 L1572.05,514.56 "/><path d="M1585.72,627.70 L1585.73,580.83 "/><path d="M1642.95,715.82 L1620.61,723.68 "/></g></g><g id="Actor_.4"><g style="stroke:#696969;stroke-width:1.058"><path d="M1720.72,1144.96 C1717.50,1140.15 1717.49,1140.14 1714.35,1135.28 C1711.04,1129.49 1711.03,1129.49 1707.80,1123.66 C1704.88,1117.63 1704.88,1117.62 1702.03,1111.55 C1699.90,1106.28 1699.90,1106.28 1697.84,1100.98 "/><path d="M1720.22,1148.47 L1708.66,1135.38 L1697.84,1121.95 "/></g></g><g id="Actor_.5"><g style="stroke:#696969;stroke-width:1.058"><path d="M1477.01,609.08 C1477.01,604.17 1477.17,604.16 1477.37,599.24 C1477.46,598.30 1477.47,598.30 1477.57,597.37 C1478.01,593.50 1477.97,593.49 1478.44,589.63 C1479.30,584.96 1479.29,584.95 1480.22,580.30 C1481.42,575.81 1481.42,575.81 1482.69,571.34 C1484.22,567.06 1484.23,567.06 1485.83,562.81 C1487.03,560.21 1487.05,560.22 1488.28,557.62 C1488.95,556.20 1488.93,556.19 1489.62,554.77 C1491.81,551.03 1491.80,551.01 1494.04,547.30 C1496.50,543.84 1496.50,543.84 1499.04,540.44 C1501.78,537.31 1501.78,537.31 1504.58,534.24 C1507.58,531.47 1507.58,531.46 1510.64,528.76 C1513.87,526.36 1513.87,526.35 1517.15,524.03 C1520.59,522.02 1520.60,522.03 1524.07,520.09 C1526.15,519.17 1526.17,519.20 1528.26,518.30 C1529.81,517.64 1529.80,517.61 1531.36,516.98 C1535.14,515.82 1535.14,515.80 1538.94,514.71 C1542.90,513.96 1542.90,513.96 1546.87,513.29 C1550.82,512.99 1550.83,513.00 1554.79,512.77 C1556.69,512.82 1556.69,512.85 1558.59,512.92 C1560.76,513.02 1560.76,512.99 1562.92,513.11 C1567.03,513.69 1567.03,513.67 1571.13,514.32 C1575.23,515.32 1575.24,515.33 1579.33,516.41 C1583.41,517.83 1583.41,517.85 1587.47,519.34 C1589.15,520.10 1589.14,520.12 1590.82,520.91 C1593.15,522.00 1593.16,521.98 1595.48,523.10 C1599.41,525.35 1599.42,525.34 1603.31,527.65 C1607.13,530.28 1607.13,530.28 1610.90,532.97 C1614.56,535.96 1614.56,535.97 1618.17,539.02 C1621.66,542.35 1621.66,542.35 1625.10,545.74 C1628.38,549.39 1628.38,549.39 1631.61,553.09 C1634.68,557.05 1634.68,557.05 1637.69,561.05 C1640.03,564.55 1640.03,564.55 1642.32,568.08 C1645.28,573.18 1645.30,573.17 1648.20,578.30 C1650.44,582.91 1650.44,582.91 1652.61,587.55 C1654.54,592.32 1654.53,592.32 1656.40,597.11 C1657.32,599.91 1657.30,599.92 1658.20,602.73 C1658.87,604.82 1658.89,604.81 1659.53,606.90 C1660.79,611.87 1660.80,611.87 1662.00,616.86 C1662.92,621.87 1662.92,621.87 1663.78,626.90 C1664.26,631.16 1664.26,631.16 1664.69,635.43 C1664.98,641.18 1664.99,641.18 1665.20,646.92 C1665.07,651.84 1665.06,651.84 1664.85,656.76 C1664.34,661.57 1664.34,661.57 1663.77,666.38 C1663.12,669.94 1663.09,669.94 1662.41,673.50 C1662.20,674.60 1662.22,674.60 1661.99,675.70 C1660.77,680.18 1660.79,680.19 1659.52,684.66 C1657.99,688.94 1657.99,688.94 1656.38,693.19 C1654.40,697.43 1654.39,697.43 1652.34,701.64 C1650.29,705.19 1650.29,705.20 1648.17,708.70 C1645.71,712.16 1645.71,712.16 1643.17,715.56 C1640.43,718.69 1640.43,718.69 1637.63,721.76 C1634.63,724.53 1634.63,724.54 1631.57,727.24 C1628.34,729.64 1628.34,729.64 1625.06,731.97 C1621.62,733.98 1621.62,733.98 1618.14,735.91 C1614.75,737.42 1614.75,737.42 1611.33,738.86 C1607.31,740.12 1607.31,740.12 1603.27,741.29 C1599.37,742.04 1599.36,742.04 1595.44,742.70 C1591.44,743.01 1591.43,743.01 1587.42,743.24 C1583.35,743.11 1583.35,743.11 1579.28,742.89 C1575.18,742.33 1575.17,742.33 1571.08,741.68 C1566.97,740.68 1566.97,740.67 1562.88,739.59 C1559.26,738.33 1559.26,738.33 1555.66,736.99 C1551.18,734.98 1551.17,734.99 1546.73,732.90 C1542.79,730.67 1542.79,730.66 1538.90,728.35 C1535.09,725.72 1535.08,725.72 1531.32,723.03 C1527.65,720.04 1527.65,720.03 1524.04,716.98 C1520.55,713.65 1520.55,713.65 1517.11,710.26 C1513.83,706.62 1513.83,706.61 1510.60,702.92 C1507.55,698.98 1507.56,698.97 1504.55,695.00 C1503.72,693.78 1503.74,693.77 1502.93,692.53 C1500.97,689.55 1500.94,689.57 1499.01,686.57 C1496.48,682.15 1496.48,682.15 1494.01,677.70 C1491.77,673.09 1491.77,673.09 1489.60,668.45 C1487.68,663.68 1487.67,663.68 1485.81,658.89 C1484.21,654.01 1484.21,654.00 1482.67,649.10 C1481.41,644.13 1481.41,644.13 1480.21,639.14 C1479.29,634.13 1479.28,634.13 1478.43,629.10 C1477.86,624.09 1477.86,624.08 1477.36,619.06 C1477.15,614.07 1477.00,614.05 1477.01,609.08 "/><path d="M1757.54,903.40 C1760.91,902.87 1760.91,902.87 1764.29,902.37 C1767.95,902.00 1767.95,902.00 1771.62,901.67 C1775.45,901.48 1775.45,901.48 1779.29,901.32 C1781.73,901.29 1781.73,901.29 1784.18,901.29 C1789.46,901.47 1789.46,901.45 1794.74,901.68 C1800.12,902.24 1800.13,902.24 1805.51,902.87 "/><path d="M1751.97,-0.00 L1751.79,921.78 L1734.65,927.81 L1718.92,928.39 L1423.18,868.92 L1420.99,864.73 L1421.16,-0.00 "/><path d="M1423.18,868.92 L1423.35,0.00 "/><path d="M1477.01,609.08 L1499.69,601.09 "/><path d="M1718.92,928.39 L1719.11,0.00 "/><path d="M1734.65,927.81 L1734.84,0.00 "/><path d="M1751.79,902.24 L1757.54,903.40 "/><path d="M1805.51,902.87 L1805.69,0.00 "/><path d="M1757.72,0.00 L1757.54,903.40 "/><path d="M1805.51,902.87 L1883.57,875.39 L1883.74,-0.00 "/></g></g><g id="Actor_.6"><g style="stroke:#000000;stroke-width:1.058"><path d="M1538.00,1106.88 C1537.91,1104.39 1537.89,1104.39 1537.82,1101.90 C1537.98,1096.98 1537.97,1096.98 1538.19,1092.06 C1538.69,1087.25 1538.69,1087.25 1539.26,1082.45 C1540.11,1077.78 1540.12,1077.78 1541.04,1073.12 C1542.00,1069.50 1542.03,1069.51 1543.03,1065.89 C1543.27,1065.02 1543.26,1065.02 1543.51,1064.16 C1545.07,1059.89 1545.04,1059.88 1546.65,1055.63 C1548.51,1051.60 1548.52,1051.60 1550.44,1047.60 C1551.56,1045.65 1551.59,1045.66 1552.73,1043.72 C1553.79,1041.92 1553.77,1041.91 1554.86,1040.12 C1557.33,1036.67 1557.32,1036.66 1559.85,1033.26 C1562.59,1030.13 1562.60,1030.13 1565.40,1027.06 C1568.40,1024.29 1568.40,1024.29 1571.46,1021.58 C1574.68,1019.18 1574.69,1019.18 1577.97,1016.85 C1581.44,1014.83 1581.45,1014.85 1584.96,1012.89 C1586.41,1012.24 1586.42,1012.26 1587.89,1011.64 C1590.03,1010.72 1590.02,1010.69 1592.18,1009.80 C1595.96,1008.64 1595.96,1008.62 1599.76,1007.53 C1603.66,1006.79 1603.67,1006.78 1607.59,1006.13 C1611.59,1005.81 1611.60,1005.83 1615.61,1005.59 C1617.86,1005.65 1617.86,1005.68 1620.11,1005.78 C1621.93,1005.86 1621.93,1005.83 1623.74,1005.93 C1627.85,1006.51 1627.85,1006.50 1631.95,1007.15 C1636.05,1008.15 1636.06,1008.15 1640.15,1009.23 C1644.23,1010.66 1644.23,1010.66 1648.29,1012.16 C1652.31,1014.00 1652.31,1014.01 1656.30,1015.92 C1660.23,1018.16 1660.22,1018.18 1664.13,1020.48 C1665.20,1021.20 1665.19,1021.22 1666.25,1021.96 C1668.98,1023.88 1669.00,1023.85 1671.71,1025.80 C1675.37,1028.79 1675.38,1028.79 1678.99,1031.84 C1682.48,1035.17 1682.48,1035.18 1685.91,1038.56 C1689.20,1042.21 1689.18,1042.22 1692.43,1045.91 C1693.36,1047.10 1693.35,1047.11 1694.27,1048.32 C1696.37,1051.07 1696.40,1051.05 1698.48,1053.83 C1701.27,1058.02 1701.28,1058.02 1704.02,1062.25 C1706.55,1066.67 1706.55,1066.67 1709.02,1071.12 C1711.29,1075.81 1711.29,1075.81 1713.49,1080.53 C1715.38,1085.22 1715.38,1085.22 1717.22,1089.93 C1718.55,1094.00 1718.53,1094.02 1719.83,1098.10 C1720.10,1098.91 1720.10,1098.91 1720.36,1099.73 C1721.60,1104.70 1721.62,1104.70 1722.82,1109.68 C1723.74,1114.69 1723.74,1114.70 1724.60,1119.72 C1725.17,1124.74 1725.17,1124.74 1725.67,1129.77 C1725.87,1134.43 1725.87,1134.43 1726.00,1139.09 C1725.86,1144.34 1725.87,1144.34 1725.66,1149.58 C1725.16,1154.39 1725.16,1154.40 1724.59,1159.20 C1723.74,1163.87 1723.73,1163.87 1722.81,1168.52 C1721.61,1173.01 1721.61,1173.02 1720.34,1177.49 C1718.80,1181.76 1718.80,1181.77 1717.19,1186.01 C1715.33,1190.05 1715.33,1190.05 1713.40,1194.05 C1711.23,1197.81 1711.23,1197.81 1708.99,1201.53 C1706.53,1204.98 1706.52,1204.98 1703.99,1208.39 C1701.25,1211.51 1701.25,1211.52 1698.45,1214.58 C1695.45,1217.35 1695.45,1217.36 1692.39,1220.07 C1689.16,1222.46 1689.16,1222.47 1685.88,1224.79 C1682.44,1226.80 1682.43,1226.80 1678.95,1228.73 C1675.33,1230.33 1675.33,1230.33 1671.67,1231.85 C1667.90,1233.02 1667.89,1233.02 1664.08,1234.12 C1660.18,1234.86 1660.17,1234.86 1656.26,1235.52 C1652.25,1235.83 1652.25,1235.83 1648.24,1236.06 C1644.29,1235.94 1644.28,1235.93 1640.34,1235.73 C1636.12,1235.15 1636.11,1235.15 1631.90,1234.50 C1627.79,1233.50 1627.79,1233.50 1623.70,1232.42 C1619.62,1230.99 1619.62,1230.99 1615.56,1229.49 C1611.54,1227.64 1611.54,1227.64 1607.55,1225.73 C1603.62,1223.48 1603.61,1223.48 1599.72,1221.17 C1595.91,1218.54 1595.91,1218.54 1592.14,1215.85 C1588.47,1212.86 1588.47,1212.86 1584.85,1209.81 C1581.37,1206.48 1581.37,1206.47 1577.93,1203.09 C1574.65,1199.44 1574.65,1199.44 1571.42,1195.74 C1568.37,1191.80 1568.37,1191.80 1565.37,1187.82 C1562.57,1183.63 1562.57,1183.63 1559.83,1179.40 C1557.30,1174.98 1557.30,1174.98 1554.83,1170.52 C1552.59,1165.91 1552.59,1165.91 1550.42,1161.27 C1548.49,1156.51 1548.49,1156.51 1546.63,1151.71 C1545.03,1146.83 1545.03,1146.83 1543.49,1141.92 C1542.22,1136.95 1542.22,1136.95 1541.03,1131.97 C1540.11,1126.95 1540.10,1126.95 1539.25,1121.93 C1538.68,1116.91 1538.69,1116.90 1538.18,1111.88 C1538.07,1109.38 1538.09,1109.38 1538.00,1106.88 "/><path d="M1569.99,1112.74 C1569.78,1110.78 1569.76,1110.78 1569.57,1108.82 C1569.41,1104.78 1569.40,1104.78 1569.29,1100.74 C1569.40,1096.76 1569.40,1096.76 1569.58,1092.78 C1569.98,1088.88 1569.98,1088.88 1570.45,1084.99 C1571.14,1081.21 1571.14,1081.21 1571.88,1077.44 C1572.85,1073.81 1572.85,1073.81 1573.88,1070.19 C1575.13,1066.73 1575.13,1066.72 1576.43,1063.28 C1577.94,1060.02 1577.94,1060.02 1579.50,1056.78 C1581.11,1054.00 1581.11,1054.00 1582.77,1051.25 C1584.92,1048.19 1584.91,1048.18 1587.12,1045.17 C1589.33,1042.64 1589.34,1042.64 1591.61,1040.16 C1594.04,1037.91 1594.04,1037.91 1596.51,1035.72 C1599.12,1033.78 1599.13,1033.77 1601.78,1031.89 C1604.57,1030.27 1604.57,1030.27 1607.39,1028.71 C1609.34,1027.84 1609.36,1027.86 1611.32,1027.02 C1612.31,1026.60 1612.30,1026.59 1613.29,1026.19 C1616.35,1025.25 1616.35,1025.23 1619.42,1024.35 C1622.58,1023.74 1622.59,1023.74 1625.76,1023.21 C1629.00,1022.96 1629.01,1022.95 1632.25,1022.77 C1635.54,1022.88 1635.55,1022.90 1638.84,1023.05 C1639.73,1023.17 1639.73,1023.18 1640.62,1023.32 C1643.05,1023.68 1643.06,1023.65 1645.48,1024.04 C1648.81,1024.85 1648.81,1024.85 1652.12,1025.72 C1655.42,1026.88 1655.43,1026.88 1658.71,1028.09 C1661.96,1029.58 1661.96,1029.59 1665.19,1031.14 C1667.39,1032.38 1667.37,1032.40 1669.56,1033.67 C1670.55,1034.25 1670.55,1034.24 1671.53,1034.83 C1674.61,1036.97 1674.62,1036.96 1677.67,1039.13 C1680.64,1041.55 1680.64,1041.56 1683.56,1044.02 C1686.39,1046.72 1686.39,1046.72 1689.17,1049.47 C1691.82,1052.42 1691.82,1052.42 1694.44,1055.41 C1696.22,1057.71 1696.21,1057.72 1697.97,1060.03 C1698.66,1060.93 1698.67,1060.92 1699.34,1061.82 C1701.59,1065.22 1701.61,1065.22 1703.83,1068.64 C1705.87,1072.22 1705.88,1072.22 1707.87,1075.82 C1709.68,1079.56 1709.68,1079.56 1711.44,1083.31 C1713.00,1087.17 1713.00,1087.17 1714.51,1091.05 C1715.81,1095.01 1715.81,1095.01 1717.05,1098.98 C1718.08,1103.00 1718.08,1103.00 1719.05,1107.04 C1719.79,1111.10 1719.78,1111.10 1720.48,1115.17 C1720.68,1116.88 1720.67,1116.88 1720.85,1118.59 C1721.10,1120.95 1721.12,1120.94 1721.35,1123.30 C1721.51,1127.34 1721.52,1127.34 1721.64,1131.38 C1721.52,1135.36 1721.53,1135.36 1721.35,1139.34 C1720.87,1143.61 1720.87,1143.61 1720.33,1147.88 C1719.71,1151.28 1719.71,1151.28 1719.04,1154.67 C1718.07,1158.31 1718.07,1158.31 1717.04,1161.93 C1715.79,1165.39 1715.79,1165.39 1714.49,1168.83 C1712.99,1172.10 1712.99,1172.10 1711.42,1175.34 C1709.67,1178.38 1709.66,1178.38 1707.85,1181.39 C1705.85,1184.18 1705.85,1184.19 1703.80,1186.94 C1701.54,1189.52 1701.53,1189.52 1699.22,1192.05 C1696.84,1194.25 1696.84,1194.25 1694.41,1196.40 C1691.80,1198.34 1691.79,1198.34 1689.14,1200.23 C1686.36,1201.85 1686.35,1201.85 1683.54,1203.41 C1680.60,1204.71 1680.60,1204.71 1677.64,1205.93 C1674.58,1206.89 1674.58,1206.89 1671.50,1207.77 C1668.34,1208.38 1668.33,1208.37 1665.16,1208.91 C1663.15,1209.07 1663.15,1209.05 1661.13,1209.18 C1659.90,1209.26 1659.90,1209.28 1658.67,1209.34 C1655.38,1209.22 1655.37,1209.24 1652.08,1209.07 C1648.76,1208.61 1648.75,1208.61 1645.44,1208.08 C1642.12,1207.27 1642.11,1207.27 1638.80,1206.39 C1635.50,1205.24 1635.50,1205.24 1632.22,1204.02 C1628.96,1202.53 1628.96,1202.53 1625.73,1200.98 C1622.55,1199.17 1622.54,1199.16 1619.39,1197.29 C1616.31,1195.17 1616.30,1195.16 1613.25,1192.99 C1610.29,1190.56 1610.29,1190.56 1607.36,1188.09 C1604.54,1185.40 1604.54,1185.39 1601.75,1182.65 C1599.10,1179.70 1599.10,1179.70 1596.48,1176.70 C1594.01,1173.52 1594.01,1173.52 1591.58,1170.30 C1589.31,1166.90 1589.31,1166.90 1587.09,1163.47 C1585.05,1159.90 1585.05,1159.90 1583.05,1156.29 C1581.24,1152.56 1581.24,1152.56 1579.48,1148.80 C1577.92,1144.95 1577.92,1144.94 1576.42,1141.07 C1575.12,1137.11 1575.12,1137.11 1573.87,1133.14 C1572.85,1129.12 1572.85,1129.11 1571.88,1125.08 C1571.13,1121.02 1571.14,1121.02 1570.44,1116.95 C1570.20,1114.85 1570.22,1114.85 1569.99,1112.74 "/><path d="M1709.38,1178.79 C1708.02,1178.32 1708.02,1178.32 1706.67,1177.81 C1703.42,1176.31 1703.41,1176.32 1700.18,1174.77 C1697.00,1172.95 1697.00,1172.95 1693.85,1171.08 C1690.76,1168.96 1690.76,1168.95 1687.71,1166.78 C1685.13,1164.67 1685.13,1164.67 1682.58,1162.52 C1679.38,1159.50 1679.37,1159.51 1676.21,1156.44 C1673.55,1153.49 1673.57,1153.48 1670.94,1150.49 C1670.42,1149.83 1670.43,1149.83 1669.92,1149.16 C1667.98,1146.62 1667.96,1146.64 1666.04,1144.09 C1663.78,1140.69 1663.77,1140.69 1661.56,1137.27 C1659.51,1133.69 1659.52,1133.68 1657.51,1130.08 C1656.85,1128.74 1656.86,1128.73 1656.22,1127.38 C1655.08,1124.99 1655.06,1125.00 1653.94,1122.59 C1652.39,1118.73 1652.38,1118.73 1650.87,1114.86 C1649.58,1110.90 1649.59,1110.90 1648.33,1106.93 C1647.95,1105.44 1647.96,1105.44 1647.59,1103.95 C1646.96,1101.41 1646.94,1101.42 1646.33,1098.87 C1645.59,1094.81 1645.59,1094.81 1644.90,1090.74 C1644.44,1086.68 1644.45,1086.68 1644.03,1082.61 C1643.98,1081.57 1643.99,1081.57 1643.96,1080.53 C1643.85,1077.53 1643.83,1077.53 1643.74,1074.53 C1643.87,1070.55 1643.86,1070.55 1644.04,1066.57 C1644.44,1062.67 1644.45,1062.67 1644.90,1058.78 C1645.32,1056.48 1645.34,1056.48 1645.78,1054.17 C1646.06,1052.71 1646.05,1052.70 1646.35,1051.24 C1647.33,1047.61 1647.31,1047.60 1648.34,1043.98 C1649.59,1040.52 1649.59,1040.52 1650.89,1037.08 C1652.40,1033.81 1652.40,1033.81 1653.96,1030.57 C1654.96,1028.83 1654.96,1028.83 1656.00,1027.12 "/><path d="M1796.40,1343.37 L1901.20,1435.27 L1497.91,1354.17 L1363.52,1164.74 L1329.69,1100.10 L1340.66,1098.60 L1340.70,895.21 L1359.26,876.53 L1904.66,986.21 L1923.22,1012.36 L1923.17,1215.75 L1796.40,1343.37 L1467.37,1277.20 L1340.66,1098.60 "/><path d="M1329.69,1100.10 L1329.74,851.87 L1374.56,806.75 L1359.26,876.53 "/><path d="M1329.80,852.12 L1340.70,895.21 "/><path d="M1421.00,816.09 L1374.56,806.75 L1421.00,790.40 "/><path d="M1467.37,1277.20 L1497.91,1354.17 "/><path d="M1703.03,1187.81 L1645.44,1208.08 L1631.90,1234.50 "/><path d="M1904.66,986.21 L1957.03,923.95 L1822.65,896.86 "/><path d="M1923.22,1012.36 L2001.87,987.04 L1957.03,923.95 L2011.22,904.83 L1876.80,877.80 "/><path d="M2035.65,1299.91 L1901.20,1435.27 L1921.50,1428.12 L2055.96,1292.76 L2035.65,1299.91 L2001.82,1235.27 L1923.17,1215.75 "/><path d="M2001.82,1235.27 L2001.87,987.04 L2056.03,967.98 L2055.96,1292.76 "/><path d="M2011.22,904.83 L2056.03,967.98 "/></g></g><g id="Actor_.7"><g style="stroke:#696969;stroke-width:1.058"><path d="M1402.99,1220.37 L1402.84,1967.66 "/><path d="M1403.07,796.71 L1403.23,0.00 "/><path d="M1408.41,1967.79 L1408.55,1228.22 "/><path d="M1408.64,794.75 L1408.80,0.00 "/><path d="M1654.86,2000.00 L1654.98,1385.75 "/><path d="M1655.05,1028.72 L1655.04,1124.89 "/><path d="M1674.52,2000.00 L1674.64,1389.71 "/><path d="M1674.71,1037.06 L1674.69,1154.73 "/><path d="M1694.95,1393.85 L1694.83,2000.00 "/><path d="M1695.02,1056.17 L1694.99,1171.75 "/><path d="M1697.78,1394.36 L1697.66,2000.00 "/><path d="M1697.83,1173.40 L1697.85,1060.03 "/><path d="M1719.06,1398.64 L1718.94,2000.00 "/><path d="M1719.11,1147.21 L1719.11,1154.31 "/><path d="M1738.72,1402.64 L1738.60,2000.00 "/><path d="M1779.05,1410.71 L1778.93,2000.00 "/><path d="M1794.66,2000.00 L1794.78,1413.87 "/><path d="M1806.12,2000.00 L1806.24,1416.17 "/><path d="M1811.70,2000.00 L1811.82,1417.29 "/><path d="M2058.16,2000.00 L2058.56,0.00 "/><path d="M2078.22,0.00 L2077.82,2000.00 "/><path d="M2263.95,2000.00 L2264.35,0.00 "/><path d="M2267.18,0.00 L2266.78,2000.00 "/><path d="M2269.50,2000.00 L2269.91,0.00 "/><path d="M2330.27,2000.00 L2330.67,0.00 "/><path d="M2335.84,2000.00 L2336.25,0.00 "/><path d="M2362.73,2000.00 L2363.14,0.00 "/><path d="M2382.40,1991.44 L2382.80,0.00 "/><path d="M2568.93,-0.00 L2568.54,1924.24 "/><path d="M2571.37,1924.03 L2571.75,-0.00 "/></g></g><g><g/><g/><g/></g><g/><g id="paperID" visibility="hidden" opacity="0.00" transform="scale(0.000100)"><path style="stroke:#000000;stroke-width:0.500;fill:#e6e6e6;fill-rule:evenodd" d="M-2000.00,-2000.00L5000.00,-2000.00L5000.00,4000.00L-2000.00,4000.00zM0.00,0.00L3000.00,0.00L3000.00,2000.00L0.00,2000.00z"/><path style="fill:#000000;fill-opacity:0.118" d="M3.00,2000.00L3000.00,2000.00L3000.00,3.00L3003.00,3.00L3003.00,2003.00L3.00,2003.00z"/></g><g id="hotspot.0" ident="" onmouseover="ShowHotSpot(evt,'0')" onmouseout="HideHotSpot(evt,'0')" onmousemove="ShowToolTip(evt,'0',&quot;[a] railstop x8&quot;)" opacity="0"><a xlink:href="https://github.com/PrintersForAnts/Micron/blob/main/R1_Beta/STLs/MISC/%5Ba%5D_railstops_x8.stl"><path style="fill:#00ff00;fill-rule:evenodd" d="M1422.30,868.76L1707.10,926.11L1741.92,926.22L1750.89,921.51L1752.63,904.09L1789.21,901.48L1810.40,901.64L1873.12,879.51L1885.00,879.60L2008.37,904.04L2011.36,906.52L2054.88,967.02L2054.91,1293.96L1923.68,1425.50L1903.30,1435.48L1504.37,1356.03L1496.44,1353.01L1364.92,1167.01L1331.96,1104.17L1332.16,850.41L1377.73,805.65L1420.04,792.09zM1688.17,1049.05L1704.68,1070.87L1715.30,1093.10L1720.76,1115.00L1720.76,1145.95L1718.11,1159.72L1710.06,1178.57L1696.06,1172.56L1677.26,1158.51L1657.79,1131.45L1649.50,1112.36L1646.81,1101.37L1646.72,1050.00L1654.27,1030.06L1663.35,1029.94z"/></a></g><g id="ToolTip" visibility="hidden" opacity="0" transform="translate(0,0)"><rect id="ToolTipShadow" opacity="0.20" fill="black" stroke="none" x="0" y="0" width="30" height="8"/><rect id="ToolTipBG" fill="#ffffe1" stroke="black" x="0" y="0" width="30" height="8"/><text xml:space="preserve" id="ToolTipText" fill="black" x="0" y="0" width="30" height="8">tooltip</text></g></g></svg>
