<?xml version="1.0" encoding="UTF-8" standalone="no"?>
<svg xmlns="http://www.w3.org/2000/svg" xmlns:xlink="http://www.w3.org/1999/xlink" width="1500.000mm" height="1000.000mm" viewBox="0.000000 0.000000 1500.000000 1000.000000" stroke-linejoin="round" stroke-linecap="round" fill="none" fill-rule="evenodd"><desc>Composer Export</desc><script type="text/ecmascript"><![CDATA[
if(typeof(top) != "undefined")
{
	top.ShowPaper = ShowPaper;
}
function ShowHotSpot(evt,hotspotid)
{
	var svgDocument = evt.target.ownerDocument;
	var strId = "hotspot."+hotspotid;
	var hotspot = svgDocument.getElementById(strId);
	if(hotspot)
		hotspot.setAttribute("opacity",".5");
}
function HideHotSpot(evt,hotspotid)
{
	var svgDocument = evt.target.ownerDocument;
	var strId = "hotspot."+hotspotid;
	var hotspot = svgDocument.getElementById(strId);
	if(hotspot)
		hotspot.setAttribute("opacity","0");

	var toolTip = svgDocument.getElementById('ToolTip');
	if(toolTip)
		toolTip.setAttribute("visibility","hidden");
}
function ShowToolTip(evt,hotspotid,strTooltip)
{
	if(strTooltip=="")
	return;

	// change text
	var svgDocument = evt.target.ownerDocument;
	var tiptext = svgDocument.getElementById('ToolTipText');
	if( !tiptext )
	return;
	tiptext.firstChild.nodeValue = " " + strTooltip + "  " ;

	// show tooltip before, else some refresh issue

	var toolTip = svgDocument.getElementById('ToolTip');
	if(!toolTip)
	return;

	toolTip.setAttribute("visibility","visible");
	toolTip.setAttribute("opacity",".95");

	// move tooltip
	// get viewbox

	var root = svgDocument.documentElement;
	var vbox = (root.getAttribute("viewBox")).split(' ');
	var x0 = parseFloat(vbox[0]);
	var y0 = parseFloat(vbox[1]);
	var vboxW = parseFloat(vbox[2]);
	var vboxH = parseFloat(vbox[3]);

	// get default width of svg

	var strW = root.getAttribute("width");
	var svgW = parseFloat(strW);
	if(strW.indexOf('mm') != -1)
	svgW *= 3.779;

	var strH = root.getAttribute("height");
	var svgH = parseFloat(strH);
	if(strH.indexOf('mm') != -1)
	svgH *= 3.779;  	// 96 dpi  -> 96/25.4 = 3.779

	// update the viewbox / width / height if svg is embedded in html with zoom fit all
	var realx0 = x0;
	var realy0 = y0;
	var realvboxW = vboxW;
	var realvboxH = vboxH;
	var realsvgW = svgW;
	var realsvgH = svgH;

	if ((typeof(top) == "undefined") || (typeof(top.svgctl1) != "undefined")) // embedded in html
	{
		// get window size in pxl

		svgW = window.innerWidth;
		svgH = window.innerHeight;

		// calculate real viewbox

		realsvgW = svgW;
		realsvgH = svgH;
		if((svgW / svgH) > (vboxW / vboxH))
		{
			realvboxW = (vboxH * svgW) / svgH;
			realvboxH = vboxH;
			realx0 = x0 - (realvboxW - vboxW)/2 ;
		}
		else
		{
			realvboxH = (vboxW * svgH) / svgW;
			realvboxW = vboxW;
			realy0 = y0 - (realvboxH - vboxH)/2 ;
		}
	}

	// get user zoom/pan

	var newScale = root.currentScale;
	var translation = root.currentTranslate;

	// transform pxl to user unit

	var xPos = (((evt.clientX+10- translation.x)/newScale) * realvboxW)/realsvgW  + realx0 ;
	var yPos = (((evt.clientY+5- translation.y)/newScale) * realvboxH)/ realsvgH  + realy0 ;
	var scaleForWidth = ( (1 / newScale) * realvboxH) / realsvgH;

	// move tooltip

	toolTip.setAttribute("transform", "translate(" + xPos + "," + yPos + ")" );

	// resize tooltip

	var fontsize = 12;
	tiptext.setAttribute("font-size",fontsize*scaleForWidth);
	tiptext.setAttribute("y", fontsize*scaleForWidth);
	var tipBG = svgDocument.getElementById('ToolTipBG');
	var outline = tiptext.getBBox();
	if(tipBG)
	{
		tipBG.setAttribute("stroke-width", 1*scaleForWidth);
		tipBG.setAttribute("width", Number(outline.width) );
		tipBG.setAttribute("height", Number(outline.height) + fontsize*.5*scaleForWidth );
	}
	var ToolTipShadow = svgDocument.getElementById('ToolTipShadow');
	if(ToolTipShadow)
	{
		ToolTipShadow.setAttribute("width", Number(outline.width) );
		ToolTipShadow.setAttribute("height", Number(outline.height) + fontsize*.5*scaleForWidth );
		ToolTipShadow.setAttribute("x", 3*scaleForWidth);
		ToolTipShadow.setAttribute("y", 3*scaleForWidth);
	}
}
function ShowPaper()
{
  var svgDocument = getDocument();
  var paper = svgDocument.getElementById("paperID");
  if(paper)
  {
    paper.setAttribute("transform","scale(1)");
    paper.setAttribute("opacity","1");
    paper.setAttribute("visibility","visible");
  }
  var svg = svgDocument.getRootElement();
  if(svg)
  {
    svg.setAttribute("width","1510.000mm");
    svg.setAttribute("height","1010.000mm");
    svg.setAttribute("viewBox","-5.000000 -5.000000 1510.000000 1010.000000");
  }
}
]]></script><defs/><g><path style="fill:#ffffff" d="M1499.85,1000.04L0.17,1000.04L0.17,0.17L1499.85,0.17z"/><path style="fill:#97fa98" d="M496.42,258.78L497.41,259.26L497.98,260.04L500.82,261.70L529.77,278.24L531.21,279.75L531.22,314.46L518.02,321.96L517.66,322.04L517.91,327.52L523.47,336.85L525.99,338.94L527.04,339.97L531.24,347.96L531.22,384.40L476.37,416.10L457.78,426.62L451.84,426.68L367.11,377.78L365.97,376.65L363.11,370.40L362.87,369.04L363.53,366.32L385.62,328.19L412.58,312.50L418.34,302.91L418.31,292.47L415.62,291.06L415.50,276.30L440.81,232.69L442.49,230.28L443.52,229.27L444.48,229.32z"/><path style="fill:#696969" d="M443.52,229.27L442.49,230.28L442.75,227.04z"/><path style="fill:#696969" d="M497.41,259.26L496.42,258.78L497.42,258.38z"/><path style="fill:#696969" d="M525.99,338.94L526.99,338.54L527.04,339.97z"/><path style="fill:#97fa98" d="M294.35,405.62L297.81,408.41L301.26,412.93L302.90,416.98L302.97,423.07L302.59,424.72L301.27,426.93L267.12,446.81L264.40,448.10L263.66,447.64L263.69,449.78L263.97,452.03L263.97,454.35L263.40,458.32L263.08,459.86L260.90,463.33L255.35,466.42L249.61,466.40L246.56,465.92L240.97,463.55L236.39,460.74L231.80,455.66L227.80,448.29L226.74,443.55L226.75,437.82L227.64,431.21L230.64,425.11L232.19,423.81L236.14,421.51L242.64,421.51L245.45,422.68L250.23,426.00L250.60,426.71L251.18,426.82L251.31,426.05L288.26,404.71L292.30,404.71z"/><path style="fill:#97fa98" d="M1055.73,581.90L1082.53,597.75L1085.30,598.95L1101.22,608.06L1104.11,610.28L1106.92,611.45L1108.10,612.55L1110.89,613.74L1137.05,629.09L1137.11,664.01L1123.79,671.74L1123.94,677.45L1129.06,686.55L1130.20,687.68L1132.04,688.69L1137.08,697.86L1137.57,731.39L1137.09,733.94L1063.93,776.31L1057.40,776.40L972.75,727.43L969.86,722.36L968.53,718.39L969.61,715.44L991.51,677.63L1018.55,662.02L1023.92,652.61L1023.89,642.17L1021.62,641.03L1021.59,625.26L1046.96,581.83L1049.29,578.99L1050.04,578.98z"/><path style="fill:#97fa98" d="M899.94,755.31L904.43,758.79L906.75,762.15L908.81,767.60L908.79,771.64L908.50,774.30L906.53,776.89L873.53,796.20L869.43,798.38L869.23,796.20L869.06,798.16L869.43,798.38L869.54,800.60L869.85,802.86L869.55,805.74L869.30,807.46L868.94,809.11L868.09,810.66L866.16,813.28L861.51,816.13L855.19,816.10L852.15,815.62L847.05,813.33L843.13,810.99L838.57,807.02L833.96,799.12L832.82,795.14L832.59,786.42L833.22,781.47L836.64,774.66L838.90,772.94L841.73,771.22L848.22,771.21L852.18,772.94L856.23,775.80L857.03,775.80L893.88,754.45L897.32,754.41z"/><path style="fill:#000000" d="M415.62,291.06L415.30,290.94L415.50,276.30z"/><path style="fill:#000000" d="M531.22,314.46L531.21,279.75L531.48,279.93z"/><path style="fill:#000000" d="M517.91,327.52L517.66,322.04L518.02,321.96z"/><path style="fill:#000000" d="M531.98,381.69L531.22,384.40L531.24,347.96L531.47,348.17z"/><path style="fill:#000000" d="M250.23,426.00L251.31,426.05L251.18,426.82L250.60,426.71z"/><path style="fill:#000000" d="M264.40,448.10L263.69,449.78L263.66,447.64z"/><path style="fill:#000000" d="M263.97,454.35L263.97,452.03L264.22,452.26z"/><path style="fill:#000000" d="M908.79,771.64L908.81,767.60L909.02,767.82z"/><path style="fill:#000000" d="M869.43,798.38L869.06,798.16L869.23,796.20z"/><path style="fill:#000000" d="M869.85,802.86L869.54,800.60L869.79,800.80z"/><g id="Actor_.0"><g style="stroke:#696969;stroke-width:1.411"><path d="M1133.55,687.22 C1133.93,687.30 1133.94,687.30 1134.31,687.42 C1136.13,688.45 1136.14,688.46 1137.94,689.52 C1138.33,689.84 1138.34,689.84 1138.70,690.19 "/><path d="M1133.59,665.80 C1133.94,666.13 1133.94,666.13 1134.31,666.44 C1136.12,667.50 1136.12,667.50 1137.94,668.53 C1138.31,668.65 1138.32,668.65 1138.70,668.74 "/><path d="M1048.59,579.76 L1048.59,576.73 L1048.80,575.97 L1049.35,575.65 L1050.11,575.85 L1083.43,595.09 L1084.18,595.76 L1084.74,596.72 L1084.94,597.71 L1084.94,598.84 "/><path d="M1048.80,575.97 L1049.47,575.58 L1049.35,575.65 "/><path d="M1050.11,575.85 L1500.00,316.11 "/><path d="M1500.00,315.47 L1049.47,575.58 "/><path d="M1083.43,595.09 L1500.00,354.58 "/><path d="M1084.94,597.71 L1500.00,358.08 "/><path d="M1087.67,600.34 L1500.00,362.28 "/><path d="M1088.22,600.66 L1118.58,583.13 "/><path d="M1097.66,606.11 L1500.00,373.82 "/><path d="M1500.00,370.32 L1094.63,604.36 "/><path d="M1103.11,609.25 L1103.11,608.21 L1103.32,607.45 L1103.87,607.13 L1104.65,607.34 L1137.94,626.57 L1138.70,627.24 L1139.26,628.20 L1139.46,629.19 L1500.00,421.03 "/><path d="M1104.65,607.34 L1500.00,379.06 "/><path d="M1103.87,607.13 L1348.84,465.70 L1347.80,466.30 "/><path d="M1116.28,584.46 L1500.00,362.92 "/><path d="M1127.14,683.51 L1500.00,468.24 "/><path d="M1125.63,680.89 L1500.00,464.75 "/><path d="M1123.41,675.88 L1137.04,668.01 "/><path d="M1123.41,673.08 L1134.61,666.61 "/><path d="M1132.80,689.80 L1132.80,688.29 L1133.00,687.54 L1133.55,687.22 "/><path d="M1138.70,690.19 L1139.26,691.15 L1139.46,692.14 L1139.46,730.61 L1500.00,522.45 "/><path d="M1133.55,687.22 L1155.72,674.42 L1154.03,675.40 "/><path d="M1138.70,668.74 L1139.26,668.42 L1139.46,667.66 L1139.46,629.19 "/><path d="M1139.46,730.61 L1139.26,731.37 L1138.70,731.69 L1137.94,731.49 L1137.04,730.96 "/><path d="M1139.26,731.37 L1500.00,523.09 "/><path d="M1139.46,692.14 L1500.00,483.98 "/><path d="M1134.31,687.42 L1500.00,476.29 "/><path d="M1137.94,689.52 L1500.00,480.49 "/><path d="M1139.46,667.66 L1500.00,459.50 "/><path d="M1500.00,460.14 L1139.26,668.42 "/><path d="M1137.94,626.57 L1500.00,417.53 "/><path d="M1155.72,674.42 L1500.00,475.65 "/><path d="M1500.00,378.42 L1348.84,465.70 "/></g></g><g id="Actor_.1"><g style="stroke:#696969;stroke-width:1.411"><path d="M532.94,319.00 C532.57,318.92 532.56,318.92 532.19,318.80 C530.36,317.77 530.36,317.76 528.55,316.70 C528.19,316.40 528.18,316.39 527.84,316.07 "/><path d="M479.18,249.03 L479.18,247.98 L478.98,246.99 L478.43,246.03 L477.67,245.36 L444.35,226.12 L443.60,225.92 L443.04,226.24 L442.84,227.00 L442.84,230.02 "/><path d="M444.35,226.12 L836.01,0.00 "/><path d="M443.04,226.24 L447.67,223.56 L443.60,225.92 "/><path d="M834.90,0.00 L447.67,223.56 "/><path d="M915.97,0.00 L481.91,250.60 "/><path d="M482.46,250.92 L512.82,233.40 "/><path d="M477.67,245.36 L902.64,0.00 "/><path d="M479.18,247.98 L908.70,0.00 "/><path d="M935.96,0.00 L491.90,256.37 "/><path d="M929.90,0.00 L488.88,254.62 "/><path d="M945.04,0.00 L498.87,257.60 L498.11,257.39 L497.56,257.71 L497.36,258.47 L497.36,259.52 "/><path d="M498.11,257.39 L742.53,116.28 L742.04,116.56 "/><path d="M1017.73,0.00 L533.70,279.46 L533.50,278.46 L532.94,277.50 L532.19,276.83 L498.87,257.60 "/><path d="M511.63,234.09 L917.07,0.00 "/><path d="M1099.51,0.00 L521.39,333.78 "/><path d="M519.87,331.16 L1093.45,0.00 "/><path d="M517.65,326.15 L531.28,318.28 "/><path d="M517.65,323.35 L528.86,316.88 "/><path d="M527.04,340.07 L527.04,338.56 L527.24,337.80 L527.80,337.48 L528.55,337.69 L1113.44,0.00 "/><path d="M531.28,381.23 L532.19,381.75 L532.94,381.96 L533.50,381.64 L533.70,380.88 L533.70,342.41 L533.50,341.42 L532.94,340.46 L532.19,339.79 L528.55,337.69 "/><path d="M527.80,337.48 L548.41,325.58 L548.27,325.66 "/><path d="M533.70,279.46 L533.70,317.93 L533.50,318.68 L532.94,319.00 "/><path d="M533.70,380.88 L1193.40,0.00 "/><path d="M533.50,381.64 L1194.51,0.00 "/><path d="M532.19,339.79 L1120.71,0.00 "/><path d="M533.70,342.41 L1126.77,0.00 "/><path d="M533.70,317.93 L1084.37,0.00 "/><path d="M533.50,318.68 L1085.48,0.00 "/><path d="M532.19,276.83 L1011.63,0.03 "/><path d="M548.41,325.58 L1112.33,0.00 "/><path d="M742.53,116.28 L943.93,0.00 "/></g></g><g id="Actor_.2"><g style="stroke:#000000;stroke-width:1.411"><path d="M255.39,466.23 C252.98,466.29 252.98,466.29 250.57,466.29 C249.07,466.10 249.06,466.11 247.56,465.85 C244.82,464.85 244.81,464.85 242.09,463.77 C239.59,462.39 239.57,462.40 237.13,460.91 C234.88,458.84 234.85,458.82 232.71,456.64 C230.99,453.91 230.99,453.88 229.39,451.08 C228.57,448.67 228.55,448.65 227.86,446.20 C227.79,444.04 227.79,444.01 227.86,441.84 "/><path d="M235.79,438.17 C237.70,439.42 237.72,439.43 239.55,440.80 C241.23,442.78 241.24,442.80 242.82,444.87 C243.99,447.24 244.00,447.26 245.04,449.68 C245.50,452.01 245.51,452.04 245.83,454.40 "/><path d="M235.79,459.04 C233.96,457.38 233.94,457.37 232.20,455.62 C230.75,453.39 230.77,453.36 229.39,451.08 C228.67,449.50 228.66,449.50 227.99,447.90 C227.38,445.69 227.35,445.68 226.82,443.44 C226.76,441.14 226.80,441.12 226.82,438.81 C226.96,436.48 226.93,436.47 227.12,434.16 C227.66,431.95 227.68,431.95 228.28,429.75 C228.53,429.17 228.54,429.17 228.82,428.61 C230.04,426.53 230.04,426.53 231.27,424.47 "/><path d="M243.74,453.19 C243.65,453.64 243.65,453.65 243.53,454.09 C243.24,454.62 243.24,454.62 242.93,455.14 C242.41,455.80 242.41,455.79 241.88,456.44 C241.07,457.31 241.07,457.31 240.24,458.17 "/><path d="M243.32,455.71 C243.57,454.47 243.57,454.45 243.74,453.19 C243.57,451.69 243.56,451.68 243.32,450.18 C242.75,448.61 242.74,448.60 242.10,447.05 C241.20,445.60 241.20,445.59 240.24,444.18 C239.33,443.23 239.31,443.24 238.37,442.31 C238.17,442.11 238.17,442.10 237.96,441.90 C236.75,441.19 236.75,441.19 235.53,440.50 "/><path d="M233.25,440.14 C233.16,440.59 233.16,440.59 233.04,441.04 C232.75,441.57 232.75,441.57 232.44,442.09 C231.92,442.74 231.92,442.74 231.39,443.39 C230.57,444.26 230.57,444.26 229.75,445.11 "/><path d="M229.75,445.11 C229.92,446.62 229.93,446.63 230.17,448.12 C230.74,449.69 230.75,449.70 231.39,451.25 C232.28,452.70 232.29,452.71 233.25,454.13 "/><path d="M233.25,454.13 C234.53,454.43 234.53,454.44 235.81,454.78 C236.75,455.17 236.76,455.17 237.68,455.61 C238.41,456.13 238.42,456.13 239.11,456.69 C239.69,457.41 239.70,457.42 240.24,458.17 "/><path d="M233.25,454.13 C233.17,452.73 233.17,452.73 233.04,451.34 C232.76,450.21 232.76,450.20 232.44,449.08 C231.94,448.07 231.93,448.06 231.39,447.08 C230.59,446.08 230.59,446.08 229.75,445.11 "/><path d="M241.40,421.34 C244.09,422.31 244.12,422.32 246.74,423.45 C249.44,425.40 249.46,425.42 252.07,427.50 C254.53,430.25 254.54,430.27 256.89,433.11 C258.85,436.38 258.86,436.39 260.71,439.73 C261.99,443.18 261.99,443.20 263.16,446.70 C263.53,449.14 263.47,449.16 263.78,451.61 C263.89,452.48 263.93,452.48 264.00,453.35 C263.62,456.18 263.62,456.20 263.16,459.02 "/><path d="M239.90,422.21 C242.59,423.18 242.62,423.19 245.24,424.31 C247.95,426.27 247.96,426.29 250.58,428.37 C253.03,431.12 253.04,431.14 255.39,433.98 C257.35,437.24 257.36,437.26 259.21,440.59 C260.50,444.05 260.49,444.07 261.66,447.57 C262.03,450.00 261.97,450.02 262.28,452.47 C262.39,453.34 262.43,453.35 262.50,454.21 C262.12,457.05 262.12,457.06 261.66,459.89 "/><path d="M292.10,404.75 C294.01,405.77 294.04,405.79 295.88,406.93 C297.65,408.76 297.66,408.78 299.33,410.70 C300.64,413.01 300.64,413.03 301.86,415.40 C302.29,416.98 302.25,417.00 302.63,418.60 C302.83,419.41 302.83,419.41 303.02,420.23 "/><path d="M302.88,421.86 C302.97,421.05 302.97,421.04 303.02,420.23 C302.97,419.02 302.99,419.01 302.88,417.81 C302.16,415.54 302.17,415.52 301.36,413.29 C300.05,411.21 300.03,411.19 298.62,409.18 C296.96,407.71 296.93,407.71 295.20,406.31 C293.68,405.49 293.66,405.49 292.10,404.75 "/><path d="M255.50,466.17 L255.39,466.23 "/><path d="M227.86,441.84 L229.39,438.74 L232.20,437.44 L235.79,438.17 "/><path d="M245.83,454.40 L245.04,458.21 L242.82,460.46 L239.92,460.72 L239.55,460.75 L235.79,459.04 "/><path d="M231.27,424.47 L232.56,423.72 L232.16,423.95 "/><path d="M240.24,458.17 L242.10,457.44 L243.32,455.71 "/><path d="M235.53,440.50 L233.25,440.14 "/><path d="M240.24,458.17 L237.96,457.81 L235.53,456.41 L233.25,454.13 "/><path d="M229.75,445.11 L230.17,442.60 L231.39,440.87 L233.25,440.14 L235.81,440.79 L236.78,441.22 "/><path d="M229.75,445.11 L236.62,441.15 "/><path d="M233.73,423.05 L232.56,423.72 L236.59,421.40 L241.40,421.34 "/><path d="M263.16,459.02 L260.71,463.16 L255.39,466.23 "/><path d="M233.25,454.13 L240.24,450.09 L243.57,452.01 "/><path d="M240.24,450.09 L236.81,441.24 "/><path d="M235.09,422.26 L239.90,422.21 "/><path d="M261.66,459.89 L259.21,464.03 "/><path d="M232.77,423.60 L235.31,422.13 "/><path d="M250.69,426.45 L288.65,404.53 L292.10,404.75 "/><path d="M303.02,420.23 L302.63,424.33 L302.88,421.86 L302.87,421.88 "/><path d="M255.81,465.99 L256.11,465.82 "/><path d="M302.63,424.33 L300.74,427.02 L263.40,448.58 "/><path d="M302.88,421.76 L302.88,421.86 "/></g></g><g id="Actor_.3"><g style="stroke:#000000;stroke-width:1.411"><path d="M837.21,804.14 C836.14,802.51 836.13,802.49 835.15,800.81 C834.33,798.40 834.31,798.38 833.61,795.94 C833.54,793.77 833.54,793.74 833.61,791.57 "/><path d="M841.55,787.90 C843.46,789.15 843.48,789.17 845.31,790.53 C846.99,792.51 846.98,792.55 848.58,794.60 C849.05,795.53 849.02,795.56 849.46,796.51 C850.13,797.96 850.18,797.95 850.80,799.41 C851.24,801.75 851.25,801.77 851.59,804.13 "/><path d="M861.14,815.97 C858.74,816.02 858.73,816.02 856.33,816.02 C854.82,815.83 854.81,815.84 853.32,815.58 C850.57,814.59 850.56,814.59 847.85,813.51 C845.35,812.12 845.32,812.13 842.89,810.64 C840.64,808.57 840.61,808.56 838.46,806.37 C836.74,803.65 836.78,803.60 835.15,800.81 C834.43,799.24 834.42,799.23 833.75,797.64 C833.13,795.42 833.10,795.41 832.58,793.18 C832.52,790.87 832.56,790.86 832.58,788.54 C832.71,786.22 832.68,786.21 832.88,783.89 C833.41,781.68 833.44,781.68 834.04,779.48 C834.29,778.91 834.30,778.91 834.58,778.34 C835.80,776.27 835.80,776.27 837.03,774.20 "/><path d="M839.00,789.87 C838.92,790.32 838.91,790.33 838.80,790.77 C838.51,791.30 838.50,791.30 838.19,791.82 C837.68,792.48 837.67,792.48 837.14,793.12 C836.33,793.99 836.33,793.99 835.51,794.85 "/><path d="M835.51,794.85 C835.68,796.35 835.68,796.36 835.93,797.85 C836.50,799.43 836.50,799.44 837.14,800.98 C838.04,802.44 838.05,802.45 839.00,803.86 "/><path d="M839.00,803.86 C840.29,804.17 840.29,804.17 841.56,804.51 C842.51,804.91 842.51,804.91 843.44,805.34 C844.16,805.86 844.17,805.86 844.87,806.42 C845.45,807.14 845.46,807.15 846.00,807.90 "/><path d="M843.72,807.54 C843.37,807.34 843.37,807.34 843.02,807.14 C842.15,806.64 842.13,806.66 841.29,806.14 C840.13,805.03 840.12,805.02 839.00,803.86 "/><path d="M839.00,803.86 C838.92,802.47 838.92,802.46 838.80,801.07 C838.52,799.94 838.52,799.93 838.19,798.81 C837.69,797.80 837.69,797.80 837.14,796.81 C836.35,795.82 836.34,795.81 835.51,794.85 "/><path d="M841.29,790.23 C842.51,790.90 842.53,790.90 843.72,791.63 C844.88,792.74 844.89,792.75 846.00,793.91 C846.95,795.33 846.96,795.33 847.86,796.79 C848.50,798.34 848.50,798.35 849.07,799.92 C849.32,801.41 849.33,801.42 849.50,802.92 C849.33,804.18 849.32,804.20 849.07,805.44 "/><path d="M846.00,807.90 C846.82,807.04 846.82,807.04 847.64,806.17 C848.17,805.53 848.17,805.53 848.68,804.87 C848.99,804.35 849.00,804.35 849.29,803.82 C849.41,803.38 849.41,803.37 849.50,802.92 "/><path d="M845.66,771.94 C848.34,772.91 848.37,772.92 851.00,774.05 C853.70,776.00 853.72,776.02 856.33,778.10 C858.79,780.85 858.80,780.87 861.14,783.71 C863.11,786.98 863.12,786.99 864.96,790.33 C866.25,793.78 866.26,793.80 867.42,797.30 C867.91,800.60 867.92,800.63 868.26,803.95 C867.92,806.78 867.92,806.81 867.42,809.62 "/><path d="M868.91,808.76 C869.37,805.93 869.37,805.92 869.76,803.08 C869.69,802.22 869.65,802.21 869.54,801.34 C869.23,798.89 869.29,798.87 868.91,796.43 C867.75,792.94 867.75,792.92 866.46,789.46 C864.62,786.13 864.61,786.11 862.64,782.85 C860.30,780.00 860.29,779.99 857.83,777.24 C855.22,775.16 855.20,775.13 852.50,773.18 C849.87,772.06 849.84,772.04 847.16,771.08 "/><path d="M897.86,754.48 C899.77,755.50 899.79,755.52 901.63,756.66 C903.40,758.49 903.41,758.51 905.09,760.43 C906.40,762.74 906.41,762.76 907.61,765.13 C908.26,767.52 908.26,767.54 908.78,769.96 "/><path d="M908.62,771.61 C908.72,770.79 908.72,770.78 908.78,769.96 C908.72,768.75 908.75,768.74 908.63,767.55 C907.92,765.28 907.93,765.25 907.11,763.02 C905.80,760.94 905.79,760.92 904.37,758.92 C902.72,757.44 902.69,757.44 900.96,756.04 C899.43,755.23 899.42,755.22 897.86,754.48 "/><path d="M833.61,791.57 L835.15,788.47 L837.96,787.18 L841.55,787.90 "/><path d="M851.59,804.13 L850.80,807.95 L848.58,810.19 L845.31,810.49 L841.55,808.77 L837.96,805.35 L837.21,804.14 "/><path d="M861.14,815.97 L864.63,813.95 L861.14,815.97 "/><path d="M837.03,774.20 L838.66,773.26 L837.21,774.10 "/><path d="M842.54,790.95 L841.56,790.52 L839.00,789.87 "/><path d="M846.00,807.90 L843.72,807.54 "/><path d="M835.51,794.85 L835.93,792.33 L837.14,790.60 L839.00,789.87 L841.29,790.23 "/><path d="M849.07,805.44 L847.86,807.17 L846.00,807.90 "/><path d="M835.51,794.85 L842.38,790.88 "/><path d="M839.00,803.86 L846.00,799.82 L842.56,790.97 "/><path d="M840.85,771.99 L845.66,771.94 "/><path d="M867.42,809.62 L864.96,813.76 L864.63,813.95 L866.46,812.90 L868.91,808.76 "/><path d="M847.16,771.08 L842.35,771.13 L838.66,773.26 L839.21,772.94 "/><path d="M846.00,799.82 L849.33,801.74 "/><path d="M856.44,776.18 L894.40,754.26 L897.86,754.48 "/><path d="M908.78,769.96 L908.39,774.07 L906.50,776.76 L869.15,798.32 "/><path d="M864.96,813.76 L866.28,813.00 "/><path d="M908.47,773.26 L908.63,771.49 "/></g></g><g id="Actor_.4"><g style="stroke:#000000;stroke-width:1.411"><path d="M1068.40,691.34 C1070.20,688.26 1070.21,688.25 1071.94,685.13 C1073.34,681.90 1073.34,681.89 1074.67,678.63 C1075.61,675.36 1075.62,675.35 1076.47,672.05 C1076.92,668.28 1076.92,668.27 1077.26,664.48 "/><path d="M1077.26,664.48 C1077.04,667.80 1077.04,667.81 1076.72,671.12 C1075.98,674.59 1075.97,674.60 1075.14,678.05 C1073.91,681.55 1073.91,681.55 1072.60,685.02 C1070.93,688.42 1070.93,688.43 1069.19,691.79 C1067.15,694.98 1067.15,694.99 1065.04,698.13 C1062.71,701.01 1062.70,701.01 1060.30,703.83 C1057.73,706.27 1057.72,706.27 1055.09,708.64 C1052.37,710.57 1052.36,710.57 1049.59,712.41 C1046.82,713.75 1046.81,713.76 1044.00,715.00 C1041.29,715.69 1041.27,715.71 1038.53,716.27 C1035.96,716.24 1035.93,716.24 1033.37,716.08 "/><path d="M1024.94,711.22 C1023.49,709.08 1023.48,709.06 1022.16,706.85 C1021.26,704.19 1021.26,704.16 1020.49,701.46 C1020.15,698.41 1020.16,698.39 1019.93,695.32 C1020.14,692.00 1020.15,691.99 1020.47,688.68 C1021.21,685.21 1021.22,685.20 1022.05,681.75 C1023.28,678.25 1023.28,678.25 1024.59,674.78 C1026.26,671.38 1026.26,671.37 1028.00,668.01 "/><path d="M1032.21,670.45 C1030.40,673.52 1030.40,673.52 1028.66,676.64 C1027.22,679.85 1027.21,679.85 1025.85,683.09 C1024.84,686.32 1024.83,686.33 1023.91,689.59 C1023.40,692.72 1023.39,692.73 1022.97,695.88 C1023.00,698.80 1022.99,698.82 1023.12,701.74 C1023.70,704.34 1023.70,704.36 1024.40,706.92 C1025.56,709.06 1025.58,709.09 1026.86,711.15 "/><path d="M1058.82,704.89 C1056.12,704.29 1056.10,704.29 1053.37,703.79 C1049.55,703.65 1049.54,703.64 1045.72,703.63 C1042.02,704.13 1042.00,704.13 1038.32,704.77 C1035.06,705.88 1035.04,705.88 1031.83,707.12 C1029.30,708.73 1029.28,708.74 1026.83,710.48 "/><path d="M1028.00,668.01 C1030.03,664.82 1030.04,664.81 1032.15,661.67 C1034.48,658.80 1034.49,658.79 1036.89,655.98 C1039.46,653.54 1039.47,653.53 1042.10,651.16 C1044.82,649.24 1044.83,649.23 1047.61,647.39 C1050.37,646.05 1050.38,646.04 1053.19,644.80 C1055.91,644.11 1055.93,644.10 1058.67,643.54 C1061.23,643.56 1061.26,643.56 1063.82,643.73 "/><path d="M1072.26,648.58 C1073.70,650.72 1073.71,650.74 1075.03,652.96 C1075.93,655.62 1075.93,655.64 1076.70,658.34 C1077.04,661.40 1077.04,661.42 1077.26,664.48 "/><path d="M1064.78,645.44 C1062.36,645.37 1062.33,645.37 1059.91,645.44 C1057.35,646.11 1057.33,646.13 1054.80,646.92 C1052.20,648.27 1052.19,648.28 1049.64,649.73 C1047.11,651.66 1047.10,651.67 1044.63,653.68 C1042.26,656.10 1042.25,656.10 1039.95,658.59 C1037.83,661.39 1037.85,661.41 1035.78,664.26 C1034.80,665.83 1034.80,665.84 1033.84,667.43 C1033.02,668.93 1033.02,668.93 1032.21,670.45 "/><path d="M1068.40,691.34 C1066.65,694.44 1066.64,694.45 1064.82,697.51 C1062.73,700.35 1062.73,700.36 1060.57,703.14 C1058.20,705.58 1058.20,705.60 1055.76,707.97 C1052.71,710.23 1052.70,710.24 1049.59,712.41 "/><path d="M1052.38,710.40 C1050.50,710.13 1050.49,710.13 1048.60,709.96 C1045.81,710.23 1045.79,710.22 1043.02,710.60 C1040.65,711.45 1040.62,711.46 1038.30,712.43 "/><path d="M1075.28,676.37 C1072.89,673.50 1072.88,673.49 1070.58,670.53 C1068.68,667.21 1068.68,667.20 1066.90,663.82 C1065.66,660.35 1065.65,660.33 1064.55,656.82 C1064.07,653.52 1064.07,653.50 1063.74,650.17 "/><path d="M1076.90,667.93 C1075.73,666.44 1075.72,666.42 1074.63,664.87 C1073.47,662.32 1073.45,662.31 1072.40,659.72 C1071.94,657.24 1071.94,657.22 1071.61,654.72 "/><path d="M970.93,723.80 L968.72,718.92 L969.16,716.53 L991.45,677.92 L991.64,677.81 L989.90,682.24 L968.72,718.92 L1054.74,768.58 L1060.02,768.99 L1082.31,730.38 L1081.85,729.90 L1075.92,731.91 L1054.74,768.58 L1058.29,776.43 L972.27,726.77 L970.93,723.80 "/><path d="M989.90,682.24 L999.68,676.60 L1002.70,678.35 L1006.13,673.57 L1003.10,671.82 L999.68,676.60 "/><path d="M991.64,677.81 L1005.81,669.63 L1000.00,672.98 "/><path d="M1002.70,678.35 L1014.13,671.75 L1015.87,667.32 L1006.13,672.94 L1006.13,673.57 "/><path d="M1005.81,669.63 L1007.59,668.60 L1005.81,669.63 "/><path d="M1003.10,671.82 L1003.10,671.19 "/><path d="M1007.59,668.60 L1018.71,662.18 L1024.30,652.49 "/><path d="M1014.13,671.75 L1024.30,654.13 L1024.30,651.16 L1024.30,654.13 "/><path d="M1015.14,667.74 L1013.64,668.60 L1015.68,667.43 L1018.71,662.18 "/><path d="M1069.19,691.79 L1068.40,691.34 "/><path d="M1033.37,716.08 L1028.75,714.35 L1024.94,711.22 "/><path d="M1028.00,668.01 L1032.21,670.45 "/><path d="M1026.86,711.15 L1030.45,714.17 L1034.89,715.79 L1039.89,715.87 L1044.88,714.57 "/><path d="M1021.27,640.35 L1021.27,639.19 L1024.30,640.94 L1024.30,642.09 L1021.27,640.35 "/><path d="M1021.27,639.19 L1021.27,627.91 L1049.30,579.35 L1135.32,629.01 L1107.29,677.56 L1097.51,683.20 L1094.49,681.46 L1083.06,688.05 L1072.89,705.68 L1078.82,703.67 L1078.82,714.91 L1127.95,686.55 L1132.40,689.11 L1137.04,697.15 L1137.04,698.79 L1082.31,730.38 "/><path d="M1021.27,627.91 L1021.27,626.48 L1021.73,625.46 L1046.17,583.13 L1049.30,578.77 L1049.30,579.35 "/><path d="M1026.83,710.48 L1026.63,710.75 "/><path d="M1063.82,643.73 L1068.44,645.45 L1072.26,648.58 "/><path d="M1024.30,651.16 L1024.30,640.94 "/><path d="M1024.30,642.09 L1024.30,645.35 L1024.30,642.09 "/><path d="M1076.80,659.43 L1075.40,654.38 L1072.80,650.08 L1069.17,647.04 L1064.78,645.44 "/><path d="M1032.21,670.45 L1068.40,691.34 "/><path d="M1033.84,667.43 L1063.74,650.17 L1064.41,645.44 "/><path d="M1038.30,712.43 L1035.14,715.15 L1034.92,715.79 "/><path d="M1050.18,711.98 L1044.00,715.00 "/><path d="M1107.29,677.56 L1111.49,678.56 L1112.60,677.92 L1137.04,635.59 L1137.04,628.84 L1051.02,579.18 L1049.30,578.77 "/><path d="M1060.02,768.99 L1063.33,776.31 L1058.29,776.43 "/><path d="M1063.33,776.31 L1137.04,733.76 L1137.04,726.74 L1137.04,732.56 "/><path d="M1066.77,694.15 L1066.77,690.39 "/><path d="M1075.92,720.62 L1072.89,718.87 L1077.73,714.91 L1080.76,716.66 L1075.92,720.62 L1075.92,731.91 "/><path d="M1072.89,718.87 L1072.89,705.68 "/><path d="M1071.61,654.72 L1072.40,650.62 L1072.83,650.12 "/><path d="M1071.61,654.72 L1074.57,653.01 "/><path d="M1080.76,716.66 L1081.85,716.66 L1081.85,729.90 "/><path d="M1077.73,714.91 L1078.82,714.91 "/><path d="M1078.82,703.67 L1079.28,704.15 L1088.37,688.41 "/><path d="M1079.28,704.15 L1123.41,678.68 L1123.41,677.04 L1129.37,687.37 L1132.40,689.11 L1130.98,688.29 L1081.85,716.66 "/><path d="M1076.96,661.12 L1077.19,665.14 "/><path d="M1083.06,688.05 L1087.26,689.05 L1096.45,683.75 L1095.91,683.43 L1094.49,681.46 "/><path d="M1097.51,683.20 L1098.93,685.18 L1096.45,683.75 "/><path d="M1098.93,685.18 L1100.02,685.18 L1116.28,675.80 L1112.60,677.92 "/><path d="M1110.47,679.15 L1123.41,671.68 L1123.41,677.04 "/><path d="M1137.04,726.74 L1137.04,698.79 L1130.98,688.29 L1127.95,686.55 L1123.41,678.68 L1123.41,674.42 "/><path d="M1128.74,668.60 L1133.72,665.73 L1123.41,671.68 "/><path d="M1127.95,686.55 L1129.37,687.37 "/><path d="M1133.72,665.73 L1137.04,663.81 L1137.04,656.98 L1137.04,662.79 "/><path d="M1137.04,703.49 L1137.04,697.67 "/><path d="M1137.04,656.98 L1137.04,635.59 "/><path d="M1137.04,639.53 L1137.04,628.84 "/><path d="M1135.32,629.01 L1137.04,629.42 "/></g></g><g id="Actor_.5"><g style="stroke:#000000;stroke-width:1.411"><path d="M418.60,360.58 C417.46,358.89 417.44,358.87 416.40,357.11 C415.51,354.45 415.51,354.43 414.74,351.73 C414.39,348.67 414.40,348.66 414.17,345.59 C414.39,342.27 414.39,342.26 414.71,338.95 C415.45,335.48 415.46,335.47 416.30,332.02 C417.52,328.52 417.53,328.51 418.84,325.05 C420.50,321.65 420.50,321.64 422.24,318.28 C424.28,315.08 424.28,315.08 426.39,311.93 C428.73,309.06 428.73,309.05 431.13,306.24 C433.71,303.80 433.71,303.79 436.35,301.43 C439.07,299.50 439.07,299.49 441.85,297.66 C444.62,296.32 444.63,296.31 447.44,295.07 C450.15,294.38 450.17,294.36 452.91,293.80 C455.48,293.83 455.50,293.83 458.07,294.00 "/><path d="M466.50,298.85 C467.94,300.99 467.96,301.01 469.28,303.22 C470.18,305.88 470.17,305.91 470.95,308.61 C471.29,311.66 471.28,311.68 471.50,314.75 C471.29,318.07 471.28,318.08 470.97,321.39 C470.22,324.86 470.22,324.87 469.38,328.32 C468.15,331.81 468.15,331.82 466.84,335.29 C465.18,338.69 465.17,338.69 463.43,342.06 C461.40,345.25 461.40,345.26 459.29,348.40 C456.95,351.27 456.95,351.28 454.54,354.09 C451.97,356.53 451.97,356.54 449.33,358.91 C446.61,360.83 446.61,360.84 443.83,362.68 C441.06,364.02 441.05,364.03 438.24,365.27 C435.53,365.96 435.51,365.97 432.77,366.53 C430.20,366.51 430.18,366.51 427.61,366.34 "/><path d="M421.10,361.42 C419.82,359.35 419.81,359.33 418.65,357.19 C417.94,354.63 417.95,354.60 417.37,352.01 C417.23,349.09 417.24,349.07 417.22,346.14 C417.63,343.00 417.64,342.99 418.15,339.85 C419.07,336.60 419.08,336.59 420.09,333.36 C421.45,330.12 421.46,330.11 422.90,326.90 C424.64,323.79 424.65,323.79 426.46,320.71 "/><path d="M421.08,360.74 C423.52,359.01 423.54,359.00 426.07,357.39 C429.28,356.15 429.30,356.15 432.56,355.04 C436.24,354.40 436.26,354.40 439.96,353.89 C443.78,353.91 443.80,353.92 447.62,354.06 C450.35,354.55 450.36,354.56 453.07,355.16 "/><path d="M446.63,360.66 C444.75,360.40 444.73,360.40 442.84,360.23 C440.05,360.50 440.03,360.48 437.27,360.87 C434.89,361.71 434.87,361.72 432.54,362.69 "/><path d="M459.02,295.71 C456.60,295.63 456.57,295.63 454.15,295.70 C451.59,296.37 451.57,296.39 449.04,297.19 C446.44,298.54 446.43,298.55 443.88,300.00 C441.35,301.93 441.34,301.94 438.87,303.94 C436.50,306.36 436.50,306.37 434.19,308.85 C432.08,311.66 432.09,311.68 430.02,314.53 C429.04,316.10 429.05,316.11 428.09,317.70 C427.26,319.20 427.26,319.20 426.46,320.71 "/><path d="M457.98,300.44 C458.31,303.76 458.32,303.78 458.79,307.09 C459.89,310.60 459.90,310.62 461.14,314.08 C462.92,317.46 462.93,317.48 464.82,320.80 C467.12,323.75 467.13,323.77 469.53,326.64 "/><path d="M443.83,362.68 C446.94,360.51 446.95,360.50 450.00,358.23 C452.44,355.87 452.44,355.86 454.81,353.42 C456.97,350.63 456.97,350.62 459.06,347.78 C460.89,344.71 460.86,344.69 462.64,341.60 C464.41,338.50 464.45,338.52 466.18,335.40 C467.58,332.17 467.59,332.16 468.91,328.89 C469.85,325.62 469.87,325.62 470.71,322.32 C471.16,318.55 471.17,318.53 471.50,314.75 "/><path d="M471.14,318.20 C469.97,316.70 469.96,316.69 468.87,315.14 C467.71,312.59 467.69,312.58 466.64,309.99 C466.19,307.51 466.18,307.49 465.86,304.99 "/><path d="M366.28,376.51 L362.96,369.19 L448.98,418.85 L454.26,419.26 L476.55,380.65 L476.09,380.16 L476.09,366.92 L475.00,366.92 L470.16,370.88 L470.16,382.17 L448.98,418.85 L452.53,426.69 L366.51,377.03 L366.28,376.51 "/><path d="M363.70,366.28 L363.40,366.80 L362.96,369.19 L384.14,332.51 L385.88,328.08 L385.69,328.19 L363.70,366.28 "/><path d="M384.14,332.51 L393.92,326.86 L397.35,322.09 L400.37,323.84 L396.95,328.61 L393.92,326.86 "/><path d="M397.35,322.09 L397.35,321.46 L385.88,328.08 "/><path d="M396.95,328.61 L408.37,322.02 L418.55,304.39 L418.55,302.33 L418.55,304.39 "/><path d="M400.37,323.84 L400.37,323.21 L409.92,317.70 L412.95,312.45 L397.35,321.46 "/><path d="M408.37,322.02 L410.11,317.59 L406.98,319.40 L409.38,318.01 "/><path d="M410.35,313.95 L406.98,315.90 "/><path d="M458.07,294.00 L462.68,295.72 L466.50,298.85 "/><path d="M427.61,366.34 L423.00,364.62 L419.18,361.49 L418.60,360.58 "/><path d="M439.12,364.84 L434.13,366.14 L429.14,366.06 L424.69,364.44 L421.10,361.42 "/><path d="M426.46,320.71 L422.24,318.28 "/><path d="M418.55,302.75 L412.95,312.45 "/><path d="M418.55,302.33 L418.55,291.20 L418.55,292.36 L415.52,290.61 L415.52,289.45 L418.55,291.20 "/><path d="M418.55,296.51 L418.55,292.36 L418.55,296.51 "/><path d="M415.52,289.98 L415.52,284.88 L415.52,290.61 "/><path d="M415.52,284.88 L415.52,278.16 L443.55,229.61 L529.57,279.28 L501.54,327.83 L491.76,333.47 L488.73,331.72 L477.31,338.32 L467.13,355.94 L467.13,369.13 L470.16,370.88 "/><path d="M415.52,279.07 L415.52,276.74 L415.52,278.16 "/><path d="M415.52,276.74 L415.98,275.73 L440.42,233.40 L443.55,229.03 L443.55,229.61 "/><path d="M420.87,361.02 L421.08,360.74 "/><path d="M432.54,362.69 L429.38,365.42 L429.16,366.06 "/><path d="M471.04,309.70 L469.64,304.65 L467.05,300.34 L463.42,297.30 L459.02,295.71 "/><path d="M426.46,320.71 L463.43,342.06 "/><path d="M428.09,317.70 L457.98,300.44 "/><path d="M438.24,365.27 L444.42,362.25 "/><path d="M443.55,229.03 L445.26,229.44 L531.28,279.11 L531.28,285.86 L506.84,328.19 L511.36,325.58 L505.73,328.83 L501.54,327.83 "/><path d="M452.53,426.69 L457.58,426.58 L454.26,419.26 "/><path d="M457.58,426.58 L531.28,384.03 L531.28,377.91 L531.28,383.72 "/><path d="M457.98,300.44 L458.65,295.71 "/><path d="M461.01,344.42 L461.01,340.66 "/><path d="M470.16,382.17 L476.09,380.16 "/><path d="M475.00,366.92 L471.98,365.18 L467.13,369.13 "/><path d="M467.13,355.94 L473.07,353.93 L473.07,365.18 L471.98,365.18 "/><path d="M465.86,304.99 L468.81,303.28 "/><path d="M465.86,304.99 L466.64,300.89 L467.07,300.39 "/><path d="M476.55,380.65 L531.28,349.05 L525.22,338.56 L476.09,366.92 "/><path d="M473.07,365.18 L522.19,336.81 L526.64,339.38 L531.28,347.41 L531.28,377.91 "/><path d="M473.07,353.93 L473.52,354.42 L482.61,338.68 "/><path d="M473.52,354.42 L517.65,328.94 L517.65,327.30 L523.61,337.63 L526.64,339.38 L523.26,337.43 L523.61,337.63 "/><path d="M471.20,311.39 L471.44,315.41 "/><path d="M477.31,338.32 L481.50,339.32 L490.69,334.01 L493.18,335.45 L491.76,333.47 "/><path d="M488.73,331.72 L490.15,333.70 L490.69,334.01 "/><path d="M493.18,335.45 L494.27,335.45 L505.73,328.83 "/><path d="M511.36,325.58 L517.44,322.07 L513.17,324.54 "/><path d="M505.81,328.78 L506.84,328.19 "/><path d="M517.65,327.30 L517.65,325.58 L517.65,328.94 L522.19,336.81 "/><path d="M517.44,322.07 L529.07,315.36 L523.26,318.71 "/><path d="M517.65,321.95 L517.65,325.58 "/><path d="M531.28,354.65 L531.28,348.84 "/><path d="M529.07,315.36 L531.28,314.08 L531.28,308.14 L531.28,313.95 "/><path d="M531.28,308.14 L531.28,285.86 "/><path d="M531.28,290.70 L531.28,279.69 L529.57,279.28 "/><path d="M531.28,279.11 L531.28,279.69 "/></g></g><g><g><path style="stroke:#696969;stroke-width:2.116;stroke-dasharray:6.0 6.0 12.0 6.0" d="M471.34,313.71L300.66,412.25"/></g><g/><g/></g><g><g><path style="stroke:#696969;stroke-width:2.116;stroke-dasharray:6.0 6.0 12.0 6.0" d="M906.42,761.98L1077.09,663.44"/></g><g/><g/></g><g/><g id="paperID" visibility="hidden" opacity="0.00" transform="scale(0.000100)"><path style="stroke:#000000;stroke-width:0.500;fill:#e6e6e6;fill-rule:evenodd" d="M-2000.00,-2000.00L3500.00,-2000.00L3500.00,3000.00L-2000.00,3000.00zM0.00,0.00L1500.00,0.00L1500.00,1000.00L0.00,1000.00z"/><path style="fill:#000000;fill-opacity:0.118" d="M3.00,1000.00L1500.00,1000.00L1500.00,3.00L1503.00,3.00L1503.00,1003.00L3.00,1003.00z"/></g><g id="hotspot.0" ident="" onmouseover="ShowHotSpot(evt,'0')" onmouseout="HideHotSpot(evt,'0')" onmousemove="ShowToolTip(evt,'0',&quot;[a] bed angle bracket x4&quot;)" opacity="0"><a xlink:href="https://github.com/PrintersForAnts/Micron/blob/main/R1_Beta/STLs/Frame/%5Ba%5D_1515_angled_bracket_x4.stl"><path style="fill:#00ff00;fill-rule:evenodd" d="M1136.55,629.33L1136.55,664.98L1124.88,671.69L1124.95,681.09L1128.11,686.27L1131.54,689.53L1136.65,697.80L1136.55,735.21L1064.20,776.56L1056.38,776.39L972.78,727.89L969.16,721.29L969.11,716.79L991.19,680.16L998.87,674.46L1019.60,661.74L1024.59,653.36L1024.37,642.85L1022.45,641.43L1022.76,624.77L1047.96,581.34L1052.92,580.66z"/></a></g><g id="hotspot.1" ident="" onmouseover="ShowHotSpot(evt,'1')" onmouseout="HideHotSpot(evt,'1')" onmousemove="ShowToolTip(evt,'1',&quot;[a] bed angle bracket x4&quot;)" opacity="0"><a xlink:href="https://github.com/PrintersForAnts/Micron/blob/main/R1_Beta/STLs/Frame/%5Ba%5D_1515_angled_bracket_x4.stl"><path style="fill:#00ff00;fill-rule:evenodd" d="M531.20,279.83L530.67,314.95L518.98,321.63L519.38,331.80L526.18,340.04L531.30,348.30L531.38,384.22L458.89,427.11L451.03,426.90L367.43,378.39L363.81,371.79L363.80,367.33L386.75,328.23L412.35,313.69L417.59,305.55L417.57,293.13L415.95,291.40L415.74,276.95L442.08,231.30L447.63,231.22z"/></a></g><g id="ToolTip" visibility="hidden" opacity="0" transform="translate(0,0)"><rect id="ToolTipShadow" opacity="0.20" fill="black" stroke="none" x="0" y="0" width="30" height="8"/><rect id="ToolTipBG" fill="#ffffe1" stroke="black" x="0" y="0" width="30" height="8"/><text xml:space="preserve" id="ToolTipText" fill="black" x="0" y="0" width="30" height="8">tooltip</text></g></g></svg>
