<?xml version="1.0" encoding="UTF-8" standalone="no"?>
<svg xmlns="http://www.w3.org/2000/svg" xmlns:xlink="http://www.w3.org/1999/xlink" width="1500.000mm" height="1000.000mm" viewBox="0.000000 0.000000 1500.000000 1000.000000" stroke-linejoin="round" stroke-linecap="round" fill="none" fill-rule="evenodd"><desc>Composer Export</desc><script type="text/ecmascript"><![CDATA[
if(typeof(top) != "undefined")
{
	top.ShowPaper = ShowPaper;
}
function ShowHotSpot(evt,hotspotid)
{
	var svgDocument = evt.target.ownerDocument;
	var strId = "hotspot."+hotspotid;
	var hotspot = svgDocument.getElementById(strId);
	if(hotspot)
		hotspot.setAttribute("opacity",".5");
}
function HideHotSpot(evt,hotspotid)
{
	var svgDocument = evt.target.ownerDocument;
	var strId = "hotspot."+hotspotid;
	var hotspot = svgDocument.getElementById(strId);
	if(hotspot)
		hotspot.setAttribute("opacity","0");

	var toolTip = svgDocument.getElementById('ToolTip');
	if(toolTip)
		toolTip.setAttribute("visibility","hidden");
}
function ShowToolTip(evt,hotspotid,strTooltip)
{
	if(strTooltip=="")
	return;

	// change text
	var svgDocument = evt.target.ownerDocument;
	var tiptext = svgDocument.getElementById('ToolTipText');
	if( !tiptext )
	return;
	tiptext.firstChild.nodeValue = " " + strTooltip + "  " ;

	// show tooltip before, else some refresh issue

	var toolTip = svgDocument.getElementById('ToolTip');
	if(!toolTip)
	return;

	toolTip.setAttribute("visibility","visible");
	toolTip.setAttribute("opacity",".95");

	// move tooltip
	// get viewbox

	var root = svgDocument.documentElement;
	var vbox = (root.getAttribute("viewBox")).split(' ');
	var x0 = parseFloat(vbox[0]);
	var y0 = parseFloat(vbox[1]);
	var vboxW = parseFloat(vbox[2]);
	var vboxH = parseFloat(vbox[3]);

	// get default width of svg

	var strW = root.getAttribute("width");
	var svgW = parseFloat(strW);
	if(strW.indexOf('mm') != -1)
	svgW *= 3.779;

	var strH = root.getAttribute("height");
	var svgH = parseFloat(strH);
	if(strH.indexOf('mm') != -1)
	svgH *= 3.779;  	// 96 dpi  -> 96/25.4 = 3.779

	// update the viewbox / width / height if svg is embedded in html with zoom fit all
	var realx0 = x0;
	var realy0 = y0;
	var realvboxW = vboxW;
	var realvboxH = vboxH;
	var realsvgW = svgW;
	var realsvgH = svgH;

	if ((typeof(top) == "undefined") || (typeof(top.svgctl1) != "undefined")) // embedded in html
	{
		// get window size in pxl

		svgW = window.innerWidth;
		svgH = window.innerHeight;

		// calculate real viewbox

		realsvgW = svgW;
		realsvgH = svgH;
		if((svgW / svgH) > (vboxW / vboxH))
		{
			realvboxW = (vboxH * svgW) / svgH;
			realvboxH = vboxH;
			realx0 = x0 - (realvboxW - vboxW)/2 ;
		}
		else
		{
			realvboxH = (vboxW * svgH) / svgW;
			realvboxW = vboxW;
			realy0 = y0 - (realvboxH - vboxH)/2 ;
		}
	}

	// get user zoom/pan

	var newScale = root.currentScale;
	var translation = root.currentTranslate;

	// transform pxl to user unit

	var xPos = (((evt.clientX+10- translation.x)/newScale) * realvboxW)/realsvgW  + realx0 ;
	var yPos = (((evt.clientY+5- translation.y)/newScale) * realvboxH)/ realsvgH  + realy0 ;
	var scaleForWidth = ( (1 / newScale) * realvboxH) / realsvgH;

	// move tooltip

	toolTip.setAttribute("transform", "translate(" + xPos + "," + yPos + ")" );

	// resize tooltip

	var fontsize = 12;
	tiptext.setAttribute("font-size",fontsize*scaleForWidth);
	tiptext.setAttribute("y", fontsize*scaleForWidth);
	var tipBG = svgDocument.getElementById('ToolTipBG');
	var outline = tiptext.getBBox();
	if(tipBG)
	{
		tipBG.setAttribute("stroke-width", 1*scaleForWidth);
		tipBG.setAttribute("width", Number(outline.width) );
		tipBG.setAttribute("height", Number(outline.height) + fontsize*.5*scaleForWidth );
	}
	var ToolTipShadow = svgDocument.getElementById('ToolTipShadow');
	if(ToolTipShadow)
	{
		ToolTipShadow.setAttribute("width", Number(outline.width) );
		ToolTipShadow.setAttribute("height", Number(outline.height) + fontsize*.5*scaleForWidth );
		ToolTipShadow.setAttribute("x", 3*scaleForWidth);
		ToolTipShadow.setAttribute("y", 3*scaleForWidth);
	}
}
function ShowPaper()
{
  var svgDocument = getDocument();
  var paper = svgDocument.getElementById("paperID");
  if(paper)
  {
    paper.setAttribute("transform","scale(1)");
    paper.setAttribute("opacity","1");
    paper.setAttribute("visibility","visible");
  }
  var svg = svgDocument.getRootElement();
  if(svg)
  {
    svg.setAttribute("width","1510.000mm");
    svg.setAttribute("height","1010.000mm");
    svg.setAttribute("viewBox","-5.000000 -5.000000 1510.000000 1010.000000");
  }
}
]]></script><defs/><g><path style="fill:#ffffff" d="M1499.85,1000.04L0.17,1000.04L0.17,0.17L1499.85,0.17z"/><path style="fill:#97fa98" d="M205.65,579.05L207.95,580.73L209.63,581.32L222.20,588.65L225.82,590.27L226.11,590.99L226.95,591.18L243.20,600.63L245.42,602.39L251.71,605.77L254.02,607.44L254.05,627.06L252.54,627.95L252.08,627.95L251.40,628.84L246.60,631.55L246.56,634.81L248.36,638.12L251.21,641.53L252.79,645.06L253.95,646.18L254.46,665.66L255.05,666.07L253.97,667.37L212.33,691.68L207.90,691.66L158.87,663.36L157.29,659.82L157.29,657.10L170.18,634.74L184.68,626.62L185.56,626.88L185.77,626.00L188.89,620.36L189.13,614.88L188.81,614.76L187.45,613.73L187.43,604.79L203.17,577.96z"/><path style="fill:#696969" d="M225.82,590.27L226.65,590.46L226.95,591.18L226.11,590.99z"/><path style="fill:#696969" d="M252.46,628.33L251.40,628.84L252.08,627.95L252.54,627.95z"/><path style="fill:#696969" d="M551.72,779.54L551.06,780.15L551.34,778.02z"/><path style="fill:#97fa98" d="M118.09,679.68L120.92,682.54L122.64,685.94L122.71,689.18L122.35,690.85L121.27,692.18L100.45,704.34L100.18,706.20L100.20,707.94L99.92,710.61L99.32,711.73L96.26,714.35L90.18,714.41L85.14,712.06L81.11,707.57L79.39,704.74L78.90,702.27L78.90,695.97L79.80,692.77L80.98,690.54L83.75,688.76L87.96,688.78L89.65,689.37L91.97,691.08L92.87,691.14L113.88,679.10L116.98,679.10z"/><path style="fill:#97fa98" d="M565.57,787.18L573.55,791.14L582.60,796.31L583.26,797.35L601.43,807.59L602.30,808.56L602.28,828.48L601.28,829.40L594.97,832.65L595.18,836.60L597.47,840.57L599.68,842.35L600.30,844.57L602.28,847.82L602.19,868.76L578.73,882.37L560.13,892.88L556.64,892.88L508.20,865.02L507.05,863.90L505.86,861.11L505.84,857.81L518.68,835.97L534.10,826.94L537.18,822.06L537.20,816.12L536.03,815.02L536.05,805.57L550.55,780.90L551.06,780.15L551.72,779.54L553.08,779.76z"/><path style="fill:#97fa98" d="M466.66,880.98L469.50,883.82L470.97,887.58L470.97,891.64L470.42,892.94L456.16,901.39L448.81,905.20L448.41,904.25L448.49,906.41L448.48,911.34L447.10,913.94L444.13,915.63L438.94,915.62L433.71,913.35L429.11,908.29L427.38,904.33L427.15,899.00L427.94,894.21L430.04,891.19L432.31,890.05L437.11,890.05L438.22,890.65L440.53,892.37L441.45,892.44L461.88,880.39L465.54,880.39z"/><path style="fill:#000000" d="M188.89,620.36L188.81,614.76L189.13,614.88z"/><path style="fill:#000000" d="M185.56,626.88L184.68,626.62L185.77,626.00z"/><path style="fill:#000000" d="M100.20,707.94L100.18,706.20L100.46,706.46z"/><path style="fill:#000000" d="M602.28,828.48L602.30,808.56L602.56,808.74z"/><path style="fill:#000000" d="M603.11,867.62L602.19,868.76L602.28,847.82L602.55,847.99z"/><path style="fill:#000000" d="M470.97,891.64L470.97,887.58L471.18,887.80z"/><path style="fill:#000000" d="M448.81,905.20L448.49,906.41L448.41,904.25z"/><g id="Actor_.0"><g style="stroke:#696969;stroke-width:2.116"><path d="M1334.10,325.80 L1334.48,325.58 L551.62,777.56 L551.51,779.74 "/><path d="M551.94,777.38 L552.38,777.50 L571.54,788.56 L572.30,789.50 L572.41,790.70 "/><path d="M552.38,777.50 L1500.00,230.39 "/><path d="M573.98,791.58 L1500.00,256.94 "/><path d="M574.30,791.76 L1500.00,257.31 "/><path d="M571.54,788.56 L1500.00,252.52 "/><path d="M572.41,790.07 L1500.00,254.53 "/><path d="M579.73,794.90 L1500.00,263.58 "/><path d="M1499.90,261.63 L577.99,793.89 "/><path d="M1500.00,312.87 L603.78,830.31 L603.78,808.18 L603.34,807.05 L583.74,795.60 L583.30,795.49 L582.98,795.67 L582.87,796.71 "/><path d="M583.74,795.60 L1500.00,266.60 "/><path d="M583.30,795.49 L893.70,616.28 L891.66,617.46 "/><path d="M1500.00,317.90 L596.69,839.43 "/><path d="M1500.00,315.89 L595.82,837.92 "/><path d="M602.38,830.51 L594.54,835.04 "/><path d="M594.54,833.43 L600.99,829.70 "/><path d="M599.94,843.05 L600.06,841.74 L600.38,841.56 L600.81,841.67 L603.34,843.27 L603.78,844.39 L603.78,866.52 L603.66,866.96 L603.34,867.14 L602.38,866.72 "/><path d="M603.78,866.52 L1500.00,349.09 "/><path d="M603.66,866.96 L604.65,866.38 L603.34,867.14 "/><path d="M604.65,866.38 L1090.99,585.60 "/><path d="M1500.00,326.96 L603.78,844.39 "/><path d="M600.81,841.67 L1500.00,322.53 "/><path d="M602.90,842.88 L1500.00,324.94 "/><path d="M600.38,841.56 L796.51,728.32 L792.38,730.70 "/><path d="M603.78,830.31 L603.66,830.74 L603.34,830.93 L602.90,830.81 L600.40,829.24 "/><path d="M1500.00,313.24 L603.66,830.74 "/><path d="M603.78,808.18 L1500.00,290.74 "/><path d="M602.90,806.67 L1500.00,288.73 "/><path d="M796.51,728.32 L837.21,704.82 L834.17,706.58 "/><path d="M837.21,704.82 L1500.00,322.16 "/><path d="M893.70,616.28 L1500.00,266.23 "/><path d="M1088.20,587.21 L1500.00,349.45 "/><path d="M1334.48,325.58 L1500.00,230.02 "/></g></g><g id="Actor_.1"><g style="stroke:#696969;stroke-width:2.116"><path d="M203.04,578.55 L203.16,576.38 L203.49,576.20 L203.91,576.31 L223.08,587.37 L223.83,588.31 L223.95,589.49 "/><path d="M203.49,576.20 L1179.18,12.87 L1174.42,15.62 "/><path d="M203.91,576.31 L1179.62,12.99 L1179.18,12.87 "/><path d="M223.08,587.37 L1198.78,24.05 L1179.62,12.99 "/><path d="M223.95,588.88 L1199.65,25.56 L1199.22,24.44 L1198.78,24.05 "/><path d="M225.52,590.39 L1199.65,27.98 L1199.54,28.41 L225.84,590.58 "/><path d="M229.52,592.71 L1194.95,35.32 L1195.38,36.44 L1195.82,36.83 L231.27,593.71 "/><path d="M500.27,441.05 L1210.54,30.98 L1210.98,31.09 L235.27,594.42 L234.84,594.30 L234.52,594.48 L234.40,595.52 "/><path d="M235.27,594.42 L254.44,605.48 L1230.14,42.16 L1230.90,43.10 L1231.01,65.80 L255.31,629.12 L255.31,606.99 L254.87,605.87 L254.44,605.48 "/><path d="M234.84,594.30 L337.21,535.20 L333.73,537.21 "/><path d="M248.23,638.24 L1219.34,77.57 L1218.91,77.18 L1218.47,76.06 L247.36,636.73 "/><path d="M246.08,633.85 L253.92,629.32 "/><path d="M252.52,628.52 L246.08,632.24 "/><path d="M253.92,665.54 L254.87,665.95 L255.19,665.77 L255.31,665.33 L255.31,643.20 L254.87,642.08 L252.35,640.49 L1228.05,77.17 L1230.58,78.76 L1231.01,79.88 L255.31,643.20 "/><path d="M254.87,665.95 L255.81,665.41 L255.19,665.77 "/><path d="M255.31,665.33 L1231.01,102.01 L1230.90,102.45 L255.81,665.41 "/><path d="M252.35,640.49 L251.91,640.37 L251.59,640.56 L251.48,641.86 "/><path d="M254.44,641.70 L1230.14,78.37 "/><path d="M251.91,640.37 L253.36,639.54 L251.59,640.56 "/><path d="M253.36,639.54 L1227.62,77.05 L1228.05,77.17 "/><path d="M255.31,629.12 L255.19,629.56 L1230.90,66.23 L1231.01,65.80 "/><path d="M251.94,628.05 L254.44,629.62 L254.87,629.74 L255.19,629.56 "/><path d="M255.31,606.99 L1231.01,43.67 "/><path d="M337.21,535.20 L505.81,437.85 "/><path d="M366.28,601.63 L370.69,599.09 "/><path d="M1194.95,35.32 L1194.95,31.06 "/><path d="M1198.11,38.15 L1195.82,36.83 "/><path d="M1199.65,25.56 L1199.65,27.98 "/><path d="M1209.30,31.69 L1210.54,30.98 "/><path d="M1230.14,42.16 L1210.98,31.09 "/><path d="M1223.03,79.70 L1219.34,77.57 "/><path d="M1218.47,76.06 L1218.47,73.41 "/><path d="M1226.74,77.55 L1227.62,77.05 "/><path d="M1231.01,102.01 L1231.01,79.88 "/></g></g><g id="Actor_.2"><g style="stroke:#000000;stroke-width:2.116"><path d="M81.40,707.56 C80.81,706.65 80.81,706.64 80.25,705.72 C79.84,704.81 79.83,704.81 79.45,703.89 C79.09,702.62 79.08,702.61 78.77,701.33 C78.74,700.00 78.77,699.99 78.77,698.66 C78.85,697.32 78.84,697.32 78.95,695.98 C79.26,694.71 79.27,694.71 79.62,693.45 C79.76,693.12 79.77,693.12 79.93,692.79 C80.63,691.60 80.63,691.60 81.34,690.41 "/><path d="M86.30,689.11 C87.84,689.67 87.86,689.67 89.37,690.32 C90.93,691.44 90.94,691.46 92.44,692.65 C93.85,694.23 93.85,694.25 95.21,695.88 C95.75,696.76 95.73,696.78 96.24,697.67 C96.82,698.68 96.85,698.67 97.40,699.69 C98.14,701.68 98.15,701.68 98.82,703.70 C99.10,705.60 99.11,705.61 99.30,707.52 C99.11,709.15 99.10,709.17 98.82,710.79 "/><path d="M95.21,714.44 C93.83,714.47 93.82,714.47 92.44,714.47 C91.57,714.36 91.57,714.36 90.71,714.21 C89.13,713.64 89.12,713.64 87.56,713.02 C86.12,712.22 86.11,712.23 84.71,711.37 C83.41,710.18 83.39,710.17 82.16,708.92 C81.17,707.35 81.17,707.33 80.25,705.72 C79.78,704.33 79.77,704.32 79.37,702.91 C79.33,701.67 79.33,701.66 79.37,700.40 "/><path d="M83.94,698.29 C85.03,699.02 85.04,699.03 86.10,699.80 C86.67,700.47 86.65,700.49 87.21,701.18 C87.60,701.66 87.61,701.65 87.98,702.14 C88.64,703.52 88.66,703.52 89.26,704.91 C89.52,706.26 89.52,706.27 89.71,707.63 "/><path d="M82.47,707.47 C83.21,707.65 83.21,707.65 83.94,707.85 C84.49,708.07 84.49,708.07 85.02,708.32 C85.44,708.62 85.44,708.62 85.85,708.94 C86.18,709.36 86.18,709.36 86.50,709.79 "/><path d="M82.47,707.47 C82.43,706.67 82.43,706.67 82.35,705.87 C82.19,705.22 82.19,705.21 82.00,704.57 C81.72,703.99 81.72,703.98 81.40,703.42 C80.94,702.84 80.94,702.84 80.46,702.29 "/><path d="M82.47,699.42 C82.42,699.68 82.42,699.69 82.35,699.94 C82.19,700.25 82.18,700.25 82.00,700.54 C81.71,700.92 81.71,700.92 81.40,701.29 C80.93,701.79 80.93,701.79 80.46,702.29 "/><path d="M86.50,709.79 C86.97,709.30 86.97,709.30 87.44,708.80 C87.74,708.43 87.74,708.43 88.04,708.05 C88.22,707.75 88.22,707.75 88.39,707.45 C88.46,707.20 88.46,707.19 88.51,706.93 "/><path d="M83.79,699.63 C84.49,700.01 84.50,700.02 85.18,700.44 C85.85,701.07 85.86,701.08 86.50,701.75 C87.05,702.56 87.05,702.57 87.57,703.40 C87.93,704.29 87.94,704.30 88.26,705.20 C88.41,706.06 88.41,706.07 88.51,706.93 "/><path d="M99.68,710.29 C99.97,708.67 99.97,708.65 100.16,707.02 C99.97,705.11 99.96,705.10 99.68,703.20 C99.01,701.19 99.01,701.18 98.27,699.19 C97.21,697.27 97.20,697.26 96.07,695.38 C94.72,693.75 94.71,693.74 93.30,692.16 C91.80,690.96 91.79,690.95 90.23,689.82 C88.72,689.18 88.71,689.17 87.16,688.61 "/><path d="M122.61,687.97 C122.31,686.58 122.31,686.57 121.94,685.19 C121.25,683.83 121.24,683.82 120.49,682.49 C119.52,681.38 119.52,681.37 118.50,680.32 C117.44,679.66 117.43,679.65 116.33,679.07 "/><path d="M116.33,679.07 C117.23,679.49 117.23,679.49 118.11,679.97 C119.11,680.77 119.12,680.77 120.08,681.62 C120.89,682.77 120.90,682.78 121.65,683.98 C122.12,685.26 122.11,685.28 122.53,686.58 C122.59,687.27 122.59,687.28 122.61,687.97 "/><path d="M81.34,690.41 L83.53,689.14 L86.30,689.11 "/><path d="M98.82,710.79 L97.40,713.17 L95.21,714.44 "/><path d="M79.37,700.40 L80.25,698.62 L81.87,697.87 L83.94,698.29 "/><path d="M89.71,707.63 L89.26,709.82 L87.98,711.11 L86.10,711.28 L83.94,710.30 L81.87,708.33 L81.40,707.56 "/><path d="M80.70,704.02 L81.40,705.82 L82.47,707.47 "/><path d="M86.50,709.79 L85.18,709.59 L83.78,708.78 L82.47,707.47 "/><path d="M80.46,702.29 L80.70,700.84 L81.40,699.85 L82.47,699.42 "/><path d="M80.46,702.29 L80.70,704.02 "/><path d="M80.46,702.29 L84.41,700.01 "/><path d="M81.40,690.37 L84.40,688.64 L82.20,689.91 "/><path d="M87.21,709.52 L86.50,709.79 "/><path d="M88.51,706.93 L88.26,708.38 L87.57,709.38 L87.21,709.52 "/><path d="M82.47,707.47 L86.50,705.15 L84.52,700.06 "/><path d="M86.50,705.15 L88.41,706.25 "/><path d="M84.51,700.05 L83.94,699.80 L82.47,699.42 L83.79,699.63 "/><path d="M97.40,713.17 L98.27,712.67 L99.68,710.29 "/><path d="M87.16,688.61 L84.40,688.64 "/><path d="M99.82,704.28 L121.30,691.88 L122.38,690.33 L122.61,687.97 "/><path d="M116.33,679.07 L114.34,678.94 L92.50,691.55 "/><path d="M122.52,688.92 L122.53,688.85 "/><path d="M122.61,687.97 L122.39,690.32 "/></g></g><g id="Actor_.3"><g style="stroke:#000000;stroke-width:2.116"><path d="M430.23,909.35 C429.45,908.15 429.44,908.14 428.72,906.90 C428.25,905.52 428.24,905.51 427.84,904.10 C427.80,902.85 427.80,903.16 427.84,901.59 "/><path d="M434.56,900.99 C435.53,902.13 435.54,902.14 436.45,903.33 C437.12,904.69 437.12,904.70 437.72,906.10 C437.99,907.44 437.99,907.46 438.18,908.81 "/><path d="M430.94,908.66 C431.67,908.83 431.68,908.84 432.41,909.03 C432.95,909.26 432.96,909.26 433.49,909.51 C433.91,909.81 433.91,909.81 434.31,910.13 C434.65,910.55 434.65,910.55 434.96,910.98 "/><path d="M430.94,908.66 C430.89,907.86 430.89,907.85 430.82,907.05 C430.66,906.40 430.66,906.40 430.47,905.75 C430.18,905.17 430.18,905.17 429.87,904.60 C429.41,904.03 429.41,904.03 428.93,903.47 "/><path d="M430.94,900.61 C430.89,900.87 430.89,900.87 430.82,901.13 C430.65,901.43 430.65,901.43 430.47,901.73 C430.17,902.11 430.17,902.11 429.87,902.48 C429.40,902.98 429.40,902.98 428.93,903.47 "/><path d="M428.77,906.98 C429.65,908.56 429.66,908.57 430.63,910.10 C431.86,911.36 431.88,911.37 433.17,912.56 C434.57,913.42 434.59,913.41 436.02,914.21 C437.59,914.83 437.59,914.83 439.17,915.40 C440.03,915.55 440.04,915.54 440.90,915.65 C442.29,915.65 442.29,915.65 443.67,915.62 "/><path d="M448.14,911.47 C448.43,909.86 448.44,909.84 448.63,908.21 C448.44,906.30 448.41,906.29 448.14,904.39 C447.93,903.72 447.91,903.72 447.67,903.05 C447.20,901.71 447.23,901.70 446.73,900.37 C445.66,898.46 445.67,898.45 444.54,896.57 C443.19,894.93 443.18,894.92 441.77,893.34 C440.26,892.15 440.25,892.13 438.70,891.01 C437.19,890.36 437.17,890.36 435.63,889.80 "/><path d="M434.77,890.30 C436.31,890.87 436.32,890.87 437.84,891.51 C438.75,892.16 438.74,892.19 439.64,892.88 C440.27,893.36 440.29,893.34 440.90,893.84 C442.31,895.44 442.32,895.43 443.67,897.07 C444.80,898.95 444.81,898.95 445.87,900.87 C446.61,902.86 446.62,902.87 447.28,904.88 C447.57,906.78 447.57,906.80 447.77,908.71 C447.57,910.34 447.57,910.36 447.28,911.97 "/><path d="M429.80,891.60 C429.09,892.78 429.09,892.78 428.39,893.98 C428.23,894.30 428.23,894.30 428.08,894.63 C427.74,895.90 427.72,895.90 427.41,897.17 C427.30,898.50 427.32,898.51 427.24,899.84 C427.23,901.18 427.21,901.18 427.24,902.51 C427.54,903.80 427.56,903.80 427.91,905.08 C428.30,906.00 428.30,906.00 428.72,906.90 "/><path d="M436.97,908.12 C436.92,908.38 436.92,908.38 436.85,908.64 C436.69,908.94 436.68,908.94 436.51,909.24 C436.21,909.62 436.21,909.62 435.90,909.99 C435.44,910.49 435.44,910.49 434.96,910.98 "/><path d="M436.73,909.57 C436.87,908.85 436.88,908.84 436.97,908.12 C436.88,907.26 436.87,907.25 436.73,906.39 C436.40,905.49 436.40,905.48 436.03,904.59 C435.51,903.75 435.51,903.75 434.96,902.93 C434.32,902.27 434.32,902.26 433.65,901.62 C432.96,901.20 432.96,901.20 432.25,900.82 "/><path d="M464.79,880.25 C465.89,880.84 465.91,880.85 466.97,881.51 C467.98,882.56 467.99,882.57 468.95,883.68 C469.71,885.00 469.71,885.02 470.41,886.38 C470.78,887.75 470.78,887.77 471.08,889.16 "/><path d="M464.79,880.25 C465.69,880.68 465.70,880.68 466.58,881.15 C467.57,881.96 467.59,881.95 468.54,882.80 C469.36,883.96 469.36,883.97 470.12,885.17 C470.59,886.45 470.58,886.46 470.99,887.77 C471.06,888.46 471.06,888.47 471.08,889.16 "/><path d="M427.84,901.59 L428.72,899.81 L430.34,899.06 L432.40,899.48 L434.00,900.60 L434.56,900.99 "/><path d="M438.18,908.81 L437.72,911.01 L436.45,912.30 L434.56,912.47 L432.40,911.48 L430.34,909.51 L430.23,909.35 "/><path d="M429.86,906.98 L430.94,908.66 "/><path d="M434.96,910.98 L433.65,910.78 L432.25,909.97 L430.94,908.66 "/><path d="M428.93,903.47 L429.17,902.02 L429.87,901.03 L430.94,900.61 "/><path d="M428.93,903.47 L429.17,905.20 L429.86,906.98 "/><path d="M443.67,915.62 L446.73,913.86 L443.67,915.62 L446.73,913.86 L448.14,911.47 "/><path d="M435.63,889.80 L432.86,889.83 L432.00,890.33 L434.77,890.30 "/><path d="M447.28,911.97 L445.87,914.35 "/><path d="M428.93,903.47 L432.88,901.19 "/><path d="M432.00,890.33 L429.80,891.60 "/><path d="M434.96,910.98 L436.03,910.56 L436.73,909.57 "/><path d="M432.25,900.82 L430.94,900.61 L432.41,900.99 L432.97,901.23 "/><path d="M430.94,908.66 L434.96,906.33 L436.88,907.44 "/><path d="M434.96,906.33 L432.99,901.24 "/><path d="M440.97,892.74 L462.81,880.13 L464.79,880.25 "/><path d="M471.08,889.16 L470.85,891.52 L469.76,893.07 L448.28,905.47 "/><path d="M470.85,891.52 L470.99,890.10 L470.99,890.11 "/><path d="M470.99,890.04 L470.99,890.10 L471.04,889.53 "/></g></g><g id="Actor_.4"><g style="stroke:#000000;stroke-width:2.116"><path d="M537.90,855.37 C537.07,854.14 537.06,854.12 536.30,852.85 C535.78,851.32 535.78,851.31 535.34,849.75 C535.14,847.99 535.15,847.99 535.02,846.22 C535.14,844.31 535.14,844.31 535.33,842.40 C535.75,840.40 535.76,840.40 536.24,838.41 C536.94,836.40 536.95,836.40 537.70,834.40 C538.66,832.45 538.66,832.44 539.66,830.51 C540.83,828.67 540.83,828.67 542.04,826.86 C543.39,825.21 543.39,825.20 544.77,823.59 C546.25,822.18 546.26,822.18 547.77,820.82 C549.34,819.71 549.34,819.70 550.94,818.65 C552.53,817.88 552.53,817.87 554.15,817.16 C555.71,816.76 555.72,816.75 557.30,816.43 C558.78,816.44 558.79,816.45 560.27,816.54 "/><path d="M565.12,819.33 C565.95,820.56 565.96,820.58 566.72,821.85 C567.23,823.38 567.23,823.39 567.67,824.95 C567.87,826.71 567.87,826.71 568.00,828.48 C567.87,830.39 567.87,830.39 567.69,832.30 C567.26,834.30 567.26,834.30 566.78,836.28 C566.07,838.30 566.07,838.30 565.31,840.29 C564.36,842.25 564.35,842.25 563.35,844.19 C562.18,846.03 562.18,846.03 560.97,847.84 C559.62,849.49 559.62,849.49 558.24,851.11 C556.76,852.52 556.76,852.52 555.24,853.88 C553.68,854.99 553.67,854.99 552.08,856.05 C550.49,856.82 550.48,856.83 548.86,857.54 C547.30,857.94 547.29,857.95 545.71,858.27 C544.24,858.25 544.22,858.25 542.75,858.16 "/><path d="M539.00,855.33 C538.26,854.14 538.26,854.12 537.59,852.89 C537.18,851.42 537.19,851.41 536.85,849.91 C536.78,848.23 536.78,848.22 536.77,846.54 C537.01,844.73 537.01,844.72 537.31,842.92 C537.84,841.05 537.84,841.04 538.42,839.19 C539.21,837.32 539.21,837.32 540.04,835.47 C541.04,833.68 541.04,833.68 542.08,831.91 "/><path d="M538.99,854.94 C540.39,853.94 540.41,853.93 541.86,853.01 C543.71,852.29 543.72,852.29 545.59,851.66 C547.71,851.29 547.72,851.29 549.85,851.00 C552.05,851.01 552.06,851.01 554.25,851.09 C555.82,851.38 555.83,851.38 557.39,851.73 "/><path d="M553.68,854.89 C552.60,854.74 552.59,854.74 551.51,854.64 C549.90,854.80 549.89,854.79 548.30,855.01 C546.93,855.50 546.92,855.50 545.58,856.06 "/><path d="M560.81,817.53 C559.42,817.48 559.41,817.48 558.02,817.52 C556.54,817.91 556.53,817.92 555.08,818.38 C553.58,819.15 553.57,819.16 552.11,819.99 C550.65,821.10 550.65,821.11 549.22,822.26 C547.86,823.66 547.86,823.66 546.53,825.09 C545.32,826.70 545.32,826.71 544.13,828.35 C543.57,829.26 543.57,829.26 543.02,830.18 C542.55,831.04 542.55,831.04 542.08,831.91 "/><path d="M562.90,843.93 C563.94,842.16 563.94,842.15 564.93,840.36 C565.74,838.50 565.74,838.50 566.50,836.62 C567.05,834.73 567.05,834.73 567.54,832.84 C567.80,830.66 567.80,830.66 568.00,828.48 "/><path d="M566.86,835.32 C565.48,833.67 565.47,833.66 564.15,831.96 C563.06,830.05 563.06,830.04 562.03,828.10 C561.32,826.10 561.32,826.09 560.68,824.07 C560.41,822.17 560.41,822.16 560.22,820.25 "/><path d="M564.75,822.86 C564.93,824.30 564.94,824.32 565.20,825.74 C565.80,827.23 565.82,827.24 566.48,828.70 C567.11,829.60 567.11,829.60 567.79,830.46 "/><path d="M505.81,859.35 L505.56,859.80 L505.81,858.42 L518.63,836.21 L518.74,836.15 L517.74,838.70 L505.81,859.35 "/><path d="M505.56,859.80 L507.60,864.31 L557.08,892.88 L555.04,888.36 L558.08,888.60 L570.90,866.39 L570.64,866.11 L570.64,858.49 L570.01,858.49 L567.22,860.77 L567.22,867.27 L555.04,888.36 L505.56,859.80 "/><path d="M517.74,838.70 L523.36,835.45 L525.34,832.70 L527.08,833.71 L525.11,836.46 L523.36,835.45 "/><path d="M518.74,836.15 L534.31,827.16 L532.57,830.18 "/><path d="M525.34,832.70 L525.34,832.34 "/><path d="M527.08,833.71 L527.08,833.35 L532.68,830.11 L531.68,832.66 L525.11,836.46 "/><path d="M537.53,821.71 L537.53,819.77 L537.53,822.52 L537.53,819.77 L537.53,822.52 L531.68,832.66 "/><path d="M534.31,827.16 L537.53,821.58 "/><path d="M540.70,857.39 L540.09,857.17 L537.90,855.37 "/><path d="M560.27,816.54 L562.92,817.53 L565.12,819.33 "/><path d="M542.75,858.16 L540.70,857.39 "/><path d="M549.37,857.29 L546.51,858.04 L543.62,857.99 L541.07,857.06 L539.00,855.33 "/><path d="M542.08,831.91 L539.66,830.51 "/><path d="M538.87,855.10 L538.99,854.94 "/><path d="M537.53,819.77 L537.53,814.93 L537.53,815.60 L535.79,814.59 L535.79,813.95 L535.79,814.59 "/><path d="M535.79,813.95 L535.79,808.14 L535.79,813.95 "/><path d="M537.53,814.93 L535.79,813.93 "/><path d="M535.79,807.43 L535.79,806.62 L535.79,808.14 L535.79,807.43 L551.91,779.51 L601.40,808.07 L585.27,836.00 L579.65,839.25 L577.91,838.24 L571.33,842.04 L573.75,842.61 L574.39,842.25 L569.16,851.30 L568.89,851.02 L565.48,852.18 L565.48,859.76 L567.22,860.77 "/><path d="M535.79,806.62 L536.05,806.03 L550.11,781.68 L551.91,779.17 L551.91,779.51 "/><path d="M545.58,856.06 L543.77,857.63 L543.64,857.99 "/><path d="M567.73,825.58 L566.92,822.67 L565.43,820.19 L563.34,818.44 L560.81,817.53 "/><path d="M542.08,831.91 L561.96,843.38 L561.96,845.55 "/><path d="M543.02,830.18 L560.22,820.25 L560.60,817.53 "/><path d="M548.86,857.54 L552.41,855.81 "/><path d="M551.91,779.17 L552.90,779.41 L602.38,807.98 L602.38,811.86 L588.32,836.21 L593.02,833.50 L587.69,836.58 L585.27,836.00 "/><path d="M557.08,892.88 L559.98,892.81 L558.08,888.60 "/><path d="M552.33,855.88 L555.63,853.49 L558.36,850.75 "/><path d="M570.90,866.39 L602.38,848.21 L602.38,868.33 L559.98,892.81 "/><path d="M563.35,844.19 L562.90,843.93 L560.84,847.48 L558.40,850.72 "/><path d="M561.96,843.38 L562.90,843.93 "/><path d="M570.64,866.11 L567.22,867.27 "/><path d="M565.48,859.76 L568.27,857.49 L568.89,857.49 L597.16,841.17 L594.54,836.65 L569.16,851.30 "/><path d="M568.27,857.49 L570.01,858.49 "/><path d="M568.89,851.02 L568.89,857.49 "/><path d="M565.48,852.18 L571.33,842.04 "/><path d="M565.45,820.22 L565.20,820.51 L564.75,822.86 "/><path d="M567.82,826.55 L567.96,828.86 "/><path d="M564.75,822.86 L566.45,821.88 "/><path d="M570.64,858.49 L598.90,842.18 L599.71,842.65 L599.94,843.05 L602.38,847.27 L602.38,848.21 L598.90,842.18 L597.16,841.17 "/><path d="M573.75,842.61 L575.58,841.56 L574.39,842.25 "/><path d="M579.65,839.25 L580.46,840.39 L579.03,839.56 L575.58,841.56 L579.03,839.56 L578.72,839.38 L577.91,838.24 "/><path d="M580.46,840.39 L581.09,840.39 L588.32,836.21 "/><path d="M598.84,830.14 L602.38,828.09 L587.21,836.85 "/><path d="M597.97,841.64 L594.54,835.70 "/><path d="M594.54,836.65 L594.54,832.62 "/><path d="M602.38,811.86 L602.38,828.09 "/><path d="M602.38,808.31 L601.40,808.07 "/></g></g><g id="Actor_.5"><g style="stroke:#000000;stroke-width:2.116"><path d="M189.43,654.18 C188.60,652.95 188.59,652.94 187.83,651.66 C187.32,650.13 187.32,650.12 186.87,648.56 C186.68,646.81 186.68,646.80 186.55,645.04 C186.67,643.12 186.68,643.12 186.86,641.21 C187.29,639.22 187.29,639.21 187.77,637.23 C188.48,635.22 188.48,635.21 189.23,633.22 C190.19,631.26 190.19,631.26 191.19,629.32 C192.36,627.49 192.37,627.48 193.58,625.67 C194.92,624.02 194.92,624.02 196.31,622.40 C197.79,621.00 197.79,620.99 199.31,619.63 C200.87,618.52 200.87,618.52 202.47,617.46 C204.06,616.69 204.07,616.68 205.69,615.97 C207.25,615.58 207.26,615.57 208.83,615.24 C210.31,615.26 210.33,615.26 211.80,615.35 "/><path d="M216.65,618.15 C217.48,619.38 217.49,619.39 218.25,620.66 C218.77,622.19 218.76,622.21 219.21,623.76 C219.40,625.52 219.40,625.53 219.53,627.29 C219.41,629.20 219.40,629.21 219.22,631.11 C218.79,633.11 218.79,633.11 218.31,635.10 C217.60,637.11 217.60,637.11 216.85,639.11 C215.89,641.06 215.89,641.07 214.89,643.00 C213.72,644.84 213.72,644.84 212.50,646.65 C211.16,648.30 211.16,648.31 209.77,649.93 C208.29,651.33 208.29,651.33 206.78,652.70 C205.21,653.80 205.21,653.81 203.61,654.86 C202.02,655.64 202.01,655.64 200.40,656.35 C198.84,656.75 198.82,656.76 197.25,657.08 C195.77,657.07 195.76,657.07 194.28,656.97 "/><path d="M190.54,654.14 C189.80,652.95 189.79,652.94 189.12,651.71 C188.72,650.23 188.72,650.22 188.39,648.73 C188.31,647.05 188.31,647.04 188.30,645.35 C188.54,643.54 188.54,643.54 188.84,641.73 C189.37,639.86 189.37,639.86 189.95,638.00 C190.74,636.13 190.74,636.13 191.57,634.28 C192.57,632.49 192.58,632.49 193.62,630.72 "/><path d="M190.52,653.75 C191.93,652.76 191.94,652.75 193.40,651.82 C195.24,651.11 195.25,651.11 197.13,650.47 C199.25,650.10 199.26,650.10 201.39,649.81 C203.58,649.82 203.59,649.83 205.79,649.91 C207.36,650.19 207.37,650.19 208.92,650.54 "/><path d="M205.22,653.71 C204.14,653.55 204.13,653.55 203.04,653.46 C201.44,653.61 201.43,653.60 199.83,653.82 C198.47,654.31 198.46,654.32 197.12,654.87 "/><path d="M212.35,616.34 C210.96,616.30 210.94,616.30 209.55,616.34 C208.08,616.72 208.07,616.73 206.61,617.19 C205.11,617.97 205.11,617.97 203.64,618.81 C202.18,619.92 202.18,619.92 200.76,621.08 C199.39,622.47 199.39,622.47 198.07,623.90 C196.85,625.52 196.86,625.53 195.67,627.16 C195.10,628.07 195.11,628.07 194.56,628.99 C194.08,629.85 194.08,629.85 193.62,630.72 "/><path d="M203.61,654.86 C205.40,653.62 205.41,653.61 207.16,652.31 C208.57,650.95 208.57,650.94 209.93,649.53 C211.17,647.93 211.17,647.93 212.37,646.29 C213.42,644.53 213.40,644.52 214.43,642.74 C215.45,640.96 215.47,640.97 216.47,639.17 C217.28,637.31 217.28,637.31 218.04,635.43 C218.58,633.55 218.59,633.54 219.07,631.65 C219.31,629.78 219.31,629.78 219.48,627.91 "/><path d="M218.39,634.13 C217.01,632.48 217.01,632.47 215.69,630.77 C214.60,628.86 214.59,628.86 213.57,626.91 C212.86,624.92 212.85,624.91 212.22,622.89 C211.94,620.99 211.94,620.97 211.75,619.06 "/><path d="M216.28,621.68 C216.47,623.12 216.47,623.13 216.73,624.56 C217.34,626.04 217.35,626.05 218.02,627.52 C218.64,628.41 218.65,628.42 219.32,629.28 "/><path d="M218.76,666.08 L218.76,659.58 L221.54,657.31 L222.17,657.31 L222.17,664.92 L218.76,666.08 L206.57,687.18 L208.62,691.69 L159.13,663.12 L157.09,658.61 L157.34,657.23 L170.17,635.02 L170.27,634.96 L169.27,637.51 L174.90,634.26 L176.64,635.27 L178.61,632.52 L176.87,631.52 L174.90,634.26 "/><path d="M222.17,664.92 L222.44,665.20 L209.61,687.41 L206.57,687.18 L157.09,658.61 L169.27,637.51 "/><path d="M170.27,634.96 L172.42,633.72 L170.17,635.02 "/><path d="M172.42,633.72 L180.23,629.21 L174.42,632.57 "/><path d="M176.64,635.27 L183.21,631.47 L189.07,621.34 L189.07,616.28 L189.07,621.34 L189.07,616.28 L189.07,620.52 "/><path d="M178.61,632.52 L178.61,632.16 L184.21,628.93 L183.21,631.47 "/><path d="M184.21,628.93 L184.10,628.99 L185.85,625.97 L176.87,631.15 L176.87,631.52 "/><path d="M180.23,631.22 L184.10,628.99 L180.23,631.22 "/><path d="M189.07,620.39 L185.85,625.97 L182.49,627.91 L185.85,625.97 "/><path d="M191.63,655.98 L189.43,654.18 "/><path d="M211.80,615.35 L214.46,616.35 L216.65,618.15 "/><path d="M194.28,656.97 L191.63,655.98 "/><path d="M200.90,656.11 L198.03,656.86 L195.16,656.81 L192.60,655.88 L190.54,654.14 "/><path d="M193.62,630.72 L191.19,629.32 "/><path d="M190.40,653.91 L190.52,653.75 "/><path d="M187.32,613.05 L187.32,612.74 L189.07,613.75 L189.07,616.28 L189.07,614.41 L187.32,613.41 L187.32,610.47 L187.32,613.41 "/><path d="M189.07,613.75 L189.07,616.28 "/><path d="M187.32,610.47 L187.32,605.43 L187.32,610.47 "/><path d="M187.32,606.25 L203.45,578.32 L252.93,606.89 L236.81,634.82 L231.18,638.06 L229.44,637.06 L222.87,640.85 L217.01,650.99 L220.43,649.83 L220.69,650.11 L246.08,635.46 L248.69,639.99 L220.43,656.30 L219.80,656.30 L221.54,657.31 "/><path d="M187.32,605.43 L187.59,604.85 L201.65,580.50 L203.45,577.99 L203.45,578.32 "/><path d="M197.12,654.87 L195.30,656.44 L195.17,656.81 "/><path d="M219.27,624.39 L218.46,621.48 L216.97,619.01 L214.88,617.26 L212.35,616.34 "/><path d="M193.62,630.72 L214.89,643.00 "/><path d="M194.56,628.99 L211.75,619.06 L212.14,616.34 "/><path d="M200.40,656.35 L203.95,654.62 "/><path d="M203.45,577.99 L204.43,578.22 L253.92,606.79 L253.92,610.67 L239.86,635.02 L253.92,626.91 L253.92,610.67 "/><path d="M208.62,691.69 L211.52,691.62 L209.61,687.41 "/><path d="M222.44,665.20 L253.92,647.03 L253.92,667.15 L211.52,691.62 "/><path d="M213.49,642.20 L213.49,644.36 "/><path d="M218.76,659.58 L217.01,658.58 L219.80,656.30 "/><path d="M217.01,658.58 L217.01,650.99 "/><path d="M220.43,656.30 L220.43,649.83 "/><path d="M220.69,650.11 L225.92,641.06 "/><path d="M216.98,619.03 L216.73,619.32 L216.28,621.68 "/><path d="M219.35,625.36 L219.49,627.67 "/><path d="M216.28,621.68 L217.98,620.70 "/><path d="M222.17,657.31 L250.43,640.99 L253.92,647.03 L253.92,646.08 L251.25,641.46 L248.69,639.99 "/><path d="M222.87,640.85 L225.28,641.43 L230.57,638.38 L232.00,639.20 L231.18,638.06 "/><path d="M229.44,637.06 L230.26,638.19 L230.57,638.38 "/><path d="M232.00,639.20 L232.63,639.20 L239.22,635.39 L236.81,634.82 "/><path d="M239.22,635.39 L239.86,635.02 "/><path d="M246.08,634.52 L249.51,640.46 "/><path d="M246.08,635.46 L246.08,631.43 "/><path d="M252.93,606.89 L253.92,607.12 "/></g></g><g><g><path style="stroke:#696969;stroke-width:3.174;stroke-dasharray:6.0 6.0 12.0 6.0" d="M219.43,626.70L121.25,683.38"/></g><g/><g/></g><g><g><path style="stroke:#696969;stroke-width:3.174;stroke-dasharray:6.0 6.0 12.0 6.0" d="M567.90,827.88L469.72,884.57"/></g><g/><g/></g><g/><g id="paperID" visibility="hidden" opacity="0.00" transform="scale(0.000100)"><path style="stroke:#000000;stroke-width:0.500;fill:#e6e6e6;fill-rule:evenodd" d="M-2000.00,-2000.00L3500.00,-2000.00L3500.00,3000.00L-2000.00,3000.00zM0.00,0.00L1500.00,0.00L1500.00,1000.00L0.00,1000.00z"/><path style="fill:#000000;fill-opacity:0.118" d="M3.00,1000.00L1500.00,1000.00L1500.00,3.00L1503.00,3.00L1503.00,1003.00L3.00,1003.00z"/></g><g id="hotspot.0" ident="" onmouseover="ShowHotSpot(evt,'0')" onmouseout="HideHotSpot(evt,'0')" onmousemove="ShowToolTip(evt,'0',&quot;[a] bed angle bracket x4&quot;)" opacity="0"><a xlink:href="https://github.com/PrintersForAnts/Micron/blob/main/R1_Beta/STLs/Frame/%5Ba%5D_1515_angled_bracket_x4.stl"><path style="fill:#00ff00;fill-rule:evenodd" d="M601.44,808.26L601.62,829.04L596.43,832.22L596.25,840.21L601.58,846.58L601.61,869.17L562.52,891.95L554.53,891.95L507.92,864.99L505.60,859.90L519.09,836.81L534.64,827.28L536.31,823.94L536.15,807.03L550.88,781.46L554.57,781.27z"/></a></g><g id="hotspot.1" ident="" onmouseover="ShowHotSpot(evt,'1')" onmouseout="HideHotSpot(evt,'1')" onmousemove="ShowToolTip(evt,'1',&quot;[a] bed angle bracket x4&quot;)" opacity="0"><a xlink:href="https://github.com/PrintersForAnts/Micron/blob/main/R1_Beta/STLs/Frame/%5Ba%5D_1515_angled_bracket_x4.stl"><path style="fill:#00ff00;fill-rule:evenodd" d="M253.56,607.64L253.61,628.19L246.90,631.58L246.99,637.56L253.73,645.93L253.61,668.33L214.52,691.11L206.70,691.28L158.25,662.74L158.18,656.58L170.08,636.64L186.76,624.89L188.54,621.55L188.32,604.70L203.03,579.04L205.02,578.91z"/></a></g><g id="ToolTip" visibility="hidden" opacity="0" transform="translate(0,0)"><rect id="ToolTipShadow" opacity="0.20" fill="black" stroke="none" x="0" y="0" width="30" height="8"/><rect id="ToolTipBG" fill="#ffffe1" stroke="black" x="0" y="0" width="30" height="8"/><text xml:space="preserve" id="ToolTipText" fill="black" x="0" y="0" width="30" height="8">tooltip</text></g></g></svg>
