<?xml version="1.0" encoding="UTF-8" standalone="no"?>
<svg
   width="1500.000mm"
   height="1000.000mm"
   viewBox="0.000000 0.000000 1500.000000 1000.000000"
   stroke-linejoin="round"
   stroke-linecap="round"
   fill="none"
   fill-rule="evenodd"
   version="1.1"
   id="svg36554"
   sodipodi:docname="railstop1.svg"
   inkscape:version="1.2.2 (732a01da63, 2022-12-09)"
   xmlns:inkscape="http://www.inkscape.org/namespaces/inkscape"
   xmlns:sodipodi="http://sodipodi.sourceforge.net/DTD/sodipodi-0.dtd"
   xmlns:xlink="http://www.w3.org/1999/xlink"
   xmlns="http://www.w3.org/2000/svg"
   xmlns:svg="http://www.w3.org/2000/svg">
  <sodipodi:namedview
     id="namedview36556"
     pagecolor="#ffffff"
     bordercolor="#000000"
     borderopacity="0.25"
     inkscape:showpageshadow="2"
     inkscape:pageopacity="0.0"
     inkscape:pagecheckerboard="0"
     inkscape:deskcolor="#d1d1d1"
     inkscape:document-units="mm"
     showgrid="false"
     inkscape:zoom="0.21007917"
     inkscape:cx="2834.6457"
     inkscape:cy="1889.7638"
     inkscape:window-width="1920"
     inkscape:window-height="1017"
     inkscape:window-x="1912"
     inkscape:window-y="-8"
     inkscape:window-maximized="1"
     inkscape:current-layer="g36552" />
  <desc
     id="desc36237">Composer Export</desc>
  <script
     type="text/ecmascript"
     id="script36239"><![CDATA[
if(typeof(top) != "undefined")
{
	top.ShowPaper = ShowPaper;
}
function ShowHotSpot(evt,hotspotid)
{
	var svgDocument = evt.target.ownerDocument;
	var strId = "hotspot."+hotspotid;
	var hotspot = svgDocument.getElementById(strId);
	if(hotspot)
		hotspot.setAttribute("opacity",".5");
}
function HideHotSpot(evt,hotspotid)
{
	var svgDocument = evt.target.ownerDocument;
	var strId = "hotspot."+hotspotid;
	var hotspot = svgDocument.getElementById(strId);
	if(hotspot)
		hotspot.setAttribute("opacity","0");

	var toolTip = svgDocument.getElementById('ToolTip');
	if(toolTip)
		toolTip.setAttribute("visibility","hidden");
}
function ShowToolTip(evt,hotspotid,strTooltip)
{
	if(strTooltip=="")
	return;

	// change text
	var svgDocument = evt.target.ownerDocument;
	var tiptext = svgDocument.getElementById('ToolTipText');
	if( !tiptext )
	return;
	tiptext.firstChild.nodeValue = " " + strTooltip + "  " ;

	// show tooltip before, else some refresh issue

	var toolTip = svgDocument.getElementById('ToolTip');
	if(!toolTip)
	return;

	toolTip.setAttribute("visibility","visible");
	toolTip.setAttribute("opacity",".95");

	// move tooltip
	// get viewbox

	var root = svgDocument.documentElement;
	var vbox = (root.getAttribute("viewBox")).split(' ');
	var x0 = parseFloat(vbox[0]);
	var y0 = parseFloat(vbox[1]);
	var vboxW = parseFloat(vbox[2]);
	var vboxH = parseFloat(vbox[3]);

	// get default width of svg

	var strW = root.getAttribute("width");
	var svgW = parseFloat(strW);
	if(strW.indexOf('mm') != -1)
	svgW *= 3.779;

	var strH = root.getAttribute("height");
	var svgH = parseFloat(strH);
	if(strH.indexOf('mm') != -1)
	svgH *= 3.779;  	// 96 dpi  -> 96/25.4 = 3.779

	// update the viewbox / width / height if svg is embedded in html with zoom fit all
	var realx0 = x0;
	var realy0 = y0;
	var realvboxW = vboxW;
	var realvboxH = vboxH;
	var realsvgW = svgW;
	var realsvgH = svgH;

	if ((typeof(top) == "undefined") || (typeof(top.svgctl1) != "undefined")) // embedded in html
	{
		// get window size in pxl

		svgW = window.innerWidth;
		svgH = window.innerHeight;

		// calculate real viewbox

		realsvgW = svgW;
		realsvgH = svgH;
		if((svgW / svgH) > (vboxW / vboxH))
		{
			realvboxW = (vboxH * svgW) / svgH;
			realvboxH = vboxH;
			realx0 = x0 - (realvboxW - vboxW)/2 ;
		}
		else
		{
			realvboxH = (vboxW * svgH) / svgW;
			realvboxW = vboxW;
			realy0 = y0 - (realvboxH - vboxH)/2 ;
		}
	}

	// get user zoom/pan

	var newScale = root.currentScale;
	var translation = root.currentTranslate;

	// transform pxl to user unit

	var xPos = (((evt.clientX+10- translation.x)/newScale) * realvboxW)/realsvgW  + realx0 ;
	var yPos = (((evt.clientY+5- translation.y)/newScale) * realvboxH)/ realsvgH  + realy0 ;
	var scaleForWidth = ( (1 / newScale) * realvboxH) / realsvgH;

	// move tooltip

	toolTip.setAttribute("transform", "translate(" + xPos + "," + yPos + ")" );

	// resize tooltip

	var fontsize = 12;
	tiptext.setAttribute("font-size",fontsize*scaleForWidth);
	tiptext.setAttribute("y", fontsize*scaleForWidth);
	var tipBG = svgDocument.getElementById('ToolTipBG');
	var outline = tiptext.getBBox();
	if(tipBG)
	{
		tipBG.setAttribute("stroke-width", 1*scaleForWidth);
		tipBG.setAttribute("width", Number(outline.width) );
		tipBG.setAttribute("height", Number(outline.height) + fontsize*.5*scaleForWidth );
	}
	var ToolTipShadow = svgDocument.getElementById('ToolTipShadow');
	if(ToolTipShadow)
	{
		ToolTipShadow.setAttribute("width", Number(outline.width) );
		ToolTipShadow.setAttribute("height", Number(outline.height) + fontsize*.5*scaleForWidth );
		ToolTipShadow.setAttribute("x", 3*scaleForWidth);
		ToolTipShadow.setAttribute("y", 3*scaleForWidth);
	}
}
function ShowPaper()
{
  var svgDocument = getDocument();
  var paper = svgDocument.getElementById("paperID");
  if(paper)
  {
    paper.setAttribute("transform","scale(1)");
    paper.setAttribute("opacity","1");
    paper.setAttribute("visibility","visible");
  }
  var svg = svgDocument.getRootElement();
  if(svg)
  {
    svg.setAttribute("width","1510.000mm");
    svg.setAttribute("height","1010.000mm");
    svg.setAttribute("viewBox","-5.000000 -5.000000 1510.000000 1010.000000");
  }
}
]]></script>
  <defs
     id="defs36241" />
  <g
     id="g36552">
    <path
       style="fill:#ffffff"
       d="M645.63,189.74L624.17,197.19L588.85,232.36L588.82,427.69L615.07,477.57L645.71,520.61L645.94,954.64L646.49,521.64L719.86,625.33L849.34,651.38L876.07,657.02L876.07,999.94L0.15,999.89L0.15,0.15L645.60,0.10z"
       id="path36243" />
    <a
       id="Linked"
       xlink:href="https://github.com/PrintersForAnts/Micron/blob/63db615df3d73b9733f29233dc74f9066b10a95f/R1_Beta/STLs/MISC/%5Ba%5D_railstops_x8.stl"
       target="_blank"
       onmouseover="this.querySelector('path').style.filter='brightness(70%)'"
       onmouseout="this.querySelector('path').style.filter='brightness(100%)'"
       style="image-rendering:auto">
      <path
         style="fill:#97fa98"
         d="M660.32,243.52L661.73,246.23L690.91,252.18L890.50,292.31L897.66,292.59L904.40,292.33L918.25,287.46L918.57,287.39L918.95,272.82L919.23,272.56L923.91,273.07L927.50,272.53L932.64,272.01L949.61,271.73L958.38,272.54L961.66,272.33L1017.43,252.77L1018.34,253.29L1040.16,257.84L1063.35,262.47L1120.79,273.82L1121.35,274.28L1156.01,323.06L1156.02,577.71L1090.97,642.90L1086.81,647.49L1051.12,683.31L1035.03,688.73L905.42,662.69L876.58,657.02L876.07,657.02L849.34,651.38L719.86,625.33L646.49,521.64L646.02,520.69L645.71,520.61L615.07,477.57L588.82,427.69L588.85,232.36L624.17,197.19L645.63,189.74L646.61,189.43L659.83,184.81z"
         id="path36245" />
    </a>
    <path
       style="fill:#696969"
       d="M646.61,189.43L645.63,189.74L645.60,0.10L646.12,0.10z"
       id="path36247" />
    <path
       style="fill:#696969"
       d="M876.98,396.60L876.57,484.01L875.99,483.56L876.17,395.60z"
       id="path36249" />
    <path
       style="fill:#ffffff"
       d="M646.61,189.43L646.12,0.10L1499.91,0.15L1499.91,999.89L960.95,999.94L960.77,938.44L960.43,999.94L876.58,999.94L876.58,657.02L905.42,662.69L1035.03,688.73L1051.12,683.31L1086.81,647.49L1090.97,642.90L1156.02,577.71L1156.25,323.22L1156.01,323.06L1121.35,274.28L1120.79,273.82L1063.35,262.47L1040.16,257.84L1018.34,253.29L1017.43,252.77L961.66,272.33L958.38,272.54L949.61,271.73L932.64,272.01L927.50,272.53L923.91,273.07L919.23,272.56L919.05,272.29L918.59,47.46L918.25,287.46L904.40,292.33L897.66,292.59L890.50,292.31L690.91,252.18L661.73,246.23L660.32,243.52L659.83,184.81z"
       id="path36251" />
    <path
       style="fill:#ffffff"
       d="M877.51,397.22L883.15,406.51L888.24,417.37L892.64,431.60L892.93,433.13L893.16,434.71L893.45,436.20L893.68,437.27L893.96,439.33L894.19,441.36L894.47,443.97L894.70,449.59L894.70,452.71L894.48,458.34L894.01,463.01L893.28,463.81L893.57,464.67L892.34,470.51L888.75,481.33L885.23,487.74L884.34,487.75L876.57,484.01L876.98,396.60z"
       id="path36253" />
    <path
       style="fill:#696969"
       d="M919.05,272.29L919.23,272.56L918.95,272.82L918.57,287.39L918.25,287.46L918.59,47.46z"
       id="path36255" />
    <path
       style="fill:#696969"
       d="M646.49,521.64L645.94,954.64L645.71,520.61L646.02,520.69z"
       id="path36257" />
    <path
       style="fill:#696969"
       d="M960.95,999.94L960.43,999.94L960.77,938.44z"
       id="path36259" />
    <path
       style="fill:#696969"
       d="M876.58,999.94L876.07,999.94L876.07,657.02L876.58,657.02z"
       id="path36261" />
    <path
       style="fill:#97fa98"
       d="M516.82,488.38L525.05,490.94L533.78,495.58L542.61,502.19L549.28,509.41L556.43,519.23L561.58,529.51L565.18,539.29L567.00,547.87L567.30,549.39L567.53,550.95L567.82,553.02L568.04,555.56L568.32,560.22L568.05,568.97L567.54,573.58L567.00,576.14L566.72,578.55L563.47,588.16L560.03,595.01L555.75,601.02L552.11,605.09L546.95,609.20L543.11,611.53L539.28,613.36L409.48,659.13L408.80,656.53L408.61,659.52L408.32,661.02L408.05,663.63L405.99,674.92L402.98,685.92L397.48,699.44L391.81,709.21L385.99,717.28L379.47,724.65L375.40,728.30L368.96,733.18L360.73,738.32L352.56,741.98L340.23,746.11L334.91,747.35L330.43,748.17L322.01,748.89L311.72,748.61L304.53,747.57L293.54,745.09L280.70,739.92L266.36,732.14L256.06,724.95L250.91,720.84L245.77,716.21L240.11,711.06L236.46,707.00L232.86,702.88L228.29,697.16L221.54,687.45L214.33,674.60L208.67,660.71L204.55,647.33L204.12,645.09L204.06,643.72L203.83,643.54L202.58,636.85L202.51,635.50L202.28,635.33L202.06,633.76L201.99,632.41L201.76,632.24L201.53,630.19L201.46,627.26L201.26,627.06L201.02,624.53L200.95,621.60L200.75,621.41L200.74,606.01L201.76,594.67L203.61,584.91L204.95,578.94L207.65,569.29L212.80,556.44L216.91,548.20L222.35,539.23L227.50,532.56L233.42,526.13L236.97,522.99L241.44,519.23L248.65,514.61L256.36,510.49L267.15,506.35L275.72,504.02L278.83,503.51L282.08,502.76L286.00,502.48L295.78,502.20L300.96,502.47L310.53,503.80L321.32,506.90L332.66,511.51L341.93,516.65L348.67,521.23L358.43,528.96L364.59,534.67L366.59,534.29L495.57,488.88L499.51,488.08L503.09,487.55L511.35,487.55z"
       id="path36263" />
    <path
       style="fill:#000000"
       d="M834.80,416.71L834.51,414.09L834.73,414.28z"
       id="path36265" />
    <path
       style="fill:#000000"
       d="M835.32,420.78L835.01,419.27L835.25,419.44z"
       id="path36267" />
    <path
       style="fill:#000000"
       d="M835.83,423.86L835.54,422.36L835.77,422.53z"
       id="path36269" />
    <path
       style="fill:#000000"
       d="M836.34,426.46L836.06,424.94L836.29,425.11z"
       id="path36271" />
    <path
       style="fill:#000000"
       d="M892.93,433.13L892.64,431.60L892.89,431.77z"
       id="path36273" />
    <path
       style="fill:#000000"
       d="M893.45,436.20L893.16,434.71L893.39,434.88z"
       id="path36275" />
    <path
       style="fill:#000000"
       d="M893.96,439.33L893.68,437.27L893.91,437.44z"
       id="path36277" />
    <path
       style="fill:#000000"
       d="M894.47,443.97L894.19,441.36L894.40,441.54z"
       id="path36279" />
    <path
       style="fill:#000000"
       d="M894.70,452.71L894.70,449.59L894.91,449.78z"
       id="path36281" />
    <path
       style="fill:#000000"
       d="M893.57,464.67L893.28,463.81L894.01,463.01z"
       id="path36283" />
    <path
       style="fill:#000000"
       d="M884.34,487.75L885.23,487.74L885.19,488.52L884.68,488.42z"
       id="path36285" />
    <path
       style="fill:#000000"
       d="M567.30,549.39L567.00,547.87L567.23,548.05z"
       id="path36287" />
    <path
       style="fill:#000000"
       d="M567.82,553.02L567.53,550.95L567.75,551.12z"
       id="path36289" />
    <path
       style="fill:#000000"
       d="M568.32,560.22L568.04,555.56L568.25,555.75z"
       id="path36291" />
    <path
       style="fill:#000000"
       d="M1156.02,577.71L1156.01,323.06L1156.25,323.22z"
       id="path36293" />
    <path
       style="fill:#000000"
       d="M201.02,624.53L200.75,621.41L200.95,621.60z"
       id="path36295" />
    <path
       style="fill:#000000"
       d="M201.53,630.19L201.26,627.06L201.46,627.26z"
       id="path36297" />
    <path
       style="fill:#000000"
       d="M202.06,633.76L201.76,632.24L201.99,632.41z"
       id="path36299" />
    <path
       style="fill:#000000"
       d="M202.58,636.85L202.28,635.33L202.51,635.50z"
       id="path36301" />
    <path
       style="fill:#000000"
       d="M204.12,645.09L203.83,643.54L204.06,643.72z"
       id="path36303" />
    <path
       style="fill:#000000"
       d="M409.48,659.13L408.61,659.52L408.80,656.53z"
       id="path36305" />
    <path
       style="fill:#ffffff"
       d="M846.57,371.08L855.31,375.71L863.03,381.36L869.20,387.02L871.82,390.06L876.17,395.60L875.99,483.56L871.32,480.59L865.12,475.98L860.97,471.91L859.98,471.35L852.79,462.60L847.07,453.91L841.93,443.62L839.86,438.49L836.34,426.46L836.29,425.11L836.06,424.94L835.83,423.86L835.77,422.53L835.54,422.36L835.32,420.78L835.25,419.44L835.01,419.27L834.80,416.71L834.73,414.28L834.51,414.09L834.28,409.50L834.28,404.32L835.02,395.07L835.83,390.44L838.18,382.40L840.91,375.36L843.75,370.02z"
       id="path36307" />
    <g
       id="Actor_.0">
      <g
         style="stroke:#000000;stroke-width:1.058"
         id="g36359">
        <path
           d="M284.18,741.20 C280.90,739.74 280.90,739.73 277.65,738.21 C272.80,735.58 272.79,735.58 267.97,732.89 C264.56,730.72 264.56,730.71 261.18,728.48 C256.69,725.18 256.68,725.18 252.23,721.82 C249.34,719.33 249.36,719.31 246.50,716.78 C243.47,713.96 243.45,713.97 240.45,711.13 C237.61,708.12 237.61,708.12 234.81,705.06 C232.19,701.85 232.19,701.85 229.60,698.60 C227.14,695.25 227.15,695.25 224.72,691.87 C223.25,689.68 223.25,689.69 221.81,687.48 C219.60,683.65 219.61,683.64 217.43,679.80 C216.17,677.48 216.14,677.49 214.92,675.16 C211.99,668.42 211.97,668.43 209.13,661.65 C207.58,656.90 207.64,656.88 206.15,652.10 C205.40,649.58 205.37,649.58 204.66,647.05 C203.60,641.87 203.62,641.87 202.60,636.68 C202.17,634.10 202.16,634.10 201.76,631.51 C201.25,626.00 201.22,626.00 200.78,620.49 C200.74,613.58 200.73,613.58 200.80,606.67 C201.29,600.75 201.29,600.75 201.88,594.84 C202.90,588.92 202.90,588.92 204.02,583.02 C205.54,577.24 205.55,577.23 207.16,571.47 C208.69,567.18 208.73,567.19 210.30,562.91 C210.77,561.69 210.76,561.69 211.24,560.47 C211.82,559.16 211.82,559.16 212.40,557.85 "
           id="path36309" />
        <path
           d="M213.77,636.90 C213.96,638.60 213.94,638.61 214.14,640.31 C214.62,643.11 214.61,643.11 215.13,645.91 C215.80,648.69 215.80,648.69 216.50,651.46 C217.36,654.21 217.36,654.21 218.26,656.94 C219.30,659.61 219.30,659.61 220.37,662.27 C221.58,664.85 221.58,664.86 222.83,667.43 C224.21,669.91 224.21,669.91 225.62,672.38 C227.15,674.74 227.15,674.74 228.71,677.08 C230.39,679.30 230.39,679.30 232.09,681.50 C233.89,683.56 233.89,683.56 235.72,685.60 C237.64,687.49 237.64,687.49 239.59,689.35 C241.60,691.05 241.61,691.05 243.65,692.72 C245.75,694.22 245.75,694.22 247.88,695.69 C250.05,696.98 250.06,696.98 252.25,698.23 C254.48,699.30 254.48,699.30 256.72,700.33 C258.98,701.17 258.99,701.17 261.26,701.97 C263.55,702.57 263.55,702.57 265.84,703.13 C268.12,703.49 268.13,703.49 270.42,703.81 C272.68,703.93 272.69,703.93 274.96,704.00 C277.19,703.87 277.20,703.87 279.43,703.70 C281.62,703.33 281.62,703.33 283.80,702.91 C285.92,702.30 285.93,702.30 288.03,701.65 C290.07,700.80 290.08,700.80 292.10,699.91 C294.01,698.85 294.01,698.85 295.90,697.75 C297.76,696.43 297.76,696.43 299.60,695.07 C301.30,693.56 301.30,693.56 302.98,692.01 C304.54,690.30 304.54,690.30 306.07,688.56 C307.48,686.66 307.48,686.65 308.86,684.73 C310.11,682.65 310.11,682.65 311.32,680.55 C312.40,678.32 312.40,678.32 313.44,676.07 C314.33,673.70 314.34,673.70 315.19,671.31 C315.90,668.82 315.90,668.82 316.57,666.31 C317.09,663.71 317.09,663.71 317.57,661.11 C317.89,658.43 317.89,658.43 318.16,655.74 C318.29,653.00 318.28,653.00 318.36,650.25 C318.28,647.47 318.28,647.47 318.17,644.68 C318.07,643.72 318.06,643.72 317.96,642.75 C317.76,640.92 317.78,640.91 317.57,639.08 C317.09,636.27 317.09,636.27 316.58,633.47 C315.91,630.69 315.91,630.69 315.20,627.92 C314.34,625.18 314.34,625.18 313.45,622.45 C312.75,620.63 312.73,620.64 312.01,618.82 C311.67,617.97 311.68,617.97 311.33,617.12 C310.11,614.54 310.12,614.53 308.88,611.96 C307.50,609.47 307.50,609.47 306.09,607.01 C304.35,604.37 304.35,604.37 302.58,601.76 C301.11,599.81 301.11,599.81 299.62,597.89 C297.81,595.82 297.81,595.82 295.98,593.79 C294.07,591.90 294.07,591.90 292.13,590.04 C290.11,588.34 290.11,588.34 288.06,586.66 C285.96,585.16 285.95,585.16 283.83,583.70 C281.65,582.41 281.65,582.41 279.45,581.15 C277.43,580.18 277.43,580.18 275.39,579.24 C272.92,578.31 272.92,578.31 270.44,577.42 C268.16,576.81 268.16,576.82 265.87,576.26 C263.58,575.89 263.58,575.89 261.29,575.58 C258.91,575.46 258.90,575.47 256.52,575.40 C254.40,575.52 254.39,575.52 252.27,575.69 C250.09,576.06 250.08,576.05 247.90,576.47 C245.78,577.08 245.78,577.08 243.67,577.74 C241.63,578.58 241.63,578.59 239.61,579.48 C238.45,580.11 238.46,580.13 237.30,580.79 C236.52,581.23 236.52,581.22 235.75,581.67 C233.92,582.98 233.91,582.97 232.11,584.31 C230.41,585.82 230.40,585.82 228.73,587.37 C227.17,589.08 227.17,589.08 225.64,590.83 C224.22,592.73 224.23,592.73 222.85,594.66 C222.00,596.05 222.02,596.06 221.19,597.46 C220.79,598.15 220.78,598.14 220.39,598.83 C219.34,601.02 219.33,601.02 218.31,603.22 C217.39,605.64 217.39,605.64 216.51,608.07 C215.80,610.57 215.80,610.57 215.14,613.07 C214.62,615.67 214.62,615.67 214.14,618.28 C213.82,620.96 213.82,620.96 213.54,623.64 C213.42,626.39 213.42,626.39 213.34,629.13 C213.42,631.92 213.43,631.92 213.54,634.70 C213.65,635.80 213.66,635.80 213.77,636.90 "
           id="path36311" />
        <path
           d="M212.53,557.52 C213.67,554.96 213.67,554.96 214.83,552.41 C215.68,550.70 215.67,550.70 216.54,549.00 C218.87,545.03 218.85,545.01 221.22,541.07 C223.84,537.41 223.85,537.41 226.52,533.80 C228.19,531.89 228.22,531.91 229.91,530.01 C231.16,528.62 231.14,528.60 232.41,527.23 C235.59,524.30 235.59,524.28 238.82,521.41 C242.25,518.87 242.25,518.87 245.73,516.40 C249.37,514.28 249.38,514.27 253.07,512.23 C256.91,510.54 256.92,510.53 260.79,508.93 C264.68,507.71 264.69,507.71 268.60,506.59 C272.86,505.76 272.87,505.76 277.14,505.03 C281.38,504.70 281.39,504.70 285.64,504.46 C289.95,504.60 289.96,504.60 294.26,504.82 C298.62,505.42 298.62,505.42 302.96,506.11 C307.32,507.17 307.31,507.19 311.65,508.32 C313.32,508.89 313.32,508.92 314.98,509.52 C317.63,510.47 317.64,510.44 320.28,511.43 C324.54,513.39 324.55,513.38 328.78,515.41 C332.95,517.79 332.95,517.79 337.08,520.24 C341.12,523.03 341.13,523.03 345.12,525.89 C349.01,529.06 348.99,529.08 352.84,532.29 C353.18,532.61 353.18,532.62 353.51,532.94 C356.85,536.18 356.87,536.16 360.18,539.42 C363.66,543.29 363.66,543.29 367.09,547.21 C370.32,551.38 370.32,551.38 373.50,555.60 C376.19,559.62 376.16,559.65 378.82,563.69 C379.11,564.12 379.11,564.12 379.39,564.56 C382.04,569.25 382.07,569.24 384.68,573.94 C387.05,578.83 387.05,578.83 389.35,583.75 C391.39,588.80 391.39,588.81 393.37,593.89 C395.07,599.07 395.05,599.07 396.70,604.27 C397.13,605.94 397.11,605.94 397.53,607.61 C398.42,611.22 398.45,611.21 399.31,614.83 C400.28,620.14 400.29,620.14 401.19,625.47 C401.80,630.79 401.80,630.79 402.33,636.12 C402.55,641.41 402.56,641.41 402.71,646.70 C402.54,652.05 402.54,652.05 402.30,657.39 C401.78,662.36 401.78,662.37 401.19,667.33 C400.28,672.28 400.28,672.28 399.30,677.21 C398.03,681.97 398.03,681.98 396.68,686.71 C395.11,691.10 395.11,691.10 393.46,695.46 C391.43,699.88 391.43,699.89 389.33,704.28 C387.03,708.26 387.02,708.27 384.65,712.21 C382.04,715.87 382.03,715.87 379.35,719.48 C376.44,722.79 376.43,722.79 373.47,726.05 C371.33,728.04 371.30,728.01 369.14,729.97 C368.09,730.92 368.11,730.94 367.05,731.86 C363.61,734.39 363.62,734.41 360.14,736.88 C356.50,739.00 356.49,739.00 352.80,741.05 C350.00,742.29 349.98,742.25 347.17,743.46 C346.12,743.91 346.13,743.93 345.08,744.35 C341.06,745.57 341.07,745.60 337.03,746.76 C332.90,747.55 332.89,747.55 328.74,748.25 C324.49,748.58 324.49,748.58 320.24,748.82 C315.92,748.68 315.92,748.68 311.61,748.46 C307.26,747.86 307.25,747.85 302.91,747.16 C298.56,746.11 298.55,746.10 294.22,744.96 C289.89,743.45 289.90,743.41 285.59,741.85 C284.88,741.54 284.88,741.54 284.18,741.20 "
           id="path36313" />
        <path
           d="M225.57,635.43 C225.48,633.50 225.48,633.50 225.43,631.56 C225.49,629.46 225.49,629.46 225.58,627.36 C225.77,625.54 225.77,625.54 225.99,623.72 C226.38,621.46 226.38,621.46 226.81,619.20 C227.32,617.27 227.33,617.27 227.87,615.35 C228.53,613.52 228.53,613.51 229.22,611.69 C229.82,610.38 229.84,610.38 230.45,609.08 C230.65,608.66 230.65,608.65 230.85,608.24 C231.79,606.63 231.78,606.62 232.75,605.02 C233.80,603.54 233.81,603.54 234.89,602.08 C236.07,600.73 236.07,600.73 237.28,599.41 C238.56,598.22 238.56,598.22 239.88,597.06 C241.26,596.03 241.27,596.03 242.68,595.03 C244.15,594.17 244.15,594.16 245.65,593.34 C247.33,592.61 247.33,592.62 249.02,591.93 C250.52,591.46 250.53,591.46 252.04,591.03 C253.71,590.71 253.72,590.70 255.40,590.42 C257.12,590.29 257.12,590.29 258.84,590.19 C260.59,590.25 260.59,590.25 262.34,590.34 C264.10,590.58 264.10,590.58 265.86,590.86 "
           id="path36315" />
        <path
           d="M265.86,590.86 C263.18,592.42 263.18,592.42 260.48,593.95 C256.47,596.04 256.47,596.04 252.45,598.11 C247.24,600.62 247.24,600.62 242.02,603.11 C236.44,605.68 236.44,605.68 230.85,608.24 "
           id="path36317" />
        <path
           d="M230.85,608.24 C231.70,610.93 231.70,610.93 232.54,613.63 C232.88,614.92 232.87,614.92 233.20,616.22 C233.52,617.77 233.53,617.77 233.84,619.33 C234.19,621.54 234.19,621.54 234.51,623.75 C234.64,624.99 234.64,624.99 234.75,626.22 C234.83,627.47 234.83,627.47 234.89,628.71 C234.92,629.96 234.92,629.96 234.94,631.21 C234.92,632.48 234.92,632.48 234.89,633.75 C234.82,635.04 234.82,635.04 234.75,636.33 C234.58,638.08 234.58,638.08 234.41,639.82 C234.10,642.02 234.10,642.02 233.78,644.22 C233.49,645.83 233.49,645.83 233.19,647.43 C232.87,648.96 232.87,648.96 232.53,650.49 C231.69,653.78 231.69,653.78 230.84,657.07 "
           id="path36319" />
        <path
           d="M230.84,657.07 C230.02,655.04 230.02,655.04 229.23,653.00 C228.53,650.88 228.53,650.88 227.86,648.75 C227.32,646.62 227.32,646.62 226.80,644.48 C226.41,642.33 226.41,642.33 226.04,640.17 C225.79,637.80 225.79,637.80 225.57,635.43 "
           id="path36321" />
        <path
           d="M230.84,657.07 C233.84,658.69 233.84,658.69 236.82,660.33 C238.17,661.12 238.17,661.12 239.50,661.92 C241.93,663.47 241.93,663.47 244.35,665.04 C245.45,665.81 245.45,665.82 246.55,666.60 C247.79,667.54 247.79,667.54 249.02,668.49 C250.73,669.92 250.73,669.92 252.43,671.36 C253.32,672.17 253.32,672.17 254.19,673.00 C255.03,673.84 255.03,673.83 255.87,674.68 C256.68,675.55 256.68,675.55 257.48,676.43 C258.24,677.31 258.24,677.31 258.99,678.21 C259.73,679.14 259.73,679.14 260.46,680.07 C261.17,681.05 261.17,681.05 261.88,682.02 C262.56,683.04 262.57,683.04 263.24,684.07 C264.55,686.29 264.55,686.29 265.85,688.52 "
           id="path36323" />
        <path
           d="M265.85,688.52 C264.08,688.10 264.08,688.09 262.32,687.63 C260.57,687.02 260.57,687.02 258.83,686.37 C257.10,685.58 257.09,685.58 255.38,684.76 C253.69,683.79 253.69,683.79 252.02,682.80 C250.38,681.67 250.38,681.66 248.76,680.51 C248.15,680.02 248.16,680.01 247.56,679.51 C246.59,678.72 246.59,678.72 245.63,677.92 C244.14,676.48 244.13,676.48 242.66,675.03 C241.25,673.46 241.25,673.46 239.86,671.87 C238.55,670.18 238.55,670.18 237.26,668.47 C236.54,667.40 236.55,667.39 235.84,666.31 C235.36,665.58 235.35,665.59 234.88,664.85 C233.80,662.95 233.80,662.96 232.74,661.04 C231.78,659.06 231.77,659.06 230.84,657.07 "
           id="path36325" />
        <path
           d="M260.79,508.93 C264.06,507.76 264.06,507.76 267.34,506.62 C271.36,505.40 271.35,505.37 275.39,504.22 C279.52,503.42 279.53,503.42 283.68,502.72 C287.92,502.39 287.93,502.39 292.18,502.16 C296.49,502.29 296.50,502.29 300.81,502.52 C305.16,503.12 305.17,503.12 309.50,503.81 C313.86,504.87 313.86,504.89 318.20,506.02 C319.51,506.47 319.50,506.48 320.80,506.95 C323.81,508.04 323.83,508.01 326.83,509.12 C331.09,511.08 331.10,511.08 335.33,513.11 C339.50,515.49 339.50,515.49 343.63,517.94 C347.67,520.73 347.67,520.73 351.67,523.58 C355.56,526.77 355.57,526.77 359.41,530.01 C363.10,533.53 363.10,533.54 366.72,537.11 C370.20,540.98 370.20,540.99 373.63,544.90 C375.80,547.70 375.78,547.72 377.93,550.53 C378.99,551.91 379.00,551.90 380.05,553.30 C383.00,557.75 383.02,557.75 385.93,562.23 C388.61,566.92 388.61,566.92 391.22,571.64 C393.59,576.53 393.59,576.53 395.90,581.45 C397.94,586.50 397.94,586.50 399.91,591.58 C401.61,596.76 401.61,596.77 403.24,601.97 C404.58,607.23 404.58,607.24 405.86,612.52 C406.83,617.84 406.83,617.84 407.74,623.17 C408.34,628.49 408.33,628.49 408.87,633.82 C408.98,636.09 408.95,636.09 409.04,638.36 C409.14,641.38 409.17,641.38 409.25,644.40 C409.09,649.61 409.10,649.62 408.87,654.83 C408.34,659.93 408.34,659.93 407.73,665.02 C406.83,669.97 406.83,669.98 405.84,674.91 C404.57,679.67 404.57,679.67 403.22,684.41 C401.60,688.95 401.60,688.95 399.89,693.46 C397.92,697.73 397.89,697.72 395.87,701.97 C395.64,702.38 395.63,702.38 395.40,702.78 C393.29,706.34 393.33,706.37 391.19,709.90 C388.58,713.56 388.58,713.57 385.89,717.18 C382.99,720.49 382.98,720.50 380.01,723.75 C376.84,726.69 376.83,726.69 373.59,729.56 C370.17,732.10 370.16,732.11 366.69,734.57 C363.04,736.70 363.04,736.70 359.34,738.74 C355.51,740.44 355.49,740.42 351.62,742.05 C348.36,743.22 348.36,743.22 345.08,744.35 "
           id="path36327" />
        <path
           d="M265.85,688.52 C267.60,688.80 267.60,688.80 269.37,689.05 C271.11,689.14 271.12,689.14 272.86,689.20 C274.58,689.10 274.59,689.10 276.31,688.97 C277.99,688.68 277.99,688.68 279.67,688.36 C281.30,687.89 281.31,687.89 282.93,687.39 C284.50,686.73 284.50,686.73 286.06,686.05 C287.55,685.22 287.55,685.21 289.03,684.36 C289.54,684.00 289.54,683.99 290.04,683.63 C290.93,682.98 290.94,682.99 291.83,682.32 C293.14,681.16 293.14,681.16 294.43,679.97 C295.63,678.65 295.64,678.65 296.81,677.31 C297.90,675.85 297.90,675.84 298.96,674.36 C299.92,672.76 299.92,672.76 300.85,671.15 C301.68,669.43 301.68,669.43 302.48,667.70 C303.05,666.21 303.04,666.21 303.59,664.72 C303.71,664.37 303.72,664.38 303.83,664.03 C304.37,662.11 304.38,662.11 304.90,660.18 C305.29,658.19 305.29,658.18 305.66,656.18 C305.91,654.12 305.91,654.11 306.12,652.05 C306.21,649.94 306.21,649.93 306.27,647.82 C306.21,645.68 306.21,645.68 306.12,643.53 C305.91,641.38 305.91,641.37 305.66,639.22 C305.30,637.06 305.30,637.06 304.90,634.91 C304.39,632.77 304.39,632.76 303.84,630.63 C303.18,628.52 303.18,628.52 302.49,626.42 C301.69,624.37 301.69,624.36 300.87,622.32 "
           id="path36329" />
        <path
           d="M300.87,622.32 C301.72,625.01 301.72,625.01 302.55,627.71 C302.89,629.00 302.89,629.00 303.21,630.30 C303.49,631.57 303.49,631.57 303.75,632.84 C303.98,634.09 303.98,634.09 304.19,635.34 C304.36,636.58 304.36,636.58 304.53,637.83 C304.65,639.07 304.65,639.07 304.76,640.31 C304.84,641.55 304.84,641.55 304.90,642.79 C304.93,644.04 304.93,644.04 304.95,645.29 C304.93,646.56 304.93,646.56 304.90,647.83 C304.84,649.12 304.84,649.12 304.76,650.41 C304.48,653.10 304.48,653.10 304.19,655.78 C303.98,657.18 303.98,657.19 303.75,658.59 C303.16,661.58 303.16,661.58 302.55,664.57 C301.72,667.86 301.72,667.86 300.85,671.15 "
           id="path36331" />
        <path
           d="M300.85,671.15 C298.17,672.71 298.17,672.71 295.47,674.24 C291.46,676.33 291.46,676.33 287.44,678.40 C282.23,680.91 282.23,680.91 277.01,683.40 C271.43,685.97 271.43,685.97 265.85,688.52 "
           id="path36333" />
        <path
           d="M300.84,622.25 C299.92,620.29 299.92,620.29 298.97,618.34 C298.02,616.63 298.02,616.63 297.05,614.93 C295.76,612.92 295.76,612.91 294.44,610.91 C293.16,609.20 293.15,609.20 291.84,607.51 C290.95,606.48 290.94,606.49 290.04,605.47 C289.54,604.91 289.55,604.91 289.05,604.35 C287.57,602.91 287.57,602.90 286.07,601.47 C284.52,600.16 284.52,600.16 282.94,598.87 C282.10,598.27 282.10,598.28 281.25,597.68 C280.47,597.13 280.47,597.12 279.69,596.59 C278.01,595.60 278.01,595.59 276.33,594.63 C274.61,593.81 274.61,593.80 272.88,593.01 C271.14,592.37 271.14,592.37 269.39,591.75 C267.63,591.29 267.63,591.29 265.86,590.86 "
           id="path36335" />
        <path
           d="M265.86,590.86 C268.86,592.48 268.86,592.48 271.85,594.12 C274.51,595.73 274.51,595.74 277.16,597.36 C278.48,598.24 278.48,598.24 279.78,599.13 C281.58,600.44 281.58,600.44 283.38,601.76 C284.52,602.66 284.51,602.66 285.64,603.58 C286.55,604.36 286.56,604.36 287.45,605.15 C289.18,606.80 289.18,606.80 290.89,608.47 C291.70,609.33 291.70,609.33 292.49,610.20 C293.99,612.03 293.99,612.03 295.49,613.86 C296.20,614.83 296.20,614.84 296.90,615.82 C297.58,616.84 297.59,616.83 298.26,617.86 C299.57,620.09 299.57,620.09 300.87,622.32 "
           id="path36337" />
        <path
           d="M364.69,535.14 C429.11,512.44 429.11,512.44 493.54,489.79 C495.65,489.13 495.65,489.13 497.77,488.52 C499.95,488.10 499.95,488.10 502.14,487.73 C504.37,487.56 504.38,487.56 506.61,487.43 C508.88,487.51 508.88,487.51 511.15,487.63 C513.44,487.94 513.45,487.94 515.73,488.31 C518.02,488.86 518.03,488.86 520.31,489.47 C522.58,490.26 522.59,490.26 524.85,491.10 C527.09,492.13 527.10,492.13 529.32,493.20 C531.51,494.45 531.52,494.45 533.69,495.74 C535.82,497.21 535.81,497.22 537.92,498.71 C538.50,499.18 538.49,499.18 539.06,499.66 C540.53,500.87 540.54,500.86 541.99,502.09 C543.93,503.95 543.93,503.95 545.85,505.83 C547.68,507.87 547.68,507.87 549.48,509.93 C551.18,512.13 551.19,512.13 552.86,514.35 C554.42,516.69 554.42,516.69 555.95,519.05 C557.36,521.52 557.36,521.52 558.74,524.00 C559.99,526.58 559.99,526.58 561.20,529.17 C562.28,531.83 562.28,531.83 563.32,534.50 C564.21,537.23 564.21,537.23 565.07,539.97 C565.77,542.74 565.77,542.74 566.44,545.52 C566.96,548.32 566.96,548.32 567.43,551.12 C567.75,553.92 567.75,553.93 568.03,556.73 C568.15,559.51 568.15,559.52 568.23,562.30 C568.15,565.04 568.15,565.05 568.03,567.79 C567.75,570.47 567.74,570.47 567.43,573.15 C567.09,575.01 567.07,575.01 566.72,576.87 C566.58,577.61 566.59,577.61 566.43,578.36 C565.76,580.86 565.77,580.87 565.06,583.36 C564.20,585.75 564.20,585.75 563.30,588.12 C562.27,590.37 562.26,590.37 561.19,592.60 C559.98,594.70 559.97,594.70 558.72,596.78 C557.35,598.70 557.35,598.70 555.93,600.60 C554.41,602.35 554.40,602.35 552.84,604.06 C551.17,605.61 551.17,605.61 549.46,607.12 C547.66,608.46 547.65,608.45 545.82,609.76 C545.14,610.16 545.14,610.15 544.45,610.54 C543.21,611.25 543.21,611.27 541.96,611.96 C539.94,612.84 539.94,612.84 537.90,613.70 "
           id="path36339" />
        <path
           d="M283.46,740.85 L284.18,741.20 "
           id="path36341" />
        <path
           d="M212.40,557.85 L212.37,557.94 "
           id="path36343" />
        <path
           d="M212.40,557.80 L212.40,557.85 L212.53,557.52 L212.40,557.80 "
           id="path36345" />
        <path
           d="M230.84,657.07 L261.38,646.32 L293.58,675.25 "
           id="path36347" />
        <path
           d="M230.85,608.24 L261.39,597.49 L270.09,593.17 "
           id="path36349" />
        <path
           d="M254.88,723.79 L256.16,724.75 "
           id="path36351" />
        <path
           d="M261.38,646.32 L261.39,597.49 "
           id="path36353" />
        <path
           d="M537.90,613.70 L408.37,659.29 "
           id="path36355" />
        <path
           d="M384.65,712.21 L377.11,715.36 L368.91,718.42 "
           id="path36357" />
      </g>
    </g>
    <g
       id="Actor_.1">
      <g
         style="stroke:#696969;stroke-width:1.058"
         id="g36396">
        <path
           d="M833.39,126.54 C824.67,129.63 824.67,129.63 815.93,132.69 C813.26,133.51 813.26,133.52 810.57,134.29 C807.81,134.82 807.81,134.81 805.04,135.28 C803.89,135.38 803.88,135.36 802.73,135.44 C801.05,135.55 801.05,135.57 799.37,135.66 C796.49,135.56 796.49,135.57 793.61,135.42 C790.72,135.02 790.71,135.02 787.82,134.56 C785.21,133.93 785.21,133.90 782.60,133.24 C782.31,133.16 782.31,133.17 782.02,133.09 C779.15,132.06 779.14,132.08 776.27,131.02 C773.43,129.72 773.43,129.71 770.61,128.36 C767.83,126.78 767.82,126.77 765.07,125.14 C762.38,123.28 762.38,123.28 759.71,121.38 C757.12,119.27 757.12,119.26 754.57,117.11 C752.30,114.94 752.31,114.92 750.06,112.74 C749.87,112.55 749.87,112.55 749.67,112.36 C747.37,109.76 747.35,109.78 745.07,107.16 C742.91,104.38 742.91,104.38 740.79,101.57 C739.52,99.67 739.53,99.66 738.28,97.75 C737.57,96.68 737.56,96.69 736.87,95.61 C735.10,92.48 735.09,92.49 733.34,89.34 C731.76,86.08 731.77,86.08 730.23,82.80 C729.47,80.94 729.48,80.93 728.74,79.06 C728.14,77.55 728.13,77.56 727.55,76.04 C726.42,72.59 726.41,72.59 725.33,69.12 C724.43,65.61 724.44,65.61 723.59,62.09 C723.26,60.33 723.27,60.33 722.96,58.57 C722.65,56.78 722.63,56.78 722.33,54.99 C721.94,51.44 721.93,51.44 721.58,47.89 C721.42,44.36 721.42,44.36 721.32,40.83 "
           id="path36362" />
        <path
           d="M722.18,42.47 C722.27,45.81 722.27,45.81 722.42,49.15 C722.75,52.52 722.75,52.52 723.13,55.88 C723.70,59.24 723.70,59.25 724.32,62.60 C725.13,65.94 725.13,65.94 725.98,69.27 C726.98,72.47 726.98,72.48 728.02,75.67 C729.30,78.95 729.30,78.96 730.62,82.23 C732.07,85.33 732.07,85.34 733.57,88.42 C735.17,91.32 735.17,91.32 736.81,94.19 C738.70,97.11 738.70,97.11 740.63,100.01 C742.63,102.67 742.63,102.67 744.68,105.31 C746.84,107.78 746.84,107.79 749.04,110.23 C751.34,112.49 751.34,112.50 753.67,114.73 C756.09,116.77 756.10,116.76 758.55,118.77 C759.39,119.38 759.40,119.37 760.25,119.97 C761.94,121.15 761.93,121.17 763.63,122.34 C766.24,123.88 766.23,123.89 768.87,125.39 C771.54,126.67 771.55,126.66 774.24,127.90 C775.53,128.39 775.54,128.37 776.84,128.84 C778.26,129.36 778.26,129.37 779.69,129.87 C782.43,130.58 782.43,130.59 785.18,131.26 C787.92,131.70 787.92,131.70 790.67,132.08 C793.39,132.22 793.40,132.22 796.12,132.31 C798.80,132.16 798.81,132.16 801.49,131.95 C804.11,131.51 804.11,131.49 806.73,131.01 C807.66,130.74 807.66,130.73 808.59,130.45 C810.20,129.97 810.21,129.99 811.81,129.49 C814.25,128.46 814.26,128.47 816.68,127.40 C819.02,126.11 819.02,126.11 821.32,124.76 C823.52,123.21 823.52,123.20 825.68,121.60 C827.73,119.79 827.73,119.78 829.74,117.93 C831.62,115.87 831.62,115.87 833.45,113.78 C835.15,111.50 835.15,111.49 836.80,109.18 C838.30,106.69 838.30,106.69 839.76,104.18 C841.05,101.50 841.05,101.49 842.30,98.79 C842.98,96.99 842.96,96.98 843.63,95.17 C844.02,94.13 844.03,94.13 844.40,93.08 C845.24,90.09 845.25,90.09 846.05,87.08 C846.67,83.97 846.67,83.96 847.25,80.84 C847.63,77.62 847.63,77.62 847.96,74.40 C848.09,71.61 848.07,71.61 848.17,68.81 C848.19,68.31 848.19,68.31 848.20,67.81 C848.09,64.47 848.11,64.47 847.97,61.13 C847.63,57.76 847.63,57.76 847.25,54.40 C846.68,51.04 846.68,51.04 846.06,47.68 C845.26,44.34 845.26,44.34 844.41,41.01 C843.37,37.70 843.37,37.70 842.28,34.39 C841.05,31.22 841.05,31.21 839.77,28.05 C838.32,24.95 838.32,24.95 836.82,21.86 C835.17,18.88 835.17,18.88 833.47,15.92 C831.63,13.07 831.63,13.07 829.74,10.25 C827.74,7.60 827.74,7.60 825.71,4.97 C823.52,2.47 823.52,2.47 821.29,-0.00 "
           id="path36364" />
        <path
           d="M721.32,40.83 C721.42,37.36 721.42,37.35 721.58,33.88 C721.93,30.48 721.93,30.48 722.33,27.08 C722.94,23.78 722.94,23.78 723.60,20.49 C724.44,17.32 724.44,17.32 725.34,14.16 C726.42,11.14 726.42,11.13 727.56,8.13 C728.88,5.28 728.89,5.28 730.24,2.45 C730.95,1.22 730.95,1.22 731.69,0.00 "
           id="path36366" />
        <path
           d="M722.18,42.47 C722.27,39.17 722.27,39.17 722.42,35.88 C722.76,32.66 722.75,32.66 723.14,29.44 C723.71,26.32 723.71,26.31 724.33,23.20 C725.13,20.19 725.13,20.19 725.98,17.20 C727.01,14.33 727.01,14.33 728.09,11.49 C729.33,8.79 729.33,8.78 730.63,6.11 C732.08,3.59 732.10,3.60 733.58,1.10 C733.97,0.54 733.98,0.54 734.38,0.00 "
           id="path36368" />
        <path
           d="M755.86,58.46 C755.59,56.98 755.58,56.98 755.33,55.50 C755.15,53.88 755.15,53.88 754.99,52.26 C754.94,51.02 754.94,51.02 754.90,49.78 C754.89,49.41 754.88,49.41 754.88,49.04 C754.93,47.46 754.92,47.46 754.99,45.88 C755.15,44.32 755.15,44.32 755.34,42.78 C755.61,41.27 755.61,41.27 755.91,39.77 C756.30,38.33 756.30,38.33 756.71,36.89 C757.20,35.51 757.20,35.51 757.72,34.14 C758.32,32.84 758.32,32.84 758.94,31.55 "
           id="path36370" />
        <path
           d="M758.94,31.55 C759.58,33.57 759.58,33.57 760.21,35.60 C760.46,36.56 760.46,36.56 760.70,37.54 C760.91,38.53 760.91,38.53 761.12,39.53 C761.28,40.42 761.28,40.42 761.43,41.32 C761.56,42.25 761.56,42.25 761.69,43.18 C761.72,43.55 761.72,43.55 761.76,43.93 C761.81,44.48 761.81,44.48 761.86,45.04 C761.92,45.97 761.92,45.97 761.97,46.90 C761.99,47.84 761.99,47.84 762.00,48.78 C761.99,49.73 761.99,49.73 761.97,50.68 C761.92,51.65 761.92,51.65 761.86,52.62 C761.80,53.40 761.80,53.40 761.73,54.17 C761.58,55.41 761.58,55.41 761.43,56.64 C761.29,57.61 761.29,57.61 761.13,58.57 C760.92,59.76 760.92,59.76 760.70,60.94 C760.45,62.09 760.45,62.09 760.20,63.24 C759.57,65.71 759.57,65.71 758.93,68.17 "
           id="path36372" />
        <path
           d="M758.93,68.17 C761.18,69.39 761.18,69.39 763.42,70.62 C764.43,71.21 764.43,71.21 765.43,71.81 C766.37,72.39 766.37,72.39 767.31,72.98 C768.19,73.57 768.19,73.57 769.06,74.15 C769.89,74.73 769.89,74.73 770.71,75.32 C771.49,75.91 771.49,75.91 772.27,76.49 C773.01,77.09 773.01,77.09 773.74,77.68 C774.43,78.28 774.43,78.28 775.13,78.89 C775.79,79.50 775.79,79.50 776.45,80.12 C777.08,80.75 777.08,80.75 777.70,81.38 C778.30,82.03 778.30,82.03 778.90,82.68 C779.48,83.35 779.48,83.35 780.05,84.03 C780.60,84.72 780.60,84.72 781.15,85.43 C781.68,86.15 781.68,86.15 782.21,86.89 C782.72,87.65 782.73,87.65 783.23,88.43 C784.21,90.09 784.21,90.09 785.18,91.76 "
           id="path36374" />
        <path
           d="M785.18,91.76 C783.86,91.44 783.86,91.44 782.54,91.09 C781.23,90.63 781.23,90.63 779.92,90.15 C778.63,89.56 778.62,89.56 777.34,88.94 C776.07,88.22 776.07,88.21 774.82,87.47 C773.59,86.62 773.59,86.62 772.37,85.76 C771.19,84.79 771.19,84.79 770.03,83.81 C768.90,82.74 768.90,82.73 767.80,81.64 C766.74,80.47 766.74,80.47 765.70,79.28 C764.71,78.01 764.71,78.01 763.75,76.73 C762.85,75.38 762.85,75.37 761.96,74.01 C761.15,72.59 761.15,72.59 760.35,71.15 C759.63,69.67 759.63,69.67 758.93,68.17 C758.31,66.64 758.31,66.64 757.71,65.09 C757.20,63.52 757.20,63.52 756.70,61.94 C756.27,60.20 756.27,60.20 755.86,58.46 "
           id="path36376" />
        <path
           d="M758.94,31.55 C763.01,29.69 763.01,29.69 767.07,27.82 C769.68,26.59 769.68,26.59 772.28,25.35 C773.71,24.66 773.71,24.65 775.14,23.95 C776.48,23.28 776.49,23.28 777.83,22.59 C779.30,21.83 779.30,21.83 780.76,21.05 C782.00,20.36 782.00,20.36 783.25,19.67 C784.22,19.10 784.23,19.10 785.20,18.52 "
           id="path36378" />
        <path
           d="M785.20,18.52 C787.44,19.74 787.45,19.74 789.68,20.96 C790.69,21.55 790.69,21.56 791.70,22.15 C792.71,22.79 792.71,22.79 793.72,23.43 C794.57,23.99 794.57,23.99 795.41,24.55 C796.20,25.11 796.20,25.11 796.98,25.67 C797.66,26.18 797.66,26.18 798.34,26.69 C799.17,27.36 799.17,27.36 800.00,28.03 C800.70,28.63 800.70,28.63 801.39,29.23 C802.20,29.99 802.20,29.99 803.00,30.75 C803.48,31.23 803.48,31.23 803.97,31.72 C804.57,32.37 804.57,32.37 805.17,33.02 C805.74,33.69 805.75,33.69 806.32,34.37 C806.87,35.07 806.87,35.07 807.42,35.77 C807.95,36.50 807.95,36.50 808.47,37.23 C808.99,38.00 808.99,38.00 809.50,38.77 C810.48,40.43 810.52,40.42 811.45,42.11 C812.13,44.11 812.09,44.13 812.72,46.16 C812.97,47.12 812.97,47.12 813.21,48.10 C813.42,49.05 813.42,49.05 813.62,50.00 C813.79,50.94 813.79,50.94 813.95,51.88 C814.08,52.81 814.08,52.81 814.20,53.74 C814.29,54.67 814.29,54.67 814.38,55.60 C814.43,56.53 814.43,56.53 814.48,57.46 C814.50,58.40 814.50,58.40 814.52,59.34 C814.50,60.29 814.50,60.29 814.48,61.24 C814.43,62.21 814.43,62.21 814.38,63.18 C814.29,64.17 814.29,64.17 814.19,65.16 C814.07,66.18 814.07,66.18 813.94,67.20 C813.78,68.26 813.78,68.26 813.61,69.31 C813.41,70.41 813.41,70.41 813.21,71.51 C812.96,72.65 812.97,72.65 812.71,73.79 C812.08,76.26 812.08,76.26 811.44,78.73 "
           id="path36380" />
        <path
           d="M811.44,78.73 C810.47,79.31 810.47,79.31 809.49,79.89 C808.45,80.47 808.45,80.47 807.41,81.05 C805.69,81.96 805.68,81.96 803.96,82.87 C802.67,83.52 802.67,83.52 801.38,84.17 C798.40,85.61 798.40,85.61 795.41,87.05 C793.55,87.93 793.55,87.93 791.68,88.79 C788.43,90.28 788.43,90.28 785.18,91.76 "
           id="path36382" />
        <path
           d="M785.18,91.76 C786.50,91.97 786.50,91.97 787.83,92.16 C789.14,92.23 789.14,92.23 790.45,92.27 C791.74,92.20 791.74,92.20 793.03,92.09 C794.29,91.88 794.30,91.88 795.55,91.64 C796.78,91.29 796.78,91.28 798.00,90.91 C798.17,90.84 798.17,90.84 798.34,90.76 C799.34,90.34 799.35,90.35 800.35,89.91 C801.47,89.28 801.47,89.28 802.58,88.64 C803.63,87.89 803.63,87.89 804.67,87.11 C805.66,86.24 805.66,86.24 806.62,85.35 C807.53,84.36 807.53,84.36 808.41,83.35 C809.23,82.26 809.23,82.25 810.02,81.14 C810.78,79.86 810.78,79.86 811.52,78.57 C812.11,77.36 812.11,77.36 812.67,76.14 C813.18,74.77 813.19,74.77 813.68,73.40 C814.09,71.96 814.09,71.96 814.48,70.51 C814.77,69.01 814.77,69.01 815.05,67.50 C815.23,65.97 815.23,65.96 815.39,64.42 C815.46,62.83 815.46,62.83 815.51,61.24 C815.46,59.63 815.46,59.63 815.40,58.02 C815.23,56.40 815.23,56.40 815.05,54.79 C814.77,53.17 814.77,53.17 814.48,51.55 C814.09,49.94 814.09,49.94 813.68,48.34 C813.19,46.76 813.19,46.76 812.67,45.19 C812.07,43.64 812.07,43.64 811.45,42.11 C810.75,40.61 810.75,40.62 810.03,39.13 C809.74,38.60 809.73,38.60 809.44,38.07 C808.93,37.17 808.94,37.16 808.42,36.27 C807.53,34.91 807.54,34.91 806.63,33.55 C805.67,32.27 805.67,32.27 804.69,31.00 C803.65,29.81 803.64,29.81 802.59,28.64 C801.48,27.55 801.48,27.55 800.36,26.47 C799.36,25.63 799.35,25.63 798.34,24.80 C798.18,24.66 798.18,24.66 798.01,24.52 C796.79,23.66 796.80,23.66 795.57,22.81 C794.31,22.07 794.31,22.07 793.04,21.34 C791.76,20.73 791.76,20.73 790.46,20.13 C789.28,19.69 789.27,19.70 788.08,19.27 C787.96,19.23 787.96,19.23 787.84,19.19 C786.52,18.85 786.52,18.84 785.20,18.52 C783.88,18.31 783.88,18.31 782.56,18.12 C781.25,18.06 781.25,18.05 779.94,18.01 C778.65,18.09 778.64,18.09 777.35,18.19 C776.13,18.39 776.12,18.39 774.90,18.63 C773.64,18.98 773.64,18.98 772.39,19.37 C771.21,19.86 771.21,19.86 770.04,20.37 C768.92,21.00 768.92,21.00 767.81,21.64 C766.75,22.39 766.75,22.39 765.71,23.16 C764.73,24.04 764.72,24.04 763.76,24.93 C762.86,25.92 762.86,25.92 761.97,26.93 C761.16,28.03 761.16,28.03 760.36,29.14 C759.64,30.34 759.64,30.34 758.94,31.55 "
           id="path36384" />
        <path
           d="M815.93,132.69 C818.51,131.60 818.52,131.60 821.08,130.48 C822.17,129.89 822.16,129.87 823.24,129.25 C824.61,128.48 824.62,128.50 825.97,127.70 C828.29,126.05 828.30,126.05 830.58,124.36 C832.74,122.45 832.74,122.44 834.86,120.48 C836.84,118.32 836.84,118.31 838.78,116.10 C840.57,113.70 840.56,113.69 842.31,111.25 C843.24,109.72 843.25,109.71 844.14,108.15 "
           id="path36386" />
        <path
           d="M721.32,40.83 L722.18,42.47 "
           id="path36388" />
        <path
           d="M758.93,68.17 L788.68,57.70 L811.56,78.27 "
           id="path36390" />
        <path
           d="M758.94,31.55 L788.69,21.08 L788.68,57.70 "
           id="path36392" />
        <path
           d="M788.69,21.08 L789.32,20.76 "
           id="path36394" />
      </g>
    </g>
    <g
       id="Actor_.2">
      <g
         style="stroke:#696969;stroke-width:1.058"
         id="g36403">
        <path
           d="M894.15,461.81 C891.63,458.05 891.63,458.05 889.17,454.25 C886.58,449.72 886.58,449.72 884.06,445.17 C881.77,440.45 881.77,440.45 879.55,435.70 C877.88,431.59 877.88,431.59 876.27,427.45 "
           id="path36399" />
        <path
           d="M876.27,443.83 L884.72,454.33 L893.76,464.55 "
           id="path36401" />
      </g>
    </g>
    <g
       id="Actor_.3">
      <g
         style="stroke:#696969;stroke-width:1.058"
         id="g36430">
        <path
           d="M824.98,-0.00 C827.14,2.78 827.14,2.78 829.25,5.59 C831.40,8.80 831.40,8.80 833.50,12.03 C835.52,15.55 835.52,15.56 837.49,19.10 C839.24,22.72 839.24,22.72 840.94,26.36 C842.44,30.07 842.45,30.07 843.90,33.80 C845.15,37.62 845.15,37.62 846.35,41.45 C847.39,45.61 847.39,45.61 848.37,49.78 C849.04,53.44 849.04,53.44 849.66,57.10 C850.11,61.01 850.11,61.01 850.50,64.92 C850.66,69.06 850.65,69.06 850.76,73.21 C850.65,76.80 850.65,76.81 850.50,80.40 C850.11,84.13 850.11,84.13 849.66,87.85 C848.99,91.53 849.00,91.53 848.27,95.20 C847.28,98.85 847.28,98.85 846.23,102.49 C845.08,105.68 845.08,105.69 843.88,108.86 C842.43,112.01 842.43,112.02 840.92,115.14 C839.22,118.08 839.22,118.08 837.47,120.98 C835.54,123.68 835.53,123.67 833.56,126.34 C832.81,127.21 832.80,127.20 832.03,128.06 C830.63,129.62 830.65,129.64 829.23,131.18 C826.89,133.34 826.89,133.35 824.50,135.47 C821.98,137.34 821.98,137.34 819.41,139.16 C816.73,140.73 816.72,140.73 814.00,142.24 C811.31,143.43 811.31,143.44 808.59,144.57 C805.50,145.54 805.50,145.54 802.39,146.44 C799.34,147.03 799.33,147.03 796.27,147.54 C793.14,147.79 793.14,147.79 790.01,147.96 C786.85,147.86 786.84,147.86 783.69,147.69 C780.46,147.25 780.46,147.25 777.24,146.74 C774.03,145.96 774.03,145.96 770.83,145.11 C767.65,144.00 767.65,143.99 764.48,142.83 C762.35,141.86 762.36,141.84 760.25,140.84 C759.23,140.37 759.23,140.38 758.22,139.89 C755.15,138.12 755.14,138.13 752.10,136.33 C749.12,134.28 749.12,134.27 746.18,132.17 C743.31,129.84 743.31,129.83 740.49,127.45 C737.76,124.85 737.76,124.85 735.08,122.20 C732.51,119.35 732.51,119.35 729.99,116.46 C727.61,113.39 727.60,113.38 725.26,110.28 C723.08,107.00 723.08,107.00 720.93,103.69 C718.96,100.24 718.96,100.24 717.03,96.76 C715.28,93.16 715.28,93.16 713.59,89.53 C712.08,85.81 712.08,85.81 710.62,82.07 C709.37,78.25 709.37,78.25 708.17,74.42 C707.18,70.53 707.18,70.53 706.25,66.64 C705.53,62.72 705.53,62.72 704.86,58.79 C704.41,54.87 704.41,54.87 704.02,50.95 C703.86,47.05 703.86,47.04 703.75,43.15 "
           id="path36406" />
        <path
           d="M703.75,43.15 C703.86,39.31 703.86,39.30 704.03,35.46 C704.27,33.10 704.29,33.11 704.55,30.75 C704.71,29.35 704.69,29.35 704.87,27.95 C705.54,24.31 705.53,24.30 706.25,20.67 C707.19,17.16 707.19,17.16 708.18,13.67 C709.38,10.33 709.38,10.32 710.64,7.00 C712.09,3.85 712.12,3.86 713.60,0.72 C713.81,0.36 713.81,0.36 714.03,0.00 "
           id="path36408" />
        <path
           d="M922.91,273.09 C924.20,272.86 924.20,272.86 925.49,272.66 C928.24,272.31 928.25,272.31 931.01,271.98 C932.46,271.85 932.46,271.85 933.91,271.74 C936.91,271.59 936.91,271.59 939.90,271.46 C942.94,271.45 942.94,271.45 945.98,271.47 C948.33,271.56 948.33,271.56 950.68,271.67 C952.78,271.82 952.78,271.82 954.88,271.99 C957.63,272.32 957.63,272.32 960.39,272.67 "
           id="path36410" />
        <path
           d="M661.74,-0.00 L661.70,246.15 L659.98,242.88 L660.64,242.65 "
           id="path36412" />
        <path
           d="M659.98,242.88 L660.03,0.00 "
           id="path36414" />
        <path
           d="M661.70,246.15 L892.74,292.61 L892.80,0.00 "
           id="path36416" />
        <path
           d="M703.75,43.15 L721.47,36.91 "
           id="path36418" />
        <path
           d="M892.74,292.61 L905.03,292.16 L918.42,287.45 L918.48,0.00 "
           id="path36420" />
        <path
           d="M905.03,292.16 L905.09,-0.00 "
           id="path36422" />
        <path
           d="M922.97,-0.00 L922.91,273.09 L918.45,272.19 "
           id="path36424" />
        <path
           d="M960.39,272.67 L1021.37,251.21 L1021.42,0.00 "
           id="path36426" />
        <path
           d="M960.39,272.67 L960.45,-0.00 "
           id="path36428" />
      </g>
    </g>
    <g
       id="Actor_.4"
       style="display:inline">
      <g
         style="stroke:#000000;stroke-width:1.058"
         id="g36471">
        <path
           d="m 751.45,433.38 c -0.1,-2.6 -0.12,-2.6 -0.19,-5.21 0.12,-3.84 0.11,-3.85 0.28,-7.69 0.39,-3.75 0.39,-3.76 0.84,-7.51 0.67,-3.65 0.67,-3.65 1.39,-7.28 0.6,-2.27 0.62,-2.26 1.24,-4.52 0.35,-1.24 0.33,-1.25 0.69,-2.49 1.21,-3.33 1.2,-3.34 2.46,-6.66 1.45,-3.15 1.44,-3.16 2.96,-6.28 1.94,-3.28 1.95,-3.28 3.95,-6.53 1.68,-2.35 1.68,-2.35 3.4,-4.67 2.14,-2.44 2.14,-2.44 4.33,-4.84 2.34,-2.16 2.35,-2.17 4.73,-4.28 2.53,-1.88 2.53,-1.88 5.09,-3.7 2.71,-1.57 2.72,-1.58 5.46,-3.09 2.81,-1.24 2.81,-1.24 5.64,-2.41 2.95,-0.92 2.96,-0.93 5.93,-1.78 3.05,-0.58 3.05,-0.58 6.11,-1.1 3.13,-0.24 3.14,-0.22 6.27,-0.41 1.21,0.03 1.21,0.05 2.42,0.1 1.97,0.08 1.97,0.05 3.93,0.16 3.21,0.45 3.22,0.44 6.41,0.95 3.23,0.79 3.24,0.79 6.45,1.64 3.17,1.11 3.17,1.11 6.32,2.28 3.14,1.44 3.14,1.44 6.26,2.94 3.08,1.75 3.08,1.76 6.13,3.57 2.11,1.44 2.09,1.46 4.18,2.93 0.86,0.6 0.87,0.59 1.73,1.21 2.85,2.35 2.86,2.34 5.69,4.72 2.72,2.61 2.72,2.61 5.4,5.25 2.57,2.85 2.56,2.86 5.09,5.74 1.38,1.78 1.37,1.79 2.73,3.58 1,1.3 1.02,1.29 2,2.61 2.18,3.28 2.19,3.28 4.33,6.58 1.98,3.45 1.98,3.46 3.9,6.93 1.77,3.64 1.76,3.64 3.48,7.3 1.18,2.92 1.16,2.93 2.32,5.86 0.31,0.77 0.31,0.76 0.61,1.54 1.23,3.82 1.25,3.82 2.45,7.65 0.99,3.88 0.99,3.88 1.93,7.78 0.72,3.91 0.71,3.92 1.38,7.84 0.18,1.5 0.17,1.5 0.33,3.01 0.25,2.42 0.27,2.42 0.51,4.84 0.16,3.9 0.17,3.9 0.28,7.8 -0.11,3.84 -0.11,3.84 -0.28,7.68 -0.39,3.76 -0.41,3.76 -0.84,7.51 -0.26,1.46 -0.28,1.46 -0.55,2.91 -0.42,2.2 -0.4,2.2 -0.84,4.39 -0.95,3.5 -0.94,3.51 -1.93,6.99 -1.2,3.34 -1.2,3.34 -2.46,6.66 -1.45,3.15 -1.45,3.16 -2.96,6.28 -1.69,2.93 -1.7,2.94 -3.45,5.84 -1.92,2.7 -1.92,2.7 -3.9,5.36 -2.14,2.44 -2.14,2.45 -4.34,4.84 -2.33,2.17 -2.34,2.17 -4.72,4.28 -2.51,1.87 -2.52,1.87 -5.07,3.68 -2.7,1.57 -2.7,1.58 -5.43,3.09 -2.83,1.25 -2.84,1.25 -5.69,2.44 -2.95,0.92 -2.96,0.92 -5.93,1.77 -3.05,0.58 -3.05,0.59 -6.12,1.1 -3.12,0.24 -3.13,0.22 -6.26,0.42 -0.55,-0.01 -0.55,-0.02 -1.1,-0.05 -2.63,-0.11 -2.63,-0.08 -5.26,-0.22 -3.2,-0.44 -3.21,-0.44 -6.4,-0.95 -3.21,-0.78 -3.22,-0.78 -6.41,-1.63 -3.19,-1.11 -3.19,-1.11 -6.36,-2.29 -3.14,-1.44 -3.14,-1.44 -6.26,-2.93 -3.07,-1.75 -3.07,-1.76 -6.11,-3.56 -2.98,-2.06 -2.98,-2.06 -5.93,-4.16 -2.86,-2.34 -2.86,-2.34 -5.69,-4.72 -2.72,-2.6 -2.72,-2.61 -5.41,-5.25 -2.56,-2.85 -2.56,-2.85 -5.08,-5.74 -2.39,-3.07 -2.39,-3.08 -4.73,-6.19 -2.19,-3.27 -2.19,-3.27 -4.33,-6.58 -1.98,-3.45 -1.98,-3.45 -3.91,-6.93 -1.74,-3.6 -1.74,-3.6 -3.44,-7.23 -1.51,-3.72 -1.51,-3.72 -2.96,-7.47 -1.25,-3.81 -1.25,-3.81 -2.45,-7.65 -0.99,-3.88 -0.99,-3.88 -1.93,-7.77 -0.72,-3.92 -0.72,-3.92 -1.38,-7.85 -0.45,-3.92 -0.44,-3.92 -0.84,-7.85 -0.06,-1.29 -0.05,-1.29 -0.09,-2.58"
           id="path36433" />
        <path
           d="m 776.36,436.31 c -0.16,-1.37 -0.16,-1.37 -0.3,-2.74 -0.12,-3.15 -0.13,-3.15 -0.22,-6.31 0.09,-3.11 0.09,-3.11 0.23,-6.22 0.31,-3.04 0.31,-3.04 0.68,-6.08 0.53,-2.95 0.53,-2.96 1.12,-5.9 0.76,-2.84 0.76,-2.84 1.56,-5.67 0.97,-2.7 0.97,-2.7 1.99,-5.39 1.18,-2.55 1.19,-2.55 2.4,-5.08 0.58,-1.01 0.59,-1 1.18,-2 0.8,-1.36 0.79,-1.37 1.61,-2.73 1.56,-2.18 1.56,-2.19 3.16,-4.34 1.73,-1.98 1.74,-1.98 3.51,-3.92 1.9,-1.75 1.9,-1.76 3.83,-3.47 2.06,-1.52 2.07,-1.52 4.16,-3.01 1.45,-0.85 1.46,-0.83 2.93,-1.66 0.73,-0.42 0.72,-0.43 1.46,-0.83 2.27,-0.98 2.27,-1 4.55,-1.95 2.39,-0.74 2.4,-0.74 4.8,-1.43 2.47,-0.47 2.47,-0.47 4.95,-0.89 2.53,-0.2 2.54,-0.2 5.07,-0.34 2.03,0.06 2.04,0.08 4.07,0.17 0.54,0.02 0.54,0.01 1.08,0.05 2.59,0.37 2.6,0.36 5.19,0.77 2.59,0.63 2.6,0.63 5.18,1.31 2.58,0.9 2.59,0.91 5.15,1.86 2.54,1.16 2.54,1.16 5.07,2.37 2.36,1.35 2.36,1.35 4.7,2.74 2.53,1.73 2.54,1.73 5.05,3.51 2.31,1.89 2.31,1.89 4.6,3.82 2.2,2.11 2.2,2.11 4.38,4.25 1.66,1.85 1.66,1.85 3.3,3.72 2.33,2.96 2.34,2.95 4.64,5.94 1.78,2.64 1.78,2.65 3.51,5.32 1.6,2.8 1.6,2.8 3.16,5.62 0.88,1.8 0.86,1.81 1.73,3.62 0.53,1.11 0.54,1.11 1.06,2.23 1.21,3.01 1.22,3.01 2.4,6.04 1.01,3.09 1.01,3.09 1.98,6.2 0.8,3.14 0.8,3.14 1.56,6.29 0.58,3.17 0.58,3.17 1.12,6.35 0.36,3.17 0.36,3.18 0.68,6.35 0.13,3.16 0.13,3.16 0.22,6.32 -0.09,3.11 -0.09,3.11 -0.22,6.22 -0.32,3.04 -0.32,3.04 -0.68,6.08 -0.54,2.95 -0.54,2.95 -1.13,5.9 -0.76,2.83 -0.76,2.84 -1.56,5.66 -0.97,2.71 -0.97,2.71 -1.99,5.4 -1.17,2.55 -1.17,2.55 -2.4,5.08 -1.37,2.38 -1.37,2.38 -2.79,4.73 -1.56,2.18 -1.57,2.17 -3.16,4.34 -0.3,0.34 -0.3,0.34 -0.61,0.68"
           id="path36435" />
        <path
           d="m 835.34,511.12 c -2.6,-0.63 -2.61,-0.63 -5.19,-1.32 -2.58,-0.9 -2.58,-0.9 -5.15,-1.85 -2.54,-1.16 -2.54,-1.17 -5.06,-2.38 -2.49,-1.41 -2.49,-1.42 -4.96,-2.88 -2.41,-1.66 -2.41,-1.66 -4.79,-3.36 -2.32,-1.89 -2.32,-1.9 -4.61,-3.83 -2.2,-2.1 -2.2,-2.1 -4.37,-4.24 -2.08,-2.31 -2.08,-2.31 -4.12,-4.65 -1.93,-2.49 -1.94,-2.49 -3.83,-5.01 -1.77,-2.65 -1.77,-2.65 -3.51,-5.33 -1.58,-2.77 -1.58,-2.77 -3.13,-5.56 -1.43,-2.94 -1.43,-2.94 -2.81,-5.9 -1.22,-3.01 -1.22,-3.01 -2.4,-6.05 -1.01,-3.08 -1.01,-3.09 -1.99,-6.19 -0.8,-3.14 -0.8,-3.14 -1.56,-6.3 -0.58,-3.16 -0.57,-3.17 -1.12,-6.34 -0.21,-1.81 -0.21,-1.81 -0.38,-3.62"
           id="path36437" />
        <path
           d="m 835.34,511.12 c 2.58,0.41 2.59,0.41 5.18,0.77 2.57,0.14 2.58,0.13 5.15,0.22 1.97,-0.11 1.97,-0.13 3.94,-0.26 0.56,-0.04 0.57,-0.03 1.13,-0.08 2.48,-0.44 2.48,-0.42 4.95,-0.89 2.41,-0.69 2.41,-0.69 4.8,-1.44 2.31,-0.95 2.32,-0.96 4.61,-1.97 2.2,-1.22 2.2,-1.22 4.38,-2.49 2.07,-1.47 2.07,-1.47 4.11,-2.99 1.94,-1.71 1.94,-1.71 3.83,-3.46 1.47,-1.61 1.47,-1.61 2.9,-3.24"
           id="path36439" />
        <path
           d="m 843.58,369.74 c -0.81,1.34 -0.81,1.34 -1.59,2.7 -1.21,2.53 -1.22,2.53 -2.4,5.08 -1.02,2.69 -1.02,2.69 -1.99,5.4 -0.8,2.82 -0.8,2.83 -1.56,5.67 -0.52,2.62 -0.52,2.63 -1,5.26 -0.42,3.35 -0.43,3.36 -0.8,6.71 -0.14,3.11 -0.14,3.12 -0.23,6.22 0.09,3.05 0.09,3.06 0.21,6.1 0.33,3.29 0.33,3.29 0.69,6.57 0.54,3.18 0.55,3.18 1.12,6.35 0.21,0.87 0.22,0.86 0.43,1.73 0.57,2.28 0.55,2.29 1.13,4.56 0.98,3.11 0.97,3.11 1.99,6.2 1.33,3.35 1.33,3.35 2.7,6.69 1.22,2.61 1.22,2.61 2.48,5.21 1.57,2.81 1.57,2.81 3.16,5.61 1.74,2.67 1.74,2.67 3.51,5.33 1.27,1.69 1.28,1.68 2.57,3.36 0.63,0.82 0.62,0.83 1.26,1.64 2.05,2.33 2.04,2.34 4.11,4.65 2.18,2.14 2.18,2.14 4.38,4.25 2.29,1.93 2.29,1.93 4.61,3.82 2.33,1.66 2.33,1.67 4.68,3.29 2.52,1.5 2.52,1.5 5.06,2.96 2.53,1.21 2.53,1.2 5.07,2.38 1.06,0.39 1.06,0.39 2.12,0.76"
           id="path36441" />
        <path
           d="m 588.87,427.17 -0.22,-0.41 8.57,-1.17 99.01,139.56 23.85,60.1 -104.97,-147.94 -26.24,-50.14"
           id="path36443" />
        <path
           d="m 588.65,426.76 0.04,-193.93 35,-35.17 -11.93,54.43 -14.5,14.6 -8.57,-33.86"
           id="path36445" />
        <path
           d="m 597.22,425.59 0.04,-158.9"
           id="path36447" />
        <path
           d="m 611.76,252.09 426.09,85.69 14.5,20.43 -0.04,158.9 -99.03,99.7 -257.05,-51.66"
           id="path36449" />
        <path
           d="m 623.69,197.66 36.3,-12.85"
           id="path36451" />
        <path
           d="m 623.71,197.58 36.28,7.3"
           id="path36453" />
        <path
           d="m 720.08,625.25 315.06,63.36 15.87,-5.58 105.04,-105.75 -15.86,5.58 -26.43,-50.5 -61.45,-15.25"
           id="path36455" />
        <path
           d="m 880.32,495.29 -44.98,15.83"
           id="path36457" />
        <path
           d="m 824.76,531.76 10.58,-20.64"
           id="path36459" />
        <path
           d="m 953.28,616.81 81.86,71.8 105.05,-105.75"
           id="path36461" />
        <path
           d="m 973.78,267.98 105.02,21.12 35,49.33 -61.45,19.78"
           id="path36463" />
        <path
           d="m 1016.09,253.09 105.01,21.12 -42.3,14.89 -40.95,48.68"
           id="path36465" />
        <path
           d="m 1113.76,532.36 0.04,-193.93 42.3,-14.86 -0.05,253.71"
           id="path36467" />
        <path
           d="m 1156.1,323.57 -35,-49.36"
           id="path36469" />
      </g>
    </g>
    <g
       id="Actor_.5">
      <g
         style="stroke:#696969;stroke-width:1.058"
         id="g36530">
        <path
           d="M645.82,1000.00 L645.92,520.72 "
           id="path36474" />
        <path
           d="M646.02,-0.00 L645.98,189.74 "
           id="path36476" />
        <path
           d="M650.27,526.85 L650.17,1000.00 "
           id="path36478" />
        <path
           d="M650.34,188.21 L650.37,0.00 "
           id="path36480" />
        <path
           d="M842.72,1000.00 L842.79,649.93 "
           id="path36482" />
        <path
           d="M842.83,446.13 L842.85,370.99 "
           id="path36484" />
        <path
           d="M858.08,1000.00 L858.15,653.02 "
           id="path36486" />
        <path
           d="M858.20,377.51 L858.19,469.44 "
           id="path36488" />
        <path
           d="M874.01,656.21 L873.95,1000.00 "
           id="path36490" />
        <path
           d="M874.05,482.74 L874.07,392.44 "
           id="path36492" />
        <path
           d="M876.16,1000.00 L876.23,656.65 "
           id="path36494" />
        <path
           d="M876.26,484.03 L876.28,395.33 "
           id="path36496" />
        <path
           d="M892.85,659.99 L892.78,1000.00 "
           id="path36498" />
        <path
           d="M892.89,469.11 L892.89,463.57 "
           id="path36500" />
        <path
           d="M908.14,1000.00 L908.21,663.08 "
           id="path36502" />
        <path
           d="M939.72,669.42 L939.65,1000.00 "
           id="path36504" />
        <path
           d="M951.94,1000.00 L952.00,671.89 "
           id="path36506" />
        <path
           d="M960.89,1000.00 L960.96,673.69 "
           id="path36508" />
        <path
           d="M965.25,1000.00 L965.31,674.57 "
           id="path36510" />
        <path
           d="M1157.80,1000.00 L1158.00,0.00 "
           id="path36512" />
        <path
           d="M1173.36,-0.00 L1173.15,1000.00 "
           id="path36514" />
        <path
           d="M1318.57,1000.00 L1318.77,-0.00 "
           id="path36516" />
        <path
           d="M1320.98,0.00 L1320.78,1000.00 "
           id="path36518" />
        <path
           d="M1323.11,0.00 L1322.91,1000.00 "
           id="path36520" />
        <path
           d="M1370.38,1000.00 L1370.58,0.00 "
           id="path36522" />
        <path
           d="M1374.74,1000.00 L1374.94,0.00 "
           id="path36524" />
        <path
           d="M1395.95,0.00 L1395.74,1000.00 "
           id="path36526" />
        <path
           d="M1411.31,0.00 L1411.11,1000.00 "
           id="path36528" />
      </g>
    </g>
    <g
       id="g36539">
      <g
         id="g36533" />
      <g
         id="g36535" />
      <g
         id="g36537" />
    </g>
    <g
       id="g36541" />
    <g
       id="paperID"
       visibility="hidden"
       opacity="0.00"
       transform="scale(0.000100)">
      <path
         style="stroke:#000000;stroke-width:0.500;fill:#e6e6e6;fill-rule:evenodd"
         d="M-2000.00,-2000.00L3500.00,-2000.00L3500.00,3000.00L-2000.00,3000.00zM0.00,0.00L1500.00,0.00L1500.00,1000.00L0.00,1000.00z"
         id="path36543" />
      <path
         style="fill:#000000;fill-opacity:0.118"
         d="M3.00,1000.00L1500.00,1000.00L1500.00,3.00L1503.00,3.00L1503.00,1003.00L3.00,1003.00z"
         id="path36545" />
    </g>
    <g
       id="ToolTip"
       visibility="hidden"
       opacity="0"
       transform="translate(0,0)">
      <rect
         id="ToolTipShadow"
         opacity="0.20"
         fill="black"
         stroke="none"
         x="0"
         y="0"
         width="30"
         height="8" />
      <rect
         id="ToolTipBG"
         fill="#ffffe1"
         stroke="black"
         x="0"
         y="0"
         width="30"
         height="8" />
      <text
         xml:space="preserve"
         id="ToolTipText"
         fill="black"
         x="0"
         y="0"
         width="30"
         height="8">tooltip</text>
    </g>
  </g>
</svg>
