<?xml version="1.0" encoding="UTF-8" standalone="no"?>
<svg
   width="3000.000mm"
   height="2000.000mm"
   viewBox="0.000000 0.000000 3000.000000 2000.000000"
   stroke-linejoin="round"
   stroke-linecap="round"
   fill="none"
   fill-rule="evenodd"
   version="1.1"
   id="svg31856"
   sodipodi:docname="railstop2.svg"
   inkscape:version="1.2.2 (732a01da63, 2022-12-09)"
   inkscape:export-filename="railstop1.svg"
   inkscape:export-xdpi="96"
   inkscape:export-ydpi="96"
   xmlns:inkscape="http://www.inkscape.org/namespaces/inkscape"
   xmlns:sodipodi="http://sodipodi.sourceforge.net/DTD/sodipodi-0.dtd"
   xmlns:xlink="http://www.w3.org/1999/xlink"
   xmlns="http://www.w3.org/2000/svg"
   xmlns:svg="http://www.w3.org/2000/svg">
  <sodipodi:namedview
     id="namedview31858"
     pagecolor="#ffffff"
     bordercolor="#000000"
     borderopacity="0.25"
     inkscape:showpageshadow="2"
     inkscape:pageopacity="0.0"
     inkscape:pagecheckerboard="0"
     inkscape:deskcolor="#d1d1d1"
     inkscape:document-units="mm"
     showgrid="false"
     inkscape:zoom="0.10830278"
     inkscape:cx="4284.2853"
     inkscape:cy="3776.4498"
     inkscape:window-width="1920"
     inkscape:window-height="1017"
     inkscape:window-x="-8"
     inkscape:window-y="-8"
     inkscape:window-maximized="1"
     inkscape:current-layer="g31854" />
  <desc
     id="desc31597">Composer Export</desc>
  <script
     type="text/ecmascript"
     id="script31599"><![CDATA[
if(typeof(top) != "undefined")
{
	top.ShowPaper = ShowPaper;
}
function ShowHotSpot(evt,hotspotid)
{
	var svgDocument = evt.target.ownerDocument;
	var strId = "hotspot."+hotspotid;
	var hotspot = svgDocument.getElementById(strId);
	if(hotspot)
		hotspot.setAttribute("opacity",".5");
}
function HideHotSpot(evt,hotspotid)
{
	var svgDocument = evt.target.ownerDocument;
	var strId = "hotspot."+hotspotid;
	var hotspot = svgDocument.getElementById(strId);
	if(hotspot)
		hotspot.setAttribute("opacity","0");

	var toolTip = svgDocument.getElementById('ToolTip');
	if(toolTip)
		toolTip.setAttribute("visibility","hidden");
}
function ShowToolTip(evt,hotspotid,strTooltip)
{
	if(strTooltip=="")
	return;

	// change text
	var svgDocument = evt.target.ownerDocument;
	var tiptext = svgDocument.getElementById('ToolTipText');
	if( !tiptext )
	return;
	tiptext.firstChild.nodeValue = " " + strTooltip + "  " ;

	// show tooltip before, else some refresh issue

	var toolTip = svgDocument.getElementById('ToolTip');
	if(!toolTip)
	return;

	toolTip.setAttribute("visibility","visible");
	toolTip.setAttribute("opacity",".95");

	// move tooltip
	// get viewbox

	var root = svgDocument.documentElement;
	var vbox = (root.getAttribute("viewBox")).split(' ');
	var x0 = parseFloat(vbox[0]);
	var y0 = parseFloat(vbox[1]);
	var vboxW = parseFloat(vbox[2]);
	var vboxH = parseFloat(vbox[3]);

	// get default width of svg

	var strW = root.getAttribute("width");
	var svgW = parseFloat(strW);
	if(strW.indexOf('mm') != -1)
	svgW *= 3.779;

	var strH = root.getAttribute("height");
	var svgH = parseFloat(strH);
	if(strH.indexOf('mm') != -1)
	svgH *= 3.779;  	// 96 dpi  -> 96/25.4 = 3.779

	// update the viewbox / width / height if svg is embedded in html with zoom fit all
	var realx0 = x0;
	var realy0 = y0;
	var realvboxW = vboxW;
	var realvboxH = vboxH;
	var realsvgW = svgW;
	var realsvgH = svgH;

	if ((typeof(top) == "undefined") || (typeof(top.svgctl1) != "undefined")) // embedded in html
	{
		// get window size in pxl

		svgW = window.innerWidth;
		svgH = window.innerHeight;

		// calculate real viewbox

		realsvgW = svgW;
		realsvgH = svgH;
		if((svgW / svgH) > (vboxW / vboxH))
		{
			realvboxW = (vboxH * svgW) / svgH;
			realvboxH = vboxH;
			realx0 = x0 - (realvboxW - vboxW)/2 ;
		}
		else
		{
			realvboxH = (vboxW * svgH) / svgW;
			realvboxW = vboxW;
			realy0 = y0 - (realvboxH - vboxH)/2 ;
		}
	}

	// get user zoom/pan

	var newScale = root.currentScale;
	var translation = root.currentTranslate;

	// transform pxl to user unit

	var xPos = (((evt.clientX+10- translation.x)/newScale) * realvboxW)/realsvgW  + realx0 ;
	var yPos = (((evt.clientY+5- translation.y)/newScale) * realvboxH)/ realsvgH  + realy0 ;
	var scaleForWidth = ( (1 / newScale) * realvboxH) / realsvgH;

	// move tooltip

	toolTip.setAttribute("transform", "translate(" + xPos + "," + yPos + ")" );

	// resize tooltip

	var fontsize = 12;
	tiptext.setAttribute("font-size",fontsize*scaleForWidth);
	tiptext.setAttribute("y", fontsize*scaleForWidth);
	var tipBG = svgDocument.getElementById('ToolTipBG');
	var outline = tiptext.getBBox();
	if(tipBG)
	{
		tipBG.setAttribute("stroke-width", 1*scaleForWidth);
		tipBG.setAttribute("width", Number(outline.width) );
		tipBG.setAttribute("height", Number(outline.height) + fontsize*.5*scaleForWidth );
	}
	var ToolTipShadow = svgDocument.getElementById('ToolTipShadow');
	if(ToolTipShadow)
	{
		ToolTipShadow.setAttribute("width", Number(outline.width) );
		ToolTipShadow.setAttribute("height", Number(outline.height) + fontsize*.5*scaleForWidth );
		ToolTipShadow.setAttribute("x", 3*scaleForWidth);
		ToolTipShadow.setAttribute("y", 3*scaleForWidth);
	}
}
function ShowPaper()
{
  var svgDocument = getDocument();
  var paper = svgDocument.getElementById("paperID");
  if(paper)
  {
    paper.setAttribute("transform","scale(1)");
    paper.setAttribute("opacity","1");
    paper.setAttribute("visibility","visible");
  }
  var svg = svgDocument.getRootElement();
  if(svg)
  {
    svg.setAttribute("width","3010.000mm");
    svg.setAttribute("height","2010.000mm");
    svg.setAttribute("viewBox","-5.000000 -5.000000 3010.000000 2010.000000");
  }
}
]]></script>
  <defs
     id="defs31601" />
  <a
     id="a32570">
    <g
       id="g31854"
       style="display:inline">
      <path
         style="fill:#ffffff"
         d="m 2125.36,263.75 -89.97,31.85 -87.99,88.15 -0.05,485.69 64.72,124.8 77.7,109.76 -0.17,895.89 L 0.3,1999.78 V 0.3 l 2771.42,-0.1 0.09,520.28 -33.33,12.14 -24.4,1.12 -8.55,-0.44 -22.22,-4.24 -445.5,-89.51 -107.03,-21.64 -2.45,-2.92 -2.1,-4.08 z"
         id="path31603" />
      <path
         style="fill:#696969"
         d="m 2773.32,482.85 0.37,0.53 -0.56,0.53 -0.75,36.34 -0.57,0.23 -0.09,-520.28 h 1.03 z"
         id="path31605" />
      <path
         style="fill:#696969"
         d="m 2091.43,1105.97 -0.81,893.92 h -1.02 l 0.17,-895.89 0.63,0.18 z"
         id="path31607" />
      <a
         id="a33684"
         xlink:href="https://github.com/PrintersForAnts/Micron/blob/63db615df3d73b9733f29233dc74f9066b10a95f/R1_Beta/STLs/MISC/%5Ba%5D_railstops_x8.stl"
         onclick=""
         onmouseover="this.querySelector('path').style.filter='brightness(70%)'"
         onmouseout="this.querySelector('path').style.filter='brightness(100%)'"
         target="_blank"
         style="display:inline">
        <path
           style="display:inline;fill:#97fa98;image-rendering:auto"
           d="m 2126.23,410.91 2.1,4.08 2.45,2.92 107.03,21.64 445.5,89.51 22.22,4.24 8.55,0.44 24.4,-1.12 33.33,-12.14 0.57,-0.23 0.75,-36.34 0.56,-0.53 8.27,1.47 3.14,-0.02 10.26,-1.5 9.25,-1.04 16.47,-1.02 h 23.72 l 10.22,0.47 6.26,0.55 13.33,1.51 2.68,0.5 0.36,-0.57 122.33,-43.33 -0.1,1071.02 -13.07,-2.89 -409.48,-82.32 -215.02,-43.21 -86.85,-17.36 -184.03,-259.67 -1.03,-1.79 -0.63,-0.18 -77.7,-109.76 -64.72,-124.8 0.05,-485.69 87.99,-88.15 89.97,-31.85 z"
           id="path31609"
           onmouseover=""
           onmouseout="" />
      </a>
      <path
         style="fill:#ffffff"
         d="m 2855.02,481.74 -10.22,-0.47 h -23.72 l -16.47,1.02 -9.25,1.04 -10.26,1.5 -3.14,0.02 -8.27,-1.47 -0.37,-0.53 -0.57,-482.65 227.07,0.1 0.16,440.1 -122.33,43.33 -3.04,0.07 -13.33,-1.51 -0.39,-0.4 z"
         id="path31611" />
      <path
         style="fill:#ffffff"
         d="m 2598.53,732.88 19.51,11.36 16.5,12.32 7.29,7.1 6.12,5.2 5.2,6.12 15.33,18.62 15.56,25.6 7.09,14.51 8.19,20.62 7.82,26.36 0.57,3.04 0.45,2.17 0.58,2.99 0.45,3.16 0.58,3.02 0.46,3.11 0.58,4.15 0.43,5.09 0.59,4.16 0.46,10.24 v 16.52 l -1.02,14.42 -1.04,8.2 -2.05,11.32 -2.68,9.89 -6.18,18.52 -9.56,20.27 -4.86,0.06 -20.55,-10.32 -18.42,-12.44 -14.39,-12.37 -16.48,-17.46 -12.29,-16.52 -11.46,-18.37 -10.3,-20.57 -10.32,-28.78 -6.01,-25.08 -0.09,-2.74 -0.47,-0.33 -0.45,-3.16 -0.13,-2.68 -0.47,-0.35 -0.42,-5.14 -0.14,-3.8 -0.46,-0.36 -0.45,-5.09 -0.14,-14.09 -0.43,-0.38 0.57,-17.49 1.47,-14.39 1.05,-5.19 3.28,-13.92 4.07,-13.43 5.46,-14.08 4.69,-9.71 3.16,-5.19 2.43,0.04 z"
         id="path31613" />
      <path
         style="fill:#ffffff"
         d="m 2275.46,1365.64 86.85,17.36 215.02,43.21 409.48,82.32 13.07,2.89 -0.06,488.36 -333.04,0.11 -0.35,-523.23 -0.68,523.23 h -575.13 l 0.81,-893.92 z"
         id="path31615" />
      <path
         style="fill:#696969"
         d="m 2861.28,482.29 -6.26,-0.55 5.87,0.15 z"
         id="path31617" />
      <path
         style="fill:#696969"
         d="m 2877.29,484.3 -2.68,-0.5 3.04,-0.07 z"
         id="path31619" />
      <path
         style="fill:#696969"
         d="m 2666.78,1999.89 h -1.03 l 0.68,-523.23 z"
         id="path31621" />
      <path
         style="fill:#97fa98"
         d="m 1763.49,1022.44 7.81,1.65 18.55,6.14 15.41,8.25 14.42,9.25 15.53,13.27 11.33,12.34 9.27,11.31 7.06,10.42 10.32,17.46 9.26,20.58 7.2,21.61 2.61,13.05 0.6,3 0.45,2.18 0.58,2.99 0.46,3.11 0.58,4.15 0.45,5.08 0.56,5.23 0.45,12.26 v 4.2 l -0.45,12.27 -1.61,13.43 -2.05,11.3 -2.63,10.96 -9.26,23.67 -6.19,10.27 -10.27,14.42 -9.69,9.87 -10.3,8.21 -10.77,6.73 -8.32,4.02 -325.47,114.86 -2.61,1.72 -1.64,13.4 -2.5,13.35 -1.6,8.24 -5.72,23.31 -8.26,22.61 -7.48,17.21 -14.08,25.01 -12.36,17.48 -7.11,8.33 -5.65,6.69 -16.99,15.94 -17.47,13.39 -18.04,10.76 -20.44,9.4 -33.92,11.36 -17.92,3.46 -3.41,0.94 -21.23,1.59 h -12.41 l -16.45,-1.03 -20.55,-3.1 -20.98,-4.97 -26.7,-10.33 -28.83,-14.38 -23.52,-14.55 -28.83,-21.58 -24.7,-22.63 -15.43,-16.47 -15.56,-19.42 -18.5,-26.76 -17.5,-31.89 -14.42,-34.97 -9.25,-30.87 -0.87,-4.5 -0.11,-2.7 -0.48,-0.32 -0.45,-2.18 -0.1,-2.64 -0.47,-0.32 -0.46,-2.18 -0.09,-2.64 -0.48,-0.32 -0.46,-2.19 -0.09,-2.63 -0.48,-0.33 -0.45,-2.18 -0.12,-2.65 -0.46,-0.34 -0.45,-3.16 -0.11,-2.68 -0.47,-0.34 -0.45,-3.15 -0.12,-2.68 -0.49,-0.35 -0.43,-6.16 -0.15,-5.86 -0.41,-0.39 -0.47,-5.06 -0.15,-5.87 -0.4,-0.38 v -41.08 l 2.58,-27.82 0.49,-2.11 3.1,-17.42 3.46,-16.89 9.31,-30.82 10.32,-25.69 13.36,-26.76 9.37,-15.33 15.42,-20.59 5.75,-6.6 12.34,-12.34 13.38,-11.32 17.83,-12 15.09,-8.58 25.75,-10.26 25.65,-8.25 20.3,-3.67 8.17,-1.04 15.46,-1.01 h 3.1 l 21.62,0.99 20.59,3.11 10.9,2.67 23.69,7.17 21.61,9.26 20.56,11.33 20.56,13.4 23.7,18.49 15.5,15.45 4.05,-0.73 321.7,-113.49 7.18,-2.09 10.96,-1.61 20.57,-0.54 z"
         id="path31623" />
      <path
         style="fill:#000000"
         d="m 2561.6,835.46 -0.57,-14.47 0.43,0.38 z"
         id="path31625" />
      <path
         style="fill:#000000"
         d="m 2562.65,844.71 -0.6,-4.16 0.46,0.36 z"
         id="path31627" />
      <path
         style="fill:#000000"
         d="m 2563.67,852.88 -0.6,-3.03 0.47,0.35 z"
         id="path31629" />
      <path
         style="fill:#000000"
         d="m 2564.68,859.11 -0.56,-3.07 0.47,0.33 z"
         id="path31631" />
      <path
         style="fill:#000000"
         d="m 2707.71,883.73 -0.57,-3.04 0.49,0.34 z"
         id="path31633" />
      <path
         style="fill:#000000"
         d="m 2708.74,888.89 -0.58,-2.99 0.48,0.33 z"
         id="path31635" />
      <path
         style="fill:#000000"
         d="m 2709.77,895.07 -0.58,-3.02 0.47,0.33 z"
         id="path31637" />
      <path
         style="fill:#000000"
         d="m 2710.81,902.33 -0.58,-4.15 0.45,0.34 z"
         id="path31639" />
      <path
         style="fill:#000000"
         d="m 2711.83,911.58 -0.59,-4.16 0.45,0.36 z"
         id="path31641" />
      <path
         style="fill:#000000"
         d="m 2712.29,938.34 v -16.52 l 0.41,0.38 z"
         id="path31643" />
      <path
         style="fill:#000000"
         d="m 1892.86,1170.77 -0.6,-3 0.47,0.36 z"
         id="path31645" />
      <path
         style="fill:#000000"
         d="m 1893.89,1175.94 -0.58,-2.99 0.48,0.32 z"
         id="path31647" />
      <path
         style="fill:#000000"
         d="m 1894.93,1183.2 -0.58,-4.15 0.45,0.35 z"
         id="path31649" />
      <path
         style="fill:#000000"
         d="m 1895.94,1193.51 -0.56,-5.23 0.42,0.38 z"
         id="path31651" />
      <path
         style="fill:#000000"
         d="m 1896.39,1209.97 v -4.2 l 0.46,0.41 z"
         id="path31653" />
      <path
         style="fill:#000000"
         d="m 978.2,1363.27 -0.55,-6.25 0.4,0.38 z"
         id="path31655" />
      <path
         style="fill:#000000"
         d="m 979.23,1374.58 -0.56,-6.25 0.41,0.39 z"
         id="path31657" />
      <path
         style="fill:#000000"
         d="m 980.27,1383.77 -0.61,-3.03 0.49,0.35 z"
         id="path31659" />
      <path
         style="fill:#000000"
         d="m 981.3,1389.94 -0.58,-3.02 0.47,0.34 z"
         id="path31661" />
      <path
         style="fill:#000000"
         d="m 982.33,1396.09 -0.58,-2.99 0.46,0.34 z"
         id="path31663" />
      <path
         style="fill:#000000"
         d="m 983.35,1401.23 -0.57,-2.96 0.48,0.33 z"
         id="path31665" />
      <path
         style="fill:#000000"
         d="m 984.38,1406.38 -0.57,-2.96 0.48,0.32 z"
         id="path31667" />
      <path
         style="fill:#000000"
         d="m 985.41,1411.52 -0.57,-2.96 0.47,0.32 z"
         id="path31669" />
      <path
         style="fill:#000000"
         d="m 986.45,1416.72 -0.59,-3.02 0.48,0.32 z"
         id="path31671" />
      <g
         id="Actor_.0">
        <g
           style="stroke:#000000;stroke-width:1.058"
           id="g31715">
          <path
             d="m 978.28,1361.64 c -0.36,-4.14 -0.42,-4.14 -0.73,-8.28 -0.04,-17.26 -0.12,-17.28 0.04,-34.54 1.21,-14.79 1.22,-14.81 2.71,-29.58 2.54,-14.79 2.54,-14.81 5.34,-29.55 3.8,-14.46 3.81,-14.47 7.86,-28.86 4.98,-13.8 5.03,-13.79 10.2,-27.51 4.41,-10.11 4.45,-10.09 8.96,-20.15 2.12,-4.28 2.11,-4.29 4.29,-8.52 5.81,-9.94 5.76,-9.98 11.7,-19.83 6.53,-9.15 6.54,-9.16 13.25,-18.18 7.26,-8.28 7.27,-8.3 14.7,-16.43 7.94,-7.34 7.95,-7.36 16.05,-14.53 8.52,-6.33 8.56,-6.3 17.2,-12.48 4.35,-2.56 4.39,-2.5 8.78,-5.01 4.82,-2.74 4.79,-2.81 9.64,-5.47 9.61,-4.2 9.61,-4.24 19.3,-8.26 10.02,-3.12 10.04,-3.12 20.12,-6.02 10.34,-1.98 10.36,-1.98 20.75,-3.73 10.6,-0.82 10.62,-0.75 21.24,-1.41 2.82,0.06 2.82,0.11 5.64,0.23 7.97,0.34 7.98,0.24 15.93,0.67 10.88,1.52 10.9,1.51 21.74,3.23 10.89,2.65 10.91,2.65 21.74,5.52 10.82,3.78 10.83,3.78 21.57,7.77 10.66,4.88 10.67,4.89 21.25,9.96 8.98,5.11 8.94,5.2 17.88,10.4 1.47,0.86 1.48,0.84 2.93,1.72 10.03,7.01 10.08,6.95 20.04,14.06 9.71,7.92 9.72,7.93 19.3,16.01 9.29,8.89 9.29,8.9 18.45,17.93 8.65,9.62 8.65,9.63 17.15,19.37 8.02,10.32 8.02,10.33 15.89,20.76 7.5,11.23 7.5,11.23 14.85,22.56 6.7,11.7 6.63,11.75 13.25,23.51 0.4,0.82 0.39,0.83 0.79,1.65 5.44,11.44 5.52,11.4 10.89,22.88 5.1,12.63 5.11,12.63 10.04,25.33 4.25,12.95 4.25,12.96 8.33,25.96 3.35,13.17 3.33,13.18 6.53,26.38 1.54,8.28 1.47,8.29 2.94,16.58 0.89,5.02 0.93,5.01 1.77,10.04 1.47,13.3 1.51,13.31 2.84,26.63 0.56,13.22 0.56,13.23 0.94,26.45 -0.39,13.03 -0.45,13.04 -0.96,26.07 -0.22,2.26 -0.25,2.26 -0.5,4.52 -1.17,10.49 -1.08,10.5 -2.34,20.97 -2.27,12.37 -2.26,12.38 -4.72,24.72 -3.17,11.89 -3.17,11.91 -6.55,23.75 -4.06,11.34 -4.07,11.35 -8.33,22.61 -4.93,10.69 -4.93,10.7 -10.05,21.3 -5.75,9.96 -5.76,9.97 -11.7,19.82 -6.53,9.15 -6.53,9.17 -13.24,18.19 -7.3,8.32 -7.32,8.33 -14.79,16.49 -7.9,7.31 -7.91,7.33 -15.97,14.46 -8.56,6.36 -8.59,6.33 -17.27,12.53 -3.85,2.28 -3.88,2.22 -7.77,4.43 -5.29,3.01 -5.25,3.08 -10.57,6.01 -9.62,4.2 -9.62,4.24 -19.31,8.25 -10.01,3.12 -10.03,3.13 -20.1,6.02 -10.35,1.98 -10.37,1.98 -20.76,3.73 -10.61,0.83 -10.62,0.83 -21.25,1.42 -10.78,-0.34 -10.8,-0.34 -21.58,-0.91 -10.87,-1.5 -10.89,-1.5 -21.73,-3.22 -10.89,-2.65 -10.9,-2.66 -21.74,-5.52 -10.81,-3.78 -10.82,-3.8 -21.57,-7.77 -9.96,-4.46 -9.96,-4.47 -19.84,-9.1 -12.15,-6.57 -12.15,-6.58 -24.21,-13.3 -8.52,-5.44 -8.52,-5.45 -16.96,-11.02 -11.23,-8.27 -11.25,-8.25 -22.38,-16.65 -7.23,-6.23 -7.19,-6.29 -14.33,-12.62 -7.58,-7.03 -7.61,-7 -15.11,-14.11 -7.11,-7.53 -7.11,-7.54 -14.11,-15.17 -6.56,-8.02 -6.55,-8.04 -13.02,-16.15 -6.15,-8.38 -6.14,-8.39 -12.22,-16.82 -3.66,-5.47 -3.67,-5.47 -7.26,-10.99 -5.52,-9.57 -5.5,-9.59 -10.96,-19.2 -3.15,-5.8 -3.2,-5.78 -6.26,-11.61 -4.76,-10.76 -4.71,-10.79 -9.39,-21.59 -2.56,-6.08 -2.62,-6.05 -5.09,-12.16 -3.81,-11.91 -3.74,-11.94 -7.46,-23.88 -1.87,-6.31 -1.94,-6.29 -3.72,-12.62 -2.65,-12.95 -2.6,-12.96 -5.14,-25.93 -1.08,-6.46 -1.11,-6.45 -2.11,-12.92 -0.91,-9.64 -0.86,-9.65 -1.71,-19.29"
             id="path31673" />
          <path
             d="m 1010.6,1399.71 c -0.57,-5.41 -0.62,-5.4 -1.15,-10.81 -0.3,-6.96 -0.31,-6.96 -0.51,-13.93 0.2,-6.85 0.2,-6.86 0.51,-13.72 0.7,-6.71 0.7,-6.71 1.5,-13.41 1.19,-6.51 1.19,-6.52 2.48,-13.01 1.67,-6.26 1.67,-6.27 3.45,-12.5 2.14,-5.97 2.15,-5.97 4.38,-11.9 1.7,-3.69 1.74,-3.68 3.47,-7.36 0.91,-1.92 0.89,-1.94 1.82,-3.85 3.05,-5.23 3.03,-5.25 6.15,-10.43 3.44,-4.82 3.45,-4.83 6.98,-9.58 3.83,-4.36 3.83,-4.36 7.74,-8.64 4.18,-3.87 4.19,-3.87 8.45,-7.65 4.59,-3.4 4.6,-3.4 9.26,-6.7 4.71,-2.74 4.72,-2.75 9.49,-5.39 5.05,-2.22 5.06,-2.23 10.15,-4.34 5.27,-1.64 5.28,-1.65 10.59,-3.17 5.44,-1.04 5.45,-1.04 10.92,-1.96 5.58,-0.44 5.59,-0.43 11.18,-0.75 5.23,0.17 5.24,0.17 10.47,0.44 6.17,0.82 6.18,0.81 12.32,1.74 5.74,1.39 5.74,1.4 11.45,2.9 5.71,2 5.72,2 11.38,4.11 5.89,2.72 5.89,2.73 11.73,5.56 5.2,2.96 5.2,2.97 10.34,6.02 5.11,3.52 5.12,3.53 10.17,7.13 5.32,4.32 5.33,4.32 10.57,8.73 5.01,4.79 5.01,4.8 9.94,9.68 4.43,4.93 4.44,4.94 8.8,9.94 4.26,5.49 4.26,5.49 8.44,11.04 3.91,5.85 3.91,5.86 7.74,11.76 3.53,6.16 3.52,6.17 6.97,12.38 2.21,4.53 2.17,4.55 4.34,9.1 0.91,1.9 0.93,1.9 1.81,3.81 2.66,6.65 2.69,6.65 5.29,13.33 2.23,6.81 2.23,6.82 4.38,13.66 1.76,6.93 1.75,6.94 3.44,13.89 0.79,4.29 0.76,4.29 1.52,8.59 0.48,2.71 0.5,2.71 0.95,5.42 0.78,7 0.8,7 1.5,14.01 0.29,6.96 0.29,6.96 0.49,13.92 -0.2,6.86 -0.2,6.87 -0.5,13.73 -0.56,5.46 -0.61,5.45 -1.22,10.91 -0.14,1.25 -0.12,1.25 -0.28,2.5 -1.22,6.51 -1.19,6.52 -2.48,13.01 -1.67,6.26 -1.67,6.27 -3.44,12.51 -2.15,5.96 -2.15,5.97 -4.39,11.89 -2.6,5.63 -2.6,5.64 -5.29,11.21 -3.03,5.24 -3.03,5.25 -6.16,10.43 -3.44,4.82 -3.44,4.83 -6.97,9.57 -3.82,4.36 -3.83,4.37 -7.74,8.65 -4.18,3.87 -4.19,3.87 -8.44,7.65 -4.51,3.34 -4.52,3.35 -9.09,6.59 -4.8,2.8 -4.8,2.81 -9.66,5.49 -5.05,2.23 -5.06,2.24 -10.16,4.35 -5.27,1.64 -5.28,1.65 -10.58,3.17 -5.45,1.04 -5.46,1.03 -10.93,1.96 -4.07,0.32 -4.08,0.27 -8.16,0.55 -1.46,0.09 -1.46,0.12 -2.92,0.19 -5.73,-0.21 -5.74,-0.18 -11.46,-0.47 -5.72,-0.79 -5.73,-0.79 -11.44,-1.7 -5.73,-1.39 -5.74,-1.4 -11.44,-2.9 -5.69,-1.99 -5.7,-1.99 -11.36,-4.09 -5.61,-2.57 -5.61,-2.57 -11.18,-5.24 -5.48,-3.13 -5.48,-3.14 -10.91,-6.36 -5.32,-3.67 -5.33,-3.67 -10.58,-7.42 -5.12,-4.18 -5.12,-4.18 -10.17,-8.43 -4.86,-4.65 -4.86,-4.66 -9.65,-9.38 -4.57,-5.09 -4.58,-5.09 -9.08,-10.25 -4.26,-5.49 -4.26,-5.49 -8.44,-11.04 -3.91,-5.85 -3.91,-5.86 -7.73,-11.76 -3.53,-6.16 -3.53,-6.17 -6.98,-12.38 -3.11,-6.43 -3.12,-6.43 -6.14,-12.9 -2.69,-6.65 -2.69,-6.66 -5.29,-13.34 -2.24,-6.82 -2.24,-6.82 -4.39,-13.66 -1.72,-6.75 -1.72,-6.76 -3.35,-13.53 -1.33,-7.17 -1.3,-7.18 -2.57,-14.36 -0.18,-1.61 -0.16,-1.61 -0.33,-3.21"
             id="path31675" />
          <path
             d="m 1039.77,1393.85 c 0.43,4.39 0.44,4.4 0.94,8.78 0.91,5.36 0.91,5.37 1.89,10.71 1.29,5.36 1.29,5.36 2.66,10.69 1.64,5.27 1.65,5.28 3.36,10.52 2,5.15 2,5.15 4.07,10.27 2.33,4.98 2.34,4.98 4.74,9.93 2.65,4.78 2.65,4.78 5.37,9.53 2.94,4.54 2.94,4.55 5.95,9.05 3.22,4.27 3.22,4.27 6.5,8.5 3.47,3.97 3.47,3.97 6.99,7.89 3.69,3.64 3.7,3.63 7.44,7.22 2.98,2.52 3.01,2.5 6.02,5 0.9,0.74 0.89,0.76 1.79,1.49 4.07,2.86 4.05,2.89 8.14,5.71 4.19,2.48 4.19,2.48 8.42,4.89 4.28,2.06 4.28,2.06 8.6,4.04 4.36,1.61 4.36,1.62 8.75,3.15 4.39,1.16 4.39,1.16 8.8,2.24 4.4,0.69 4.4,0.69 8.81,1.3 4.1,0.22 4.11,0.22 8.22,0.35 4.56,-0.23 4.57,-0.23 9.13,-0.56 4.23,-0.71 4.23,-0.71 8.44,-1.52 4.06,-1.16 4.07,-1.17 8.1,-2.42 3.93,-1.63 3.94,-1.63 7.83,-3.35 3.74,-2.07 3.75,-2.07 7.44,-4.22 3.52,-2.5 3.51,-2.53 6.99,-5.08 0.95,-0.83 0.94,-0.85 1.87,-1.69 2.32,-2.1 2.35,-2.08 4.64,-4.2 3,-3.3 3.01,-3.3 5.95,-6.66 2.72,-3.65 2.72,-3.66 5.37,-7.37 2.41,-3.99 2.41,-3.99 4.74,-8.03"
             id="path31677" />
          <path
             d="m 1227.73,1480.01 c -6.54,3.81 -6.55,3.81 -13.13,7.55 -9.62,5.04 -9.63,5.04 -19.29,10.02 -11.7,5.68 -11.7,5.67 -23.43,11.3 -15.83,7.31 -15.83,7.31 -31.68,14.58"
             id="path31679" />
          <path
             d="m 1140.2,1523.46 c -3.23,-5.58 -3.23,-5.58 -6.51,-11.14 -1.68,-2.57 -1.69,-2.56 -3.4,-5.12 -1.76,-2.44 -1.76,-2.44 -3.54,-4.87 -1.82,-2.34 -1.82,-2.35 -3.67,-4.67 -3.14,-3.6 -3.13,-3.6 -6.3,-7.18 -2.84,-2.94 -2.84,-2.93 -5.7,-5.84 -2.19,-2.07 -2.2,-2.06 -4.41,-4.1 -2.54,-2.22 -2.54,-2.22 -5.11,-4.41 -4.78,-3.76 -4.77,-3.77 -9.59,-7.48 -5.66,-3.93 -5.66,-3.93 -11.36,-7.79 -6.46,-3.98 -6.46,-3.98 -12.96,-7.88 -7.46,-4.12 -7.46,-4.12 -14.96,-8.16"
             id="path31681" />
          <path
             d="m 1052.69,1444.82 c 2.16,-8.22 2.16,-8.23 4.24,-16.47 1.54,-7.45 1.54,-7.46 3,-14.93 1.01,-6.91 0.99,-6.92 1.93,-13.84 0.33,-3.3 0.32,-3.3 0.6,-6.6 0.19,-3.23 0.19,-3.23 0.36,-6.46 0.07,-3.17 0.07,-3.17 0.11,-6.34 -0.06,-3.41 -0.04,-3.42 -0.14,-6.83 -0.43,-5.85 -0.43,-5.86 -0.9,-11.71 -0.4,-3.17 -0.42,-3.17 -0.85,-6.34 -0.54,-3.13 -0.53,-3.13 -1.1,-6.26 -1.22,-5.42 -1.2,-5.43 -2.49,-10.83 -2.32,-7.75 -2.32,-7.75 -4.73,-15.47"
             id="path31683" />
          <path
             d="m 1052.72,1322.74 c 2.31,-4 2.31,-4 4.69,-7.95 2.67,-3.75 2.67,-3.76 5.41,-7.46 2.95,-3.35 2.95,-3.36 5.97,-6.65 3.17,-2.93 3.17,-2.94 6.41,-5.8 3.51,-2.62 3.51,-2.62 7.08,-5.16 3.68,-2.15 3.69,-2.15 7.41,-4.21 3.9,-1.73 3.91,-1.73 7.85,-3.37 4.05,-1.26 4.06,-1.26 8.15,-2.43 4.19,-0.8 4.2,-0.81 8.4,-1.51 4.3,-0.34 4.31,-0.34 8.61,-0.58 4.37,0.14 4.37,0.14 8.74,0.37 4.41,0.6 4.42,0.61 8.81,1.3 4.41,1.08 4.42,1.08 8.81,2.24 4.38,1.53 4.38,1.53 8.74,3.15 4.31,1.98 4.32,1.98 8.6,4.03 4.23,2.41 4.23,2.42 8.41,4.9 2.95,2.02 2.93,2.05 5.86,4.11 1.14,0.8 1.15,0.79 2.28,1.6 3.93,3.23 3.94,3.22 7.83,6.49 3.76,3.6 3.76,3.6 7.46,7.26 3.51,3.9 3.52,3.9 6.97,7.85 3.28,4.23 3.27,4.24 6.5,8.51 1.95,2.91 1.92,2.93 3.85,5.86 1.05,1.59 1.07,1.58 2.1,3.18 2.7,4.76 2.71,4.75 5.36,9.53 2.3,4.77 2.3,4.77 4.52,9.57"
             id="path31685" />
          <path
             d="m 1227.54,1357.57 c -3.12,-5.39 -3.13,-5.4 -6.29,-10.77 -1.69,-2.57 -1.7,-2.56 -3.41,-5.12 -1.76,-2.44 -1.76,-2.44 -3.53,-4.87 -1.83,-2.35 -1.83,-2.35 -3.67,-4.67 -2.44,-2.83 -2.43,-2.84 -4.89,-5.64 -3.54,-3.71 -3.55,-3.71 -7.12,-7.38 -2.19,-2.07 -2.19,-2.06 -4.4,-4.1 -2.38,-2.08 -2.38,-2.09 -4.78,-4.14 -4.95,-3.89 -4.94,-3.91 -9.93,-7.75 -5.65,-3.93 -5.66,-3.93 -11.36,-7.8 -6.46,-3.97 -6.46,-3.97 -12.96,-7.87 -7.46,-4.12 -7.46,-4.12 -14.95,-8.17"
             id="path31687" />
          <path
             d="m 1140.25,1279.29 c -6.71,3.9 -6.71,3.9 -13.46,7.73 -9.82,5.13 -9.82,5.13 -19.68,10.2 -13.01,6.29 -13.02,6.28 -26.05,12.51 -14.16,6.53 -14.16,6.53 -28.34,13.01"
             id="path31689" />
          <path
             d="m 1052.72,1322.74 c -2.07,4.29 -2.08,4.29 -4.07,8.62 -1.73,4.57 -1.73,4.57 -3.38,9.17 -1.37,4.79 -1.36,4.8 -2.65,9.62 -0.99,5 -1,5 -1.91,10.01 -0.62,5.16 -0.62,5.16 -1.15,10.33 -0.24,5.28 -0.24,5.28 -0.4,10.56 0.16,5.36 0.18,5.36 0.39,10.72 0.1,1.04 0.1,1.04 0.22,2.08"
             id="path31691" />
          <path
             d="m 1127.93,1074.35 c 7.98,-2.87 7.99,-2.87 16,-5.65 10.04,-3.05 10.03,-3.12 20.11,-6.02 10.35,-1.98 10.37,-1.98 20.76,-3.73 10.6,-0.82 10.62,-0.82 21.24,-1.41 10.78,0.33 10.8,0.34 21.57,0.9 10.88,1.5 10.9,1.51 21.74,3.23 10.89,2.65 10.91,2.66 21.74,5.52 10.48,3.66 10.5,3.66 20.9,7.52 11,5.01 11.01,5.01 21.92,10.21 10.42,5.94 10.43,5.95 20.75,12.08 10.1,6.96 10.11,6.97 20.1,14.1 9.84,8.06 9.85,8.07 19.57,16.28 9.11,8.71 9.12,8.72 18.09,17.57 8.69,9.66 8.68,9.68 17.24,19.45 4.94,6.34 4.88,6.38 9.76,12.76 3.14,4.12 3.18,4.09 6.28,8.23 7.39,11.14 7.43,11.12 14.7,22.33 6.71,11.72 6.71,11.72 13.25,23.53 5.92,12.21 5.93,12.22 11.69,24.51 5.1,12.64 5.1,12.64 10.04,25.34 4.24,12.95 4.24,12.96 8.32,25.96 3.35,13.17 3.35,13.18 6.53,26.39 2.44,13.28 2.44,13.29 4.71,26.61 1.5,13.3 1.47,13.31 2.83,26.63 0.3,6.5 0.24,6.51 0.47,13.02 0.24,6.71 0.31,6.71 0.48,13.43 -0.41,13.04 -0.38,13.05 -0.96,26.07 -1.32,12.75 -1.32,12.76 -2.84,25.49 -2.26,12.37 -2.26,12.38 -4.71,24.72 -3.18,11.9 -3.18,11.91 -6.56,23.75 -4.06,11.34 -4.07,11.35 -8.33,22.61 -4.92,10.69 -4.93,10.7 -10.05,21.3 -5.31,9.21 -5.4,9.16 -10.81,18.32 -0.44,0.75 -0.43,0.76 -0.88,1.5 -6.62,9.1 -6.54,9.17 -13.25,18.19 -7.27,8.28 -7.28,8.29 -14.71,16.42 -7.94,7.35 -7.96,7.36 -16.05,14.54 -8.55,6.35 -8.57,6.36 -17.26,12.53 -9.11,5.31 -9.12,5.32 -18.35,10.43 -9.6,4.23 -9.63,4.18 -19.31,8.26 -7.87,2.83 -7.88,2.83 -15.79,5.55"
             id="path31693" />
          <path
             d="m 1227.54,1357.57 c 0.28,0.56 0.28,0.56 0.53,1.14 1.97,6.35 1.97,6.35 3.91,12.71 0.84,3.23 0.83,3.23 1.64,6.47 0.77,3.58 0.77,3.58 1.5,7.17 0.72,4.39 0.73,4.39 1.41,8.79 0.49,4.39 0.49,4.39 0.94,8.79 0.21,3.23 0.21,3.23 0.39,6.47 0.07,3.13 0.07,3.13 0.11,6.26 -0.08,3.88 -0.07,3.88 -0.19,7.76 -0.42,5.86 -0.4,5.86 -0.88,11.71 -0.93,6.9 -0.92,6.9 -1.93,13.78 -1.47,7.47 -1.47,7.48 -3.02,14.93 -2.07,8.24 -2.07,8.25 -4.22,16.46"
             id="path31695" />
          <path
             d="m 1227.73,1480.01 c 2.07,-4.29 2.08,-4.29 4.08,-8.62 1.72,-4.57 1.73,-4.57 3.37,-9.16 1.37,-4.8 1.37,-4.81 2.65,-9.63 1,-4.99 1,-5 1.91,-10.01 0.62,-5.16 0.62,-5.16 1.16,-10.33 0.23,-5.28 0.22,-5.28 0.38,-10.56 -0.15,-5.36 -0.18,-5.36 -0.38,-10.72 -0.12,-1.24 -0.13,-1.24 -0.26,-2.49 -0.45,-4.15 -0.42,-4.15 -0.9,-8.3 -0.91,-5.39 -0.91,-5.4 -1.9,-10.78 -1.28,-5.35 -1.28,-5.36 -2.64,-10.69 -1.65,-5.27 -1.66,-5.27 -3.38,-10.52 -1.84,-4.76 -1.84,-4.76 -3.75,-9.49"
             id="path31697" />
          <path
             d="m 1387.32,1139.99 c 161.04,-56.74 161.04,-56.74 322.12,-113.38 5.27,-1.63 5.27,-1.65 10.58,-3.17 5.44,-1.04 5.45,-1.04 10.92,-1.96 5.58,-0.44 5.59,-0.44 11.19,-0.75 5.67,0.18 5.68,0.18 11.35,0.48 5.72,0.79 5.73,0.79 11.44,1.7 5.73,1.39 5.74,1.39 11.44,2.9 5.7,1.99 5.7,1.99 11.36,4.09 5.61,2.57 5.62,2.57 11.18,5.24 5.48,3.13 5.49,3.14 10.91,6.36 5.32,3.66 5.32,3.68 10.58,7.42 3.19,2.59 3.17,2.62 6.33,5.25 1.92,1.59 1.94,1.57 3.83,3.18 4.85,4.67 4.87,4.66 9.66,9.38 4.58,5.09 4.58,5.09 9.08,10.25 4.26,5.49 4.27,5.49 8.45,11.05 3.9,5.84 3.91,5.85 7.73,11.75 3.53,6.16 3.53,6.17 6.97,12.38 3.12,6.43 3.12,6.43 6.15,12.9 2.69,6.65 2.69,6.65 5.29,13.34 2.23,6.81 2.23,6.81 4.38,13.66 1.76,6.93 1.76,6.93 3.43,13.89 1.29,6.99 1.29,6.99 2.48,14 0.8,7 0.8,7.01 1.5,14.02 0.29,6.96 0.29,6.96 0.49,13.92 -0.2,6.86 -0.2,6.87 -0.5,13.72 -0.7,6.72 -0.7,6.72 -1.5,13.42 -1.13,6.21 -1.13,6.22 -2.36,12.41 -1.73,6.56 -1.77,6.55 -3.56,13.1 -0.27,0.77 -0.28,0.77 -0.56,1.54 -1.92,5.18 -1.87,5.2 -3.83,10.36 -2.59,5.62 -2.59,5.63 -5.29,11.21 -3.03,5.24 -3.03,5.25 -6.16,10.43 -3.44,4.82 -3.44,4.82 -6.97,9.57 -3.82,4.36 -3.83,4.37 -7.74,8.65 -4.18,3.86 -4.18,3.87 -8.44,7.65 -4.51,3.34 -4.53,3.32 -9.1,6.59 -1.6,0.95 -1.61,0.92 -3.23,1.85 -3.21,1.82 -3.19,1.87 -6.42,3.64 -5.06,2.22 -5.06,2.22 -10.16,4.35"
             id="path31699" />
          <path
             d="m 1052.69,1444.82 76.35,-26.88 0.02,-122.08 -76.34,26.88"
             id="path31701" />
          <path
             d="m 1115.27,1613.47 -1.99,-1.48"
             id="path31703" />
          <path
             d="m 1129.04,1417.94 80.49,72.34"
             id="path31705" />
          <path
             d="m 1129.06,1295.86 21.76,-10.79"
             id="path31707" />
          <path
             d="m 1820.34,1336.38 -323.82,113.98"
             id="path31709" />
          <path
             d="m 1397.88,1598.19 20.48,-7.64 17.18,-7.19 -2.2,0.83"
             id="path31711" />
          <path
             d="m 1437.21,1582.66 -1.67,0.7"
             id="path31713" />
        </g>
      </g>
      <g
         id="Actor_.1">
        <g
           style="stroke:#696969;stroke-width:1.058"
           id="g31732">
          <path
             d="m 2585.95,72.52 c -2.24,3.91 -2.24,3.91 -4.57,7.76 -4.38,6.09 -4.37,6.11 -8.84,12.12 -4.85,5.53 -4.85,5.53 -9.81,10.96 -5.29,4.89 -5.33,4.86 -10.69,9.68 -1.58,1.19 -1.6,1.17 -3.2,2.33 -4.16,3.01 -4.13,3.07 -8.32,6.03 -6.06,3.52 -6.06,3.54 -12.2,6.94 -6.41,2.83 -6.44,2.77 -12.9,5.52 -0.87,0.27 -0.87,0.26 -1.75,0.52 -5.82,1.74 -5.81,1.82 -11.65,3.49 -6.9,1.31 -6.91,1.32 -13.84,2.48 -7.07,0.55 -7.08,0.54 -14.17,0.95 -5.07,-0.15 -5.07,-0.21 -10.14,-0.43 -2.12,-0.09 -2.12,-0.05 -4.24,-0.18 -7.25,-1.04 -7.26,-1 -14.49,-2.15 -7.26,-1.76 -7.25,-1.82 -14.49,-3.68 -0.97,-0.33 -0.97,-0.34 -1.94,-0.69 -6.22,-2.24 -6.24,-2.18 -12.44,-4.49 -7.11,-3.25 -7.12,-3.25 -14.16,-6.63 -6.95,-3.97 -6.95,-3.97 -13.83,-8.05 -6.19,-4.26 -6.15,-4.32 -12.31,-8.63 -0.55,-0.39 -0.55,-0.38 -1.1,-0.78 -6.44,-5.33 -6.48,-5.29 -12.86,-10.68 -6.16,-5.89 -6.15,-5.9 -12.23,-11.87 -3.05,-3.37 -3.02,-3.4 -6.03,-6.8 -2.74,-3.09 -2.78,-3.07 -5.48,-6.19 -5.38,-6.96 -5.4,-6.95 -10.7,-13.99 -4.95,-7.4 -4.95,-7.41 -9.8,-14.89 -4.46,-7.8 -4.46,-7.81 -8.82,-15.68 -3.95,-8.14 -3.94,-8.15 -7.79,-16.34 -1.85,-4.56 -1.86,-4.56 -3.63,-9.15"
             id="path31718" />
          <path
             d="m 2299.08,0 c 1.49,3.87 1.49,3.87 3.05,7.71 3.65,7.76 3.64,7.77 7.38,15.49 4.13,7.46 4.14,7.46 8.38,14.87 4.58,7.07 4.58,7.08 9.27,14.09 5.01,6.66 5.01,6.66 10.12,13.25 5.4,6.19 5.41,6.2 10.9,12.3 5.75,5.67 5.76,5.67 11.59,11.25 6.06,5.11 6.06,5.11 12.2,10.12 6.3,4.5 6.31,4.51 12.69,8.91 6.52,3.86 6.52,3.87 13.11,7.62 6.67,3.21 6.68,3.21 13.41,6.29 5.54,2.07 5.57,2.01 11.13,4.02 1.25,0.44 1.24,0.47 2.49,0.89 6.86,1.77 6.86,1.82 13.74,3.49 6.84,1.09 6.85,1.09 13.72,2.04 6.81,0.36 6.82,0.36 13.63,0.57 6.71,-0.38 6.72,-0.38 13.42,-0.9 6.56,-1.1 6.57,-1.1 13.1,-2.35 6.37,-1.83 6.38,-1.83 12.7,-3.8 5.77,-2.39 5.75,-2.46 11.49,-4.91 0.35,-0.16 0.36,-0.15 0.7,-0.31 5.81,-3.28 5.84,-3.23 11.6,-6.59 5.49,-3.89 5.5,-3.9 10.9,-7.91 5.11,-4.53 5.12,-4.54 10.14,-9.18 4.69,-5.13 4.7,-5.14 9.29,-10.37 4.23,-5.7 4.24,-5.71 8.36,-11.49 3.75,-6.22 3.76,-6.23 7.4,-12.52 3.23,-6.69 3.23,-6.7 6.34,-13.45 2.69,-7.11 2.69,-7.12 5.26,-14.28 2.13,-7.48 2.13,-7.48 4.14,-15 1.55,-7.79 1.51,-7.8 2.98,-15.61 0.26,-2.12 0.26,-2.12 0.47,-4.24"
             id="path31720" />
          <path
             d="m 2389.58,0 c 2.73,3.15 2.73,3.15 5.5,6.26 2.77,2.72 2.77,2.72 5.58,5.4 2.91,2.46 2.91,2.46 5.86,4.87 3.04,2.17 3.04,2.17 6.11,4.29 3.14,1.86 3.14,1.86 6.3,3.67 3.22,1.54 3.22,1.54 6.47,3.03 3.26,1.21 3.27,1.21 6.55,2.36 3.29,0.87 3.3,0.87 6.6,1.67"
             id="path31722" />
          <path
             d="m 2438.55,31.55 c 5.34,-2.42 5.34,-2.42 10.67,-4.85 5.86,-2.71 5.86,-2.71 11.72,-5.43 5.49,-2.6 5.48,-2.6 10.96,-5.21 3.58,-1.74 3.58,-1.74 7.15,-3.49 3.22,-1.62 3.22,-1.62 6.44,-3.25 2.94,-1.53 2.94,-1.53 5.87,-3.07 3.03,-1.66 3.04,-1.65 6.07,-3.32 2.52,-1.46 2.52,-1.46 5.03,-2.93"
             id="path31724" />
          <path
             d="m 2503.59,0 c -1.44,2.51 -1.45,2.52 -2.95,5 -1.98,2.78 -1.98,2.78 -4.02,5.53 -2.21,2.51 -2.21,2.51 -4.47,4.98 -2.4,2.22 -2.4,2.23 -4.85,4.39 -2.61,1.95 -2.62,1.95 -5.27,3.84 -2.77,1.61 -2.77,1.62 -5.58,3.17 -2.92,1.28 -2.93,1.26 -5.87,2.51 -0.42,0.13 -0.42,0.13 -0.85,0.25 -2.63,0.79 -2.62,0.82 -5.25,1.58 -3.15,0.59 -3.16,0.6 -6.31,1.13 -3.22,0.25 -3.23,0.25 -6.46,0.43 -3.27,-0.1 -3.28,-0.1 -6.55,-0.27 -3.31,-0.46 -3.31,-0.46 -6.61,-0.99"
             id="path31726" />
          <path
             d="m 2438.55,31.55 c -2.42,-4.18 -2.42,-4.18 -4.88,-8.34 -1.26,-1.93 -1.27,-1.93 -2.55,-3.85 -1.32,-1.83 -1.32,-1.83 -2.65,-3.65 -1.34,-1.72 -1.34,-1.72 -2.69,-3.42 -1.49,-1.76 -1.49,-1.76 -2.99,-3.51 -1.46,-1.6 -1.46,-1.6 -2.94,-3.19 -1.57,-1.58 -1.57,-1.58 -3.14,-3.15 -1.31,-1.23 -1.31,-1.23 -2.62,-2.44"
             id="path31728" />
          <path
             d="m 2515.42,133.86 43.64,-15.37"
             id="path31730" />
        </g>
      </g>
      <g
         id="Actor_.2">
        <g
           style="stroke:#696969;stroke-width:1.058"
           id="g31739">
          <path
             d="m 2710.96,956.67 c -6.29,-9.41 -6.29,-9.42 -12.45,-18.92 -6.46,-11.3 -6.47,-11.3 -12.78,-22.69 -5.72,-11.79 -5.71,-11.8 -11.27,-23.66 -4.17,-10.28 -4.17,-10.29 -8.19,-20.63"
             id="path31735" />
          <path
             d="m 2709.98,963.53 -22.58,-25.57 -21.13,-26.25"
             id="path31737" />
        </g>
      </g>
      <g
         id="Actor_.3">
        <g
           style="stroke:#696969;stroke-width:1.058"
           id="g31764">
          <path
             d="m 2249.81,0 c 1.14,3.66 1.14,3.67 2.34,7.31 3.67,9.35 3.64,9.36 7.41,18.67 4.24,9.06 4.24,9.07 8.61,18.07 4.85,8.75 4.86,8.76 9.83,17.44 5.32,8.21 5.32,8.21 10.75,16.34 5.85,7.77 5.86,7.78 11.82,15.47 6.31,7.21 6.31,7.22 12.72,14.34 6.71,6.62 6.71,6.62 13.52,13.13 7.06,5.96 7.07,5.96 14.22,11.8 7.36,5.26 7.37,5.27 14.81,10.4 7.6,4.51 7.61,4.52 15.29,8.89 7.79,3.74 7.8,3.75 15.65,7.35 7.92,2.93 7.93,2.94 15.9,5.72 7.98,2.11 7.99,2.12 16.02,4.07 7.99,1.27 8,1.27 16.01,2.37 7.94,0.42 7.95,0.43 15.9,0.68 7.83,-0.44 7.84,-0.44 15.66,-1.05 7.65,-1.29 7.66,-1.29 15.29,-2.75 7.43,-2.13 7.44,-2.14 14.82,-4.44 7.14,-2.96 7.15,-2.96 14.22,-6.08 6.8,-3.76 6.81,-3.77 13.53,-7.69 6.4,-4.54 6.41,-4.55 12.71,-9.23 5.97,-5.29 5.98,-5.29 11.83,-10.71 5.48,-5.99 5.48,-6 10.83,-12.1 4.95,-6.65 4.95,-6.66 9.77,-13.4 4.37,-7.26 4.38,-7.27 8.62,-14.61 3.77,-7.8 3.77,-7.81 7.4,-15.69 3.14,-8.3 3.14,-8.31 6.14,-16.66 2.48,-8.73 2.49,-8.73 4.83,-17.5 1.8,-9.09 1.8,-9.1 3.47,-18.21 1.12,-9.38 1.07,-9.39 2.1,-18.78 0.08,-1.58 0.08,-1.57 0.11,-3.15"
             id="path31742" />
          <path
             d="m 2782.87,484.86 c 6.59,-1.04 6.59,-1.04 13.19,-2 7.15,-0.72 7.15,-0.72 14.31,-1.37 7.49,-0.38 7.49,-0.36 14.98,-0.69 3.83,-0.06 3.83,-0.05 7.66,-0.08 4.39,0.05 4.39,0.05 8.79,0.13 6.86,0.31 6.86,0.3 13.72,0.66 6.33,0.57 6.33,0.58 12.65,1.2 4.2,0.54 4.2,0.54 8.39,1.12"
             id="path31744" />
          <path
             d="m 2129.91,0 -0.03,417.53 -4.33,-8.19 1.41,-0.49"
             id="path31746" />
          <path
             d="M 2125.55,409.34 2125.63,0"
             id="path31748" />
          <path
             d="M 2129.88,417.53 2707.44,533.68 2707.55,0"
             id="path31750" />
          <path
             d="m 2707.44,533.68 30.73,-1.14 33.46,-11.78 L 2771.74,0"
             id="path31752" />
          <path
             d="M 2738.17,532.54 2738.28,0"
             id="path31754" />
          <path
             d="m 2771.64,482.6 11.23,2.26"
             id="path31756" />
          <path
             d="M 2876.56,483.83 2876.67,0"
             id="path31758" />
          <path
             d="m 2782.97,0 -0.1,484.86"
             id="path31760" />
          <path
             d="m 2876.56,483.83 123.45,-43.46"
             id="path31762" />
        </g>
      </g>
      <g
         id="Actor_.5">
        <g
           style="stroke:#696969;stroke-width:1.058"
           id="g31832">
          <path
             d="M 2090.39,1103.95 2090.21,2000"
             id="path31794" />
          <path
             d="M 2090.56,276.49 2090.61,0"
             id="path31796" />
          <path
             d="m 2101.09,2000 0.16,-880.72"
             id="path31798" />
          <path
             d="M 2101.43,272.66 2101.48,0"
             id="path31800" />
          <path
             d="m 2582.45,2000 0.11,-573.04"
             id="path31802" />
          <path
             d="m 2582.66,917.46 0.04,-187.84"
             id="path31804" />
          <path
             d="m 2620.86,2000 0.11,-565.15"
             id="path31806" />
          <path
             d="m 2621.11,745.91 -0.04,229.83"
             id="path31808" />
          <path
             d="m 2660.51,2000 0.11,-557.34"
             id="path31810" />
          <path
             d="m 2660.72,1008.99 0.04,-225.75"
             id="path31812" />
          <path
             d="m 2666.06,2000 0.1,-556.23"
             id="path31814" />
          <path
             d="m 2666.29,790.63 -0.04,221.58"
             id="path31816" />
          <path
             d="m 2707.6,2000 0.11,-547.87"
             id="path31818" />
          <path
             d="M 2707.81,974.92 V 961.07"
             id="path31820" />
          <path
             d="m 2746.01,2000 0.11,-540.15"
             id="path31822" />
          <path
             d="m 2824.78,2000 0.1,-524.16"
             id="path31824" />
          <path
             d="m 2855.5,2000 0.1,-518.13"
             id="path31826" />
          <path
             d="M 2877.99,1486.37 2877.88,2000"
             id="path31828" />
          <path
             d="m 2888.77,2000 0.1,-511.44"
             id="path31830" />
        </g>
      </g>
      <g
         id="g31841">
        <g
           id="g31835" />
        <g
           id="g31837" />
        <g
           id="g31839" />
      </g>
      <g
         id="g31843" />
      <g
         id="paperID"
         visibility="hidden"
         opacity="0"
         transform="matrix(1e-4,0,0,1e-4,0,0)">
        <path
           style="fill:#e6e6e6;fill-rule:evenodd;stroke:#000000;stroke-width:0.5"
           d="M -2000,-2000 H 5000 V 4000 H -2000 Z M 0,0 H 3000 V 2000 H 0 Z"
           id="path31845" />
        <path
           style="fill:#000000;fill-opacity:0.118"
           d="M 3,2000 H 3000 V 3 h 3 V 2003 H 3 Z"
           id="path31847" />
      </g>
      <g
         id="ToolTip"
         visibility="hidden"
         opacity="0">
        <rect
           id="ToolTipShadow"
           opacity="0.2"
           fill="#000000"
           stroke="none"
           x="0"
           y="0"
           width="30"
           height="8" />
        <rect
           id="ToolTipBG"
           fill="#ffffe1"
           stroke="#000000"
           x="0"
           y="0"
           width="30"
           height="8" />
        <text
           xml:space="preserve"
           id="ToolTipText"
           fill="#000000"
           x="0"
           y="0"
           width="30"
           height="8">tooltip</text>
      </g>
      <a
         id="a31991"
         xlink:href=""
         target=""
         onmouseover=""
         onmouseout=""
         style="display:inline">
        <g
           id="Actor_.4"
           style="display:inline">
          <g
             style="stroke:#000000;stroke-width:1.058"
             id="g31791"
             onmouseover="this.fill(&quot;blue&quot;)"
             onmouseout="this.fill(&quot;red&quot;)">
            <path
               d="m 2355.17,898.97 c -0.36,-3.46 -0.4,-3.46 -0.73,-6.92 -0.38,-9.71 -0.42,-9.71 -0.69,-19.43 0.28,-9.63 0.27,-9.64 0.69,-19.27 0.98,-9.39 0.99,-9.4 2.11,-18.78 1.6,-8.8 1.6,-8.81 3.34,-17.59 2.41,-9.08 2.4,-9.09 4.95,-18.13 3,-8.35 3,-8.36 6.15,-16.66 3.62,-7.87 3.62,-7.88 7.39,-15.69 4.24,-7.33 4.25,-7.34 8.63,-14.6 4.81,-6.74 4.81,-6.75 9.75,-13.4 5.36,-6.1 5.37,-6.11 10.84,-12.1 5.85,-5.41 5.86,-5.42 11.82,-10.71 6.31,-4.68 6.35,-4.64 12.73,-9.24 1.2,-0.71 1.21,-0.69 2.42,-1.37 5.55,-3.16 5.52,-3.23 11.11,-6.31 7.07,-3.12 7.08,-3.13 14.22,-6.09 7.37,-2.3 7.38,-2.3 14.81,-4.43 7.74,-1.47 7.75,-1.47 15.53,-2.77 7.7,-0.6 7.71,-0.58 15.42,-1.02 5.47,0.16 5.47,0.23 10.94,0.45 2.48,0.11 2.48,0.07 4.95,0.21 8.02,1.15 8.03,1.11 16.02,2.38 8.02,1.95 8.03,1.96 16.02,4.07 7.97,2.78 7.98,2.79 15.9,5.72 7.85,3.6 7.86,3.6 15.65,7.34 7.68,4.38 7.69,4.39 15.29,8.9 7.45,5.13 7.45,5.14 14.81,10.39 7.16,5.84 7.16,5.85 14.22,11.8 6.81,6.51 6.81,6.52 13.52,13.13 6.41,7.13 6.39,7.15 12.72,14.35 2.68,3.44 2.65,3.47 5.3,6.93 3.26,4.27 3.3,4.24 6.52,8.53 5.45,8.21 5.47,8.2 10.83,16.46 4.94,8.63 4.94,8.64 9.76,17.33 4.36,9 4.35,9.01 8.61,18.07 2.27,5.6 2.23,5.62 4.46,11.24 1.47,3.72 1.5,3.7 2.94,7.43 3.1,9.55 3.13,9.55 6.13,19.13 2.47,9.7 2.47,9.71 4.82,19.44 1.79,9.79 1.78,9.8 3.46,19.61 0.86,7.5 0.8,7.51 1.61,15.03 0.24,2.29 0.26,2.29 0.48,4.59 0.37,9.74 0.42,9.75 0.7,19.49 -0.29,9.61 -0.27,9.61 -0.71,19.21 -1.18,10.57 -1.2,10.58 -2.54,21.13 -1.45,7.94 -1.45,7.95 -3.03,15.86 -2.35,8.77 -2.34,8.78 -4.83,17.51 -2.99,8.35 -2.99,8.36 -6.13,16.66 -3.63,7.87 -3.64,7.88 -7.41,15.69 -4.24,7.34 -4.24,7.35 -8.62,14.6 -4.8,6.74 -4.81,6.75 -9.74,13.39 -5.36,6.11 -5.37,6.12 -10.85,12.12 -5.85,5.41 -5.86,5.42 -11.83,10.71 -6.3,4.68 -6.33,4.65 -12.72,9.23 -2.68,1.58 -2.71,1.54 -5.41,3.08 -4.06,2.3 -4.03,2.36 -8.11,4.61 -7.09,3.1 -7.09,3.12 -14.23,6.08 -7.37,2.3 -7.39,2.3 -14.81,4.44 -7.62,1.46 -7.64,1.46 -15.29,2.75 -7.82,0.6 -7.83,0.6 -15.66,1.04 -7.95,-0.25 -7.96,-0.25 -15.9,-0.67 -8.02,-1.1 -8.03,-1.11 -16.02,-2.38 -8.02,-1.95 -8.03,-1.95 -16.01,-4.06 -7.97,-2.79 -7.98,-2.79 -15.9,-5.73 -7.85,-3.59 -7.86,-3.6 -15.65,-7.34 -7.68,-4.38 -7.68,-4.39 -15.29,-8.9 -7.41,-5.11 -7.42,-5.11 -14.74,-10.34 -7.19,-5.87 -7.2,-5.87 -14.29,-11.85 -6.81,-6.51 -6.81,-6.52 -13.52,-13.13 -6.41,-7.12 -6.41,-7.13 -12.71,-14.35 -5.97,-7.68 -5.98,-7.69 -11.83,-15.46 -5.47,-8.19 -5.47,-8.19 -10.83,-16.46 -4.93,-8.63 -4.94,-8.63 -9.75,-17.33 -4.37,-9 -4.37,-9.01 -8.62,-18.07 -3.76,-9.3 -3.76,-9.31 -7.4,-18.66 -3.12,-9.54 -3.13,-9.55 -6.13,-19.13 -2.47,-9.7 -2.47,-9.71 -4.81,-19.45 -1.8,-9.78 -1.79,-9.79 -3.47,-19.6 -0.73,-6.35 -0.68,-6.35 -1.36,-12.71"
               id="path31767" />
            <path
               d="m 2563.93,1079.95 c -6.51,-1.31 -6.5,-1.59 -12.96,-3.3 -6.45,-2.25 -6.46,-2.26 -12.87,-4.63 -6.36,-2.91 -6.37,-2.92 -12.67,-5.94 -6.22,-3.54 -6.22,-3.55 -12.38,-7.2 -6.03,-4.16 -6.03,-4.16 -11.99,-8.42 -5.79,-4.73 -5.8,-4.73 -11.51,-9.56 -5.51,-5.26 -5.52,-5.27 -10.94,-10.62 -5.2,-5.77 -5.2,-5.77 -10.3,-11.61 -4.83,-6.23 -4.83,-6.23 -9.57,-12.52 -4.43,-6.63 -4.43,-6.64 -8.77,-13.33 -3.99,-6.98 -3.99,-6.99 -7.89,-14.02 -3.54,-7.29 -3.54,-7.29 -6.98,-14.63 -3.04,-7.53 -3.04,-7.54 -5.98,-15.11 -2.54,-7.73 -2.54,-7.73 -4.97,-15.49 -2,-7.85 -2,-7.86 -3.9,-15.74 -1.46,-7.92 -1.46,-7.93 -2.81,-15.87 -0.9,-7.93 -0.89,-7.94 -1.69,-15.89 -0.29,-6.72 -0.29,-6.72 -0.48,-13.45 0.2,-8.94 0.18,-8.94 0.49,-17.87 0.78,-7.61 0.8,-7.62 1.7,-15.21 1.35,-7.38 1.35,-7.39 2.81,-14.74 1.89,-7.1 1.92,-7.1 3.91,-14.17 0.95,-2.69 0.98,-2.68 1.97,-5.36 1.5,-4.06 1.45,-4.08 2.99,-8.13 2.96,-6.37 2.95,-6.38 6,-12.7 3.43,-5.94 3.44,-5.95 6.98,-11.82 3.89,-5.46 3.9,-5.47 7.9,-10.86 4.34,-4.93 4.37,-4.91 8.78,-9.79 1.26,-1.19 1.28,-1.17 2.57,-2.34 3.5,-3.16 3.46,-3.21 6.99,-6.33 5.11,-3.78 5.12,-3.8 10.3,-7.47 5.44,-3.17 5.45,-3.18 10.95,-6.23 5.73,-2.52 5.74,-2.52 11.51,-4.92 5.98,-1.86 5.99,-1.86 12,-3.59 6.17,-1.18 6.18,-1.18 12.38,-2.22 6.33,-0.5 6.34,-0.5 12.67,-0.85 6.43,0.2 6.44,0.2 12.87,0.54 6.49,0.89 6.5,0.9 12.96,1.92 6.5,1.58 6.5,1.62 12.97,3.29 2.05,0.71 2.05,0.74 4.09,1.47 4.39,1.59 4.41,1.54 8.79,3.17 6.35,2.92 6.36,2.92 12.67,5.94 6.21,3.55 6.22,3.55 12.37,7.21 6.03,4.15 6.03,4.16 11.99,8.41 5.79,4.73 5.79,4.73 11.51,9.55 5.51,5.27 5.52,5.27 10.95,10.63 5.22,5.81 5.22,5.81 10.35,11.7 4.8,6.18 4.8,6.18 9.51,12.43 4.43,6.63 4.44,6.63 8.77,13.32 4.33,7.68 4.32,7.69 8.56,15.42 3.2,6.6 3.2,6.6 6.3,13.24 3.05,7.54 3.05,7.54 6,15.11 2.53,7.73 2.53,7.73 4.96,15.49 2,7.85 2.01,7.86 3.9,15.74 1.46,7.92 1.45,7.93 2.81,15.87 0.7,6.1 0.65,6.11 1.3,12.22 0.19,1.83 0.21,1.83 0.39,3.67 0.3,7.88 0.33,7.89 0.56,15.78 -0.24,7.84 -0.24,7.85 -0.59,15.69 -0.78,7.53 -0.78,7.54 -1.67,15.06 -1.35,7.38 -1.35,7.39 -2.82,14.75 -1.89,7.09 -1.89,7.1 -3.9,14.16 -2.43,6.76 -2.43,6.77 -4.98,13.49 -2.97,6.43 -2.99,6.43 -6.06,12.82 -1.6,2.79 -1.64,2.77 -3.27,5.55 -1.82,3.08 -1.78,3.1 -3.64,6.15 -3.91,5.45 -3.9,5.47 -7.9,10.85 -4.27,4.87 -4.27,4.88 -8.64,9.66 -4.79,4.43 -4.79,4.44 -9.68,8.78 -5.11,3.8 -5.13,3.8 -10.32,7.5 -3.32,1.95 -3.35,1.91 -6.7,3.81 -2.12,1.21 -2.11,1.25 -4.25,2.42 -5.74,2.49 -5.74,2.53 -11.52,4.92 -5.97,1.86 -5.98,1.86 -11.99,3.59 -6.17,1.18 -6.18,1.18 -12.37,2.23 -6.29,0.49 -6.3,0.49 -12.6,0.84 -6.47,-0.2 -6.48,-0.2 -12.95,-0.54 -6.49,-0.89 -6.59,-0.64 -12.97,-1.92"
               id="path31769" />
            <path
               d="m 2688.82,1022.74 c -2.62,-0.91 -2.63,-0.91 -5.23,-1.88 -6.38,-2.95 -6.4,-2.93 -12.73,-5.97 -6.22,-3.55 -6.23,-3.55 -12.38,-7.21 -6.03,-4.15 -6.04,-4.16 -11.99,-8.41 -5.78,-4.71 -5.78,-4.71 -11.48,-9.52 -5.53,-5.28 -5.53,-5.29 -10.98,-10.66 -5.19,-5.77 -5.19,-5.78 -10.3,-11.62 -3.19,-4.09 -3.16,-4.12 -6.31,-8.25 -1.63,-2.13 -1.65,-2.12 -3.25,-4.26 -4.41,-6.65 -4.44,-6.63 -8.77,-13.32 -4.3,-7.6 -4.29,-7.61 -8.49,-15.27 -3.23,-6.67 -3.24,-6.67 -6.38,-13.39 -3.04,-7.54 -3.05,-7.54 -5.99,-15.11 -2.53,-7.73 -2.53,-7.73 -4.96,-15.49 -1.99,-7.79 -2,-7.8 -3.88,-15.61 -1.47,-7.99 -1.47,-8 -2.83,-16 -0.9,-7.94 -0.88,-7.94 -1.69,-15.89 -0.15,-3.09 -0.12,-3.09 -0.23,-6.18 -0.17,-4.8 -0.21,-4.8 -0.33,-9.6 0.24,-7.77 0.22,-7.78 0.57,-15.55 0.79,-7.6 0.8,-7.61 1.69,-15.2 0.85,-4.72 0.9,-4.72 1.8,-9.43 0.5,-2.66 0.47,-2.67 1.01,-5.31 1.92,-7.09 1.89,-7.11 3.9,-14.17 2.43,-6.76 2.43,-6.77 4.98,-13.49 2.94,-6.38 2.96,-6.37 6,-12.7 1.95,-3.4 1.95,-3.4 3.98,-6.75"
               id="path31771" />
            <path
               d="M 3000,1510.91 2275.79,1365.27 2013.3,995.3 l -66.08,-126.25 0.1,-484.83 21.43,84.64 v 397.4 l -21.53,2.79"
               id="path31773" />
            <path
               d="m 1947.32,384.22 87.54,-88.12 90.7,18.24"
               id="path31775" />
            <path
               d="M 3000,1202.02 2858.89,1344.07 2216.13,1214.94 1968.75,866.26"
               id="path31777" />
            <path
               d="m 3000,632.48 -995.01,-200.1 -36.24,36.48"
               id="path31779" />
            <path
               d="m 2004.99,432.38 29.87,-136.28 90.72,-31.94"
               id="path31781" />
            <path
               d="m 2275.79,1365.27 -59.66,-150.33"
               id="path31783" />
            <path
               d="m 2537.48,1131.54 26.45,-51.59 112.47,-39.59"
               id="path31785" />
            <path
               d="M 2858.89,1344.07 3000,1468.03"
               id="path31787" />
            <path
               d="m 3000,490.18 -89.96,-18.09"
               id="path31789" />
          </g>
        </g>
      </a>
    </g>
  </a>
</svg>
